<?xml version="1.0" encoding="utf-8"?>
<!-- Generator: Adobe Illustrator 25.3.1, SVG Export Plug-In . SVG Version: 6.00 Build 0)  -->
<svg version="1.1" id="Ebene_1" xmlns="http://www.w3.org/2000/svg" xmlns:xlink="http://www.w3.org/1999/xlink" x="0px" y="0px"
	 width="225.4px" height="65.2px" viewBox="0 0 225.4 65.2" style="enable-background:new 0 0 225.4 65.2;" xml:space="preserve">
<style type="text/css">
	.st0{fill:#8499A3;}
</style>
<g id="Vordergrund">
	<g>
		<path class="st0" d="M71.7,0.1v65h153.7v-65H71.7z M146,27h2.1v1.9H146V27z M135.2,26.8h1.8v1.8h-1.8L135.2,26.8z M136.9,30.4v8.1
			h-1.5v-8.1H136.9z M130.8,33.6l0.7,0.3c0.9,0.5,1.9,1,1.9,2.4c0,1.7-1.2,2.4-3,2.4c-0.7,0-1.5-0.1-2.2-0.3V37
			c0.6,0.3,1.3,0.4,2,0.5c0.7,0,1.6-0.2,1.6-1c0-0.6-0.7-1-1.3-1.3l-0.8-0.5c-0.7-0.5-1.6-1-1.6-2.2c0-1.5,1.2-2.3,2.9-2.3
			c0.6,0,1.2,0.1,1.8,0.3V32c-0.6-0.3-1.2-0.5-1.8-0.5c-0.7,0-1.3,0.3-1.3,0.9S130.3,33.3,130.8,33.6L130.8,33.6z M125.3,18.5
			l3.9-5.7h-3.7v-1.2h5.5v1.2l-3.9,5.8h4.1v1.2h-6L125.3,18.5z M126.8,30.3v1.6c-1.4,0-2.5,0.7-2.5,3.2v3.5h-1.5v-8.1h1.5v1.6
			C124.6,31,125.6,30.2,126.8,30.3z M121.6,19.7v-8.1h1.5v8.1H121.6z M121.5,7.9h1.8v1.8h-1.8L121.5,7.9z M112.5,11.6h1.5v1.7
			c0.3-1.1,1.4-1.9,2.6-1.9c1.9,0,2.2,1.7,2.2,2.7v5.6h-1.5v-4.4c0-1.5,0.1-2.3-1.1-2.3s-2.1,1.7-2.1,3.3v3.5h-1.5L112.5,11.6z
			 M103.8,7.9h1.5v4.7c0.4-0.8,1.2-1.3,2.1-1.3c2.2,0,2.8,2.2,2.8,4.3c0,2.5-0.9,4.2-3.3,4.2c-3,0-3.1-2.5-3.1-3.5L103.8,7.9z
			 M85.2,7.9v10.4h4.5v1.4h-6.2V7.9L85.2,7.9z M83.4,26.8h1.7v7.9c0,0.9-0.1,2.6,2.2,2.6c2.3,0,2.3-1.8,2.3-2.6v-7.9h1.7v8.3
			c0,2.5-1.7,3.7-4,3.7c-2.3,0-4-1.1-4-3.7L83.4,26.8z M91.5,57.4h-1.7V52h-4.6v5.4h-1.7V45.7h1.7v5h4.6v-5h1.7L91.5,57.4z
			 M91.1,15.2c0-3.5,2.3-3.8,3.3-3.8c1.9,0,2.9,1.3,2.9,3.3V15h-4.7c0,1.5,0.8,3.6,3,3.6c0.5,0,1-0.1,1.5-0.3l-0.1,1.2
			c-0.6,0.2-1.3,0.3-2,0.3C92.6,19.9,91.1,18.4,91.1,15.2z M99.8,51.9v5.6h-1.5v-1c-0.6,0.8-1.5,1.2-2.5,1.2c-1.1-0.1-2-1.1-1.9-2.2
			c0-2.1,2.4-2.6,4.4-2.6v-1.5c-0.1-0.6-0.6-1.1-1.2-1h-0.2c-0.6,0-1.1,0.6-1.1,1.2h-1.6c0-1.3,0.7-2.4,3-2.4c1.3-0.2,2.5,0.7,2.7,2
			C99.8,51.4,99.8,51.6,99.8,51.9z M100,38.6h-1.5v-4.5c0-1.5,0-2.3-1.1-2.3c-1.3,0-2.1,1.7-2.1,3.3v3.5h-1.5v-8.1h1.6v1.7
			c0.4-1.1,1.4-1.9,2.6-1.9c1.9,0,2.2,1.7,2.2,2.7V38.6z M101.2,19.7h-1.5v-8.1h1.5L101.2,19.7z M101.4,9.7h-1.9l0.1-1.7h1.8V9.7z
			 M102.4,26.8h1.8v1.8h-1.8V26.8z M104,30.4v8.1h-1.5v-8.1H104z M108.7,57.4h-1.5V53c0-1.5,0-2.3-1.1-2.3c-1.3,0-2.1,1.7-2.1,3.3
			v3.4h-1.5v-8.1h1.6v1.7c0.3-1.2,1.3-2,2.5-2c1.9,0,2.2,1.7,2.2,2.7V57.4z M109,38.6l-3-8.1h1.7l2.1,5.9l1.9-5.9h1.7l-2.8,8.1H109z
			 M118,57.4h-1.5V53c0-1.5,0-2.3-1.1-2.3c-1.3,0-2.1,1.7-2.1,3.3v3.4h-1.5v-8.1h1.5v1.7c0.3-1.2,1.4-2,2.6-2c1.9,0,2.2,1.7,2.2,2.7
			L118,57.4z M114.2,34.1c0-3.5,2.3-3.8,3.3-3.8c1.9,0,2.9,1.3,2.9,3.2v0.4h-4.7c0,1.5,0.8,3.6,3,3.6c0.5,0,1-0.1,1.5-0.3l-0.1,1.2
			c-0.7,0.2-1.3,0.3-2,0.3C115.8,38.8,114.2,37.3,114.2,34.1z M123.6,57.6c-2.5,0-3.6-1.6-3.6-4.2c0-2.6,1.1-4.2,3.6-4.2
			s3.6,1.7,3.6,4.2C127.2,55.9,126,57.6,123.6,57.6L123.6,57.6z M132.6,57.4H131l-3.1-8.1h1.7l2.1,5.9l1.9-5.9h1.7L132.6,57.4z
			 M142.7,52.8H138c0,1.5,0.8,3.6,3,3.6c0.5,0,1-0.1,1.5-0.3l-0.1,1.2c-0.7,0.2-1.3,0.3-2,0.3c-2.4,0-4-1.4-4-4.6
			c0-3.5,2.3-3.8,3.3-3.8c1.9,0,2.9,1.3,2.9,3.2L142.7,52.8z M144.2,31.6H142V36c0,0.7,0.1,1.6,1.3,1.6c0.3,0,0.6,0,0.8-0.1v1.2
			c-0.4,0.1-0.8,0.1-1.2,0.1c-2,0-2.4-0.9-2.4-2v-5.1H139v-1.2h1.5v-1.9l1.5-1v2.9h2.2L144.2,31.6z M149,50.8
			c-1.4,0-2.5,0.7-2.5,3.2v3.4h-1.5v-8.1h1.6V51c0.3-1.1,1.4-1.8,2.5-1.8L149,50.8z M151.6,33v5.6H150v-1.1
			c-0.4,0.8-1.2,1.2-2.1,1.2c-0.1,0-0.2,0-0.4,0c-1.1-0.1-2-1-1.9-2.2c0-2.1,2.4-2.7,4.4-2.7v-1.4c-0.1-0.6-0.6-1-1.2-1h-0.2
			c-0.7,0-1.1,0.6-1.1,1.2c0,0,0,0,0,0h-1.6c0-1.3,0.7-2.4,3-2.4c1.3-0.2,2.5,0.7,2.7,2C151.6,32.5,151.6,32.8,151.6,33L151.6,33z
			 M151.6,28.9h-2.1V27h2.1V28.9z M158.6,31.6h-2.2V36c0,0.7,0.1,1.6,1.3,1.6c0.3,0,0.6,0,0.8-0.1v1.2c-0.4,0.1-0.8,0.1-1.2,0.1
			c-2,0-2.4-0.9-2.4-2v-5.1h-1.4v-1.2h1.4v-1.9l1.5-1v2.9h2.2L158.6,31.6z"/>
		<path class="st0" d="M139.6,50.3c-0.8,0-1.5,0.6-1.6,1.4h3.1v-0.1l0,0C141,50.9,140.4,50.3,139.6,50.3
			C139.6,50.3,139.6,50.3,139.6,50.3z"/>
		<path class="st0" d="M123.6,50.4c-1.7,0-1.9,1.7-1.9,3l0,0c0,1.3,0.2,3,1.9,3c1.7,0,1.9-1.8,1.9-3
			C125.5,52.1,125.3,50.4,123.6,50.4z"/>
		<path class="st0" d="M118.9,32.8c0-0.8-0.7-1.3-1.5-1.3c0,0,0,0,0,0c-0.8,0-1.6,0.6-1.6,1.4h3.1L118.9,32.8z"/>
		<path class="st0" d="M106.8,18.7c1.3,0,1.7-1.5,1.7-3c0-1.2-0.2-3.1-1.5-3.1c-1.3,0-1.7,1.9-1.7,3l0,0
			C105.3,16.9,105.5,18.7,106.8,18.7z"/>
		<path class="st0" d="M95.8,13.9L95.8,13.9c-0.1-0.8-0.7-1.3-1.5-1.3c-0.8,0-1.6,0.6-1.6,1.4h3.1C95.8,14,95.8,13.9,95.8,13.9z"/>
		<path class="st0" d="M95.5,55.4c0,0.5,0.4,0.9,0.9,1c1.1-0.2,1.9-1.1,1.8-2.2v-0.5h-0.3C96.7,53.8,95.5,54.4,95.5,55.4z"/>
		<path class="st0" d="M147.3,36.6c0,0.5,0.4,0.9,0.9,1c1.1-0.2,1.8-1.1,1.8-2.2v-0.4h-0.3C148.5,35,147.3,35.6,147.3,36.6z"/>
	</g>
	<g>
		<path class="st0" d="M35.2,14.6c0,0,0.1-0.2,0.1-0.2h-0.1C35.2,14.4,35.1,14.5,35.2,14.6c-0.2,0-0.2,0.1-0.2,0.2
			C35.2,14.7,35.2,14.6,35.2,14.6z"/>
		<path class="st0" d="M54.1,46.1c0-0.5,0.1-0.4,0.1-0.8c0-0.4-0.2-0.2-0.4-0.2c-0.2,0-0.1,0.3-0.3,0.4c-0.1,0.1-0.3,0.2-0.4,0.3
			l0,0C53,45.8,53,46,52.9,46.1c-0.1,0.2-0.1,0.3-0.2,0.3c-0.1,0-0.1,0.3-0.1,0.6c-0.2,0.7-0.5,1.3-0.9,1.9
			c-0.2,0.2-0.6,1.3-0.8,1.4c-0.2,0.1-0.6,0.7-0.7,0.7s-0.2,0.4,0,0.4c0.2,0,0.1-0.1,0.6-0.1c0.5,0,0.5,0.3,1,0.3s0.4,0.1,0.7,0.1
			c0.3,0,0.1,0,0.5-0.2c0.4-0.2,0.5-1,0.5-1.3c0.1-0.4,0.3-0.7,0.6-1c0.2-0.4,0.2-0.8,0.1-1.2C54.1,47.4,54.1,46.7,54.1,46.1z"/>
		<path class="st0" d="M52.8,55.1L52.8,55.1L52.8,55.1L52.8,55.1z"/>
		<path class="st0" d="M52.8,55.1c-0.1,0-0.1,0.2-0.1,0.2S52.8,55.1,52.8,55.1z"/>
		<path class="st0" d="M21.1,49.8c-0.6-0.4-0.4-0.2-0.8-0.6c-0.3-0.2-0.8-0.2-1.1,0c-0.2,0.2,0,0.8-0.2,1.2
			c-0.2,0.3-0.5,0.5-0.9,0.7l-0.3,0.2c-0.3,0.2-0.3,0.7-0.3,1c0,0.2-0.3,0.1-0.4,0.5s0.5,0.9,0.6,1c0.3,0.2,0.7,0.3,1.1,0.4
			c0.7,0.2,1.1,0.1,1.8-0.4c1.1-0.8,0.9-2.4,1-3C21.7,50.2,21.7,50.2,21.1,49.8z"/>
		<path class="st0" d="M30.7,54.7c0,0,0,0.1,0,0.2c0.2,0,0.2,0,0.2,0l0,0C30.8,54.7,30.7,54.7,30.7,54.7z"/>
		<path class="st0" d="M56.2,29.7c0.2,0,0.5-0.1,0.5-0.4c0,0,0,0,0,0c0-0.2-0.1-0.5-0.4-0.5h-0.1c-0.2,0-0.4,0.2-0.4,0.4l0,0
			C55.8,29.5,56,29.7,56.2,29.7C56.2,29.7,56.2,29.7,56.2,29.7z"/>
		<path class="st0" d="M0,0.1v65h65v-65H0z M51.9,17.6c0.1-0.2,0.2-0.5,0.2-0.7c0.1-0.3,0.4-0.5,0.4-1c0-0.5-0.2-0.4-0.2-0.9
			c0-0.2,0-0.5,0-0.7c0-0.3,0.1-0.4,0.4-0.9c0.2-0.4,0.5-0.6,0.9-0.8c0-0.3,0-0.7-0.1-1c0-0.3,0-0.6-0.1-0.9c0,0,0-0.1,0-0.1
			c0,0-0.4-0.4,0.3-1c0.5-0.4,1.2-0.3,1.6,0.1c0.3,0.3,0.3,1,0.1,1.7c-0.4,0.6-0.5,0.6-0.5,1c0,0.3,0,0.5-0.1,0.8
			c-0.1,0.3-0.3,0.4-0.2,0.7c0.1,0.3,0,0.7-0.1,1c-0.2,0.1-0.4,0.3-0.4,0.5v0.9C54.1,16.6,54,16.8,54,17v2.1
			c0.1,0.2,0.2,0.4,0.3,0.6c0,0.2,0.1,0.4,0.3,0.6c0.2,0.2,0.3,0.4,0.2,0.6c0,0.3-0.2,0.5-0.4,0.7c-0.3,0.4-0.9,0.5-1.4,0.2
			c0,0,0,0,0,0c-0.2-0.1-0.3-0.3-0.4-0.5c-0.1-0.3-0.3-0.3-0.4-0.3c-0.2-0.2-0.3-0.5-0.2-0.8c0.1-0.4,0-0.8-0.1-1.2
			C51.6,18.6,51.8,18,51.9,17.6z M42.7,19.3c0,0,0-0.5,0.5-0.4c0.5,0.1,0.3,0.6,0.4,0.8s0.7,0.9,0.3,1.2c-0.3,0.3-0.7-0.3-0.7-0.4
			c0-0.2-0.1-0.4-0.3-0.5c-0.2-0.1-0.3-0.2-0.3-0.4V19.3z M43.3,17.2c-0.3,0.1-0.4-0.7-0.3-0.9c0.1-0.2,0.3-0.2,0.3-0.6
			c0-0.4-0.2-0.1-0.2-0.5c0-0.2,0-0.4-0.1-0.6c-0.1-0.2,0.1-0.4,0.1-0.4c0.2-0.2,0.5-0.3,0.7-0.1c0.3,0.2,0.4,0.5,0.3,0.8L43.9,15
			c-0.3,0.3-0.4,0.6-0.4,1C43.5,16.3,43.6,17.1,43.3,17.2z M42.1,28.4c0,0,0.1-0.4,0.3-0.3c0.2,0,0.3,0.1,0.3,0.1s0.2,0.3,0.1,0.5
			c-0.2,0.2-0.2,0.2-0.4,0.1C42.2,28.7,42.1,28.5,42.1,28.4L42.1,28.4z M40.8,48.4c0.2-0.1,0.3-0.2,0.3-0.4c0-0.1,0-0.2,0.3-0.4
			c0.3-0.1-0.1-0.4-0.2-0.5c0-0.1-0.1-0.2-0.1-0.3l0,0c0,0,0-0.5,0.3-0.4c0.3,0,0.3,0,0.3,0.4c0,0.4-0.1,0.3,0.1,0.5
			c0.2,0.3,0.2,0.6,0.1,0.9c-0.2,0.3-0.4,0.4-0.4,0.8c0,0.4-0.1,0.9-0.3,0.9c-0.2,0-0.3-0.2-0.3-0.5c0-0.2-0.1-0.4-0.2-0.5
			C40.5,48.7,40.6,48.5,40.8,48.4L40.8,48.4z M32.7,17.7c0.2-0.4,0.4-0.9,0.4-1.3c0.1-0.4,0.5-0.9,0.5-1.3c0-0.2,0-0.4-0.1-0.5
			c-0.1-0.3-0.2-0.6-0.1-0.9c0.1-0.5,0.4-0.7,0.8-0.6s0.9-0.6,1-1.1c0-0.4,0-0.7,0-1.1c-0.1-0.4-0.3-0.5-0.1-1
			c0.1-0.2,0.1-0.4,0.1-0.6c0.1-0.1,0.2-0.3,0.3-0.4V8.8c0,0,0.5-0.6,0.9-0.6C36.8,8.4,37,8.7,37,9.1c0,0.6-0.8,1.2-0.3,1.9
			c0,0.2,0.2,0.4,0.2,0.7c0,0.1-0.1,0.2-0.1,0.3v2.9c0,0.3-0.7,1.8-0.6,2.2s-0.1,0.6-0.7,1.1c-0.2,0.1-0.8,0.3-0.8,0.8
			c0.1,0.4,0.2,0.8,0.5,1.2c0,0,0.6,1,0.1,1.4c-0.2,0.2-0.4,0.5-0.4,0.8c0,0.3-0.3,0.6-1.1,0.4c0,0-0.2-0.2-0.4-0.4
			c-0.2-0.2-0.5-0.4-0.5-0.9v-2.6C32.8,18.5,32.5,18.1,32.7,17.7L32.7,17.7z M19,33.1c0,0,0-0.4,0.2-0.5c0-0.3,0.2-0.5,0.4-0.5
			c0,0,0,0,0,0c0.1-0.1,0.1-0.2,0-0.3c-0.1-0.2-0.1,0-0.1-0.5c0-0.3,0-0.5-0.2-0.8c0-0.2,0.3-0.7,0.3-0.7c0-0.5,0.3-0.9,0.8-0.9
			c0.1,0,0.1,0,0.2,0c0.3,0,0.4,0.3,0.5,0.6c0.2,0.4,0.3,0.9,0.2,1.3c-0.1,0.5-0.4,0.9-0.8,1.1c0,0-0.2,0.2,0.1,0.6
			c0.3,0.4,0.5,0.8,0.4,1.3c-0.1,0.5-0.3,0.4-0.6,0.5c-0.3,0-0.3,0.9-0.3,0.9h0.3c0.2-0.2,0.4-0.4,0.7-0.4c0.4,0,0.3,0.9,0.3,0.9
			v1.6c0,0.3-0.3,0.4-0.3,0.7c0,0.2,0.1,1.5-0.6,1.5c-0.5,0.1-1-0.3-1.1-0.9c0,0,0-0.1,0-0.1c0-0.1,0-0.1,0-0.2v-1
			c0,0,0-0.3-0.1-0.3c-0.1,0-0.2-0.1-0.2-0.3c-0.1-0.1-0.2-0.3-0.2-0.4v-0.8c-0.1-0.1-0.2-0.3-0.2-0.5c0-0.4,0.2-0.3,0.2-0.6
			C19,34.2,19,33.1,19,33.1z M9.9,58.8c-0.2-0.1-0.4-0.2-0.6-0.2H8.9c-0.6-0.5-0.5-0.8-0.5-1.5c0-0.4,0-0.9,0-1.3
			c0-0.2-0.1-0.4-0.2-0.6c0.1-0.5,0.3-1,0.5-1.4c0.4-0.5,0.4-1.2,0.1-1.7c-0.3-0.8-0.1-0.6,0-1.3c0.1-0.7-0.1-1.2,0.1-1.5
			s0.1-0.8,0.2-1c0.1-0.1,0.2-0.3,0.3-0.4c0.2-0.2,0.3-0.3,0.4-0.6c0.1-0.2,0.6-0.2,0.7,0.1c0,0.6,0.3,1.1,0.7,1.5
			c0.4,0.3,0.1,1.4,0,1.4c-0.1,0-0.5,0.2-0.4,1.2c0.1,0.6-0.1,1.1-0.4,1.6c0,0-0.2,0.4,0.1,0.5c0.3,0.1,0.6,0.4,0.4,0.7
			s-0.6,0.7-0.5,1.3c0.1,0.5,0.2,0.5,0.7,0.5s1.1,0,1.1,0.7C11.9,57.6,11,58.4,9.9,58.8z M23.6,50.9c-0.2,0.2-0.4,1.3-0.6,1.6v1.2
			c-0.2,0.3-0.5,0.4-0.8,0.8c-0.2,0.4,0,0.3-0.1,0.4c-0.3,0.7-0.7,1.1-1.3,1.1c-0.7,0-1.1-0.1-1.4,0.4s-0.4,0.6-1.1,0.6
			s-1.3,0-1.6-0.3c-0.2-0.2-0.5-0.4-0.8-0.4c-0.2-0.1-0.4-0.3-0.4-0.5c-0.1-0.4-0.2-0.6-0.3-0.7c-0.1,0-0.2-1.1-0.1-1.2
			c0.1-0.1,0.2-0.3,0.2-0.5c0.1-0.3,0.1-0.7,0.1-1c0,0,0.2-0.1,0.2-0.5s0-0.6,0.2-0.7l0.2-0.4c0,0,0-0.7,0.5-0.9
			c0.5-0.1,0.6-0.4,0.7-1c0.1-0.6,2-1.3,2.7-1.3c0.9,0,1.2,0.5,1.6,0.5c0.4,0,0.8-0.6,1.6-0.4c0.3,0,0.6,0.3,0.6,0.6
			c0,0.1,0,0.3-0.1,0.4c-0.1,0.1-0.1,0.9,0.1,1C24,49.9,23.8,50.7,23.6,50.9z M36.8,47.6c0,0.3,0,0.5,0,0.8c0,0.3,0,0.6-0.2,0.9
			c0,0.2-0.1,0.5-0.2,0.7v2c-0.3,0.4-0.4,0.9-0.3,1.4c0,0.2-0.2,0.2-0.2,0.4c-0.1,0.3-0.2,0.5-0.4,0.8c-0.3,0.6-0.8,1-1.4,1.1
			c-0.3,0.1-0.6,0.3-0.7,0.6c-0.2,0.5-0.4,0.6-0.8,0.6c-0.4,0-0.7,0-0.8,0.2c-0.1,0.2-0.2,0.1-0.4-0.1c-0.2-0.5-0.7-0.7-1.2-0.7
			c-0.4,0-0.8,0-1-0.3c-0.1-0.3-0.3-0.6-0.4-0.8c0-0.3,0-0.5,0-0.8V54c0.1-0.3,0.3-0.5,0.6-0.6v-0.6c-0.1-0.4-0.2-0.9-0.3-1.4
			c0-0.1,0-0.2,0-0.2l0,0c0-0.2,0-0.5,0-0.7c0.1-0.4,0.3-0.8,0.5-1.1c0.2-0.2,0.7-0.9,1.1-0.9c0.6,0,1.1-0.2,1.5-0.6
			c0.3-0.4,0.2-0.6,0.8-0.7c0.5,0,0.2,0.3,0.9,0.2s0.3-0.5,0.7-0.7c0.3-0.1,0.6-0.1,0.9-0.1c0.4,0.1,0.3,0.3,0.7,0.3
			c0.4,0,0.7,0,0.7,0.2C37,47.4,37,47.6,36.8,47.6z M38.7,30.9c0.1,0.3,0.1,0.7,0.1,1c-0.1,0.3-0.2,0.4-0.2,0.6
			c0,0.2,0.4,0.4,0.3,1.1c-0.1,0.7-0.7,1-0.7,1.7c0.1,0.6-0.2,1.2-0.8,1.3c-0.5,0.2-1.7,2.1-3,2.2C33,38.9,32.6,39,31,37.7
			c-1.6-1.3-1.3-2-1.1-2.4c0.2-0.4,0.9-1.3,0.6-2c-0.3-0.7-0.1-0.9,0.1-1.1c0.3-0.3,0.8-0.6,0.9-1.2c0.1-0.4,0.4-0.5,0.7-1.1
			c0.3-0.2,0.6-0.3,0.9-0.4c0.5-0.2,1.9-1,2.3-0.8c0.6,0.6,0.6,1.7,0,2.3c0,0,0,0,0,0c-0.2,0.2-0.5,0.4-0.7,0.4
			c-0.2,0.3-0.5,0.5-0.8,0.6c-0.3,0.1-0.7,1-0.7,1c-0.2,0.3-0.3,0.7-0.3,1.1c0,0.2,0,0.5,0,0.7c0.1,0.4,0.4,0.8,0.7,1
			c0.4,0.2,1,0.1,1.3-0.3c0.3-0.3,0.7-0.5,1.1-0.5c0.6,0,1.4,0,1.4-0.7s-0.2-1.2,0.3-1.8v-1.2c0.2-0.2,0.4-0.3,0.4-0.7
			c0-0.4-0.3-0.8-0.7-0.9c-0.1,0-0.5-0.5-0.5-0.5c-0.1-0.2-0.1-0.4-0.1-0.6c0,0,0-0.4,1-0.3c0.5,0,1,0.5,1.1,1c0.1,0.3,0.1,0.7,0,1
			C38.6,30.6,38.6,30.6,38.7,30.9z M40.2,51.9c-0.2,0-0.4-0.6-0.4-0.6c0-0.1,0-0.1,0.1-0.2l0,0c0,0,0.1-0.6,0.4-0.5
			c0.2,0,0.4,0.3,0.4,0.5c0,0,0,0.1,0,0.1C40.6,51.5,40.5,51.9,40.2,51.9z M41.3,57.9c-0.1,0.3-0.2,0.7-0.5,0.7s-0.4-0.6-0.4-0.6
			c0-0.1,0-0.1,0.1-0.2l0,0c0,0,0.1-0.6,0.4-0.5c0.2,0,0.4,0.2,0.4,0.5C41.4,57.8,41.4,57.8,41.3,57.9
			C41.4,57.9,41.3,57.9,41.3,57.9z M41.8,55.9c-0.5,0.3-1.1-0.6-1.1-0.6l0,0c0,0-0.2-0.3,0-0.4c0.2-0.2,0.5-0.2,0.7,0
			C41.6,55.2,42.3,55.7,41.8,55.9L41.8,55.9z M41.9,44.2c-0.3,0.1-0.2-0.3-0.4-0.4l-0.1-0.1c0,0,0-0.5,0.3-0.6
			c0.3-0.1,0.7,0,0.6,0.3C42.3,43.8,42.2,44.2,41.9,44.2L41.9,44.2z M42.8,35.5c0,0.2-0.2,0.5-0.4,0.6c0,0.4-0.1,0.7-0.2,1.1
			c0,0.2,0,0.3,0.1,0.4c0.3,0.4,0.3,0.9,0.2,1.4c-0.2,0.4-0.3,0.1-0.3,0.8c-0.1,0.7-0.1,1.3,0.1,2c0.1,0.2,0.2,0.7,0,0.8
			c-0.2,0.1-0.5,0-0.6-0.2c-0.2-0.2-0.3-0.1-0.3-0.7c0-0.6,0-1.6,0-1.6s0.1-0.4-0.1-0.6c-0.2-0.2-0.2-0.2-0.2-0.5v-1
			c0-0.3,0-0.6,0.2-0.9c0.2-0.3,0.3-0.6,0.5-0.9c0.1-0.3,0.4-0.4,0.4-0.6c0-0.2-0.1-0.5-0.2-0.6c-0.1-0.1-0.2-0.2-0.3-0.4v-0.1
			c0-0.2,0.1-0.5,0.2-0.7c0.1-0.2,0.1-0.4,0.3-0.4c0,0,0.2,0,0.4,0.4s0.3,0.4,0.4,0.8C43.1,35.5,42.9,34.4,42.8,35.5L42.8,35.5z
			 M43,31.4c-0.2,0.1,0-0.2-0.4-0.2c-0.4,0,0.1-0.6-0.2-0.7c-0.4-0.1-0.5-0.1-0.5-0.2v-0.1c0-0.3,0.3-0.6,0.6-0.7
			c0.6-0.1,0.7,1.4,0.7,1.4C43.2,31.1,43.1,31.3,43,31.4L43,31.4z M43.8,23.6c0,0.2-0.3,0.3-0.3,0.7c0,0.3,0,0.3,0.2,0.5
			c0.2,0.3,0.1,0.6-0.1,0.8c-0.3,0.2-0.6,0.7-0.6,0.8s-0.1,0.5-0.2,0.5c-0.2,0-0.4-0.2-0.4-0.5c0-0.2,0.3-0.3,0.3-0.8
			c0-0.4-0.1-1.2,0.1-1.3c0.3-0.2,0.5-0.5,0.5-0.8c0-0.4,0.1-0.4,0.2-0.5c0.1-0.1,0.1-0.3-0.1-0.3c-0.2,0-0.6-0.1-0.6-0.4v-1
			c0,0-0.1-0.8,0.4-0.7c0,0,0.2,0.1,0.2,0.4c0,0.3-0.1,0.3,0.2,0.5c0.2,0.2,0.1,0.4,0.2,0.5c0.1,0.1,0.5,0.5,0.5,0.8
			C44.1,23.3,43.8,23.4,43.8,23.6L43.8,23.6z M44.5,9.6c-0.3,0.1-0.6,0.2-0.7,0.5c-0.1,0.3-0.2,0.6-0.6,0.7c-0.3,0-0.4-0.3-0.3-0.5
			s0.4-0.4,0.3-0.9s0-0.6-0.3-0.7c-0.3-0.1-0.3-0.2-0.3-0.3c0-0.1,0-0.1,0-0.1s0.1-0.4,0.5-0.3c0.4,0.1,0.7,0.3,1,0.5
			C44.9,8.7,45,8.6,45,8.9C45,9.3,44.8,9.5,44.5,9.6L44.5,9.6z M57.9,53.2c-0.4,0-0.4,0-0.4,0.2s-1.2,0.2-1.4,0.3
			c-0.3,0-0.5,0-0.8,0c-0.1-0.1-0.2-0.2-0.3-0.3c-0.1-0.1-0.6,0-0.5,0.2s-0.3,0.4-0.3,0.8c0,0.4,0,1.9,0,2.1s-0.3,0.3-0.3,0.5
			c0,0.3-0.1,0.5-0.2,0.7c0,0.3-0.1,0.7-0.1,1c0,0,0,0.3-0.2,0.3s-0.5-0.5-0.8-0.5c-0.3,0-1.3-0.9-1.5-1.1c0,0-0.1-1,0.1-1.1
			c0.2-0.2,0.4-0.4,0.6-0.7c0.1-0.1,0.2-1,0.3-1s0.6,0.1,0.5-0.1s0-0.2-0.2-0.3c-0.2-0.1-0.4-0.6-0.6-0.8c-0.2-0.1-0.3-0.1-0.5-0.1
			c-0.4,0.1-0.7,0.2-1.1,0.3c-0.2,0.1-1.3,0.4-1.4,0.2c0-0.2-0.2-0.6-0.4-0.6c-0.2,0.1-0.3,0.3-0.6,0.3c-0.3,0-0.5-0.3-0.5-0.6
			c0,0,0,0,0,0l0,0c0-0.4,0-0.7,0.2-1c0.2-0.3,0.2-1.2,0.4-1.3c0.3-0.3,0.6-0.5,1-0.6c0.5-0.1,0.7-0.9,0.8-1.1
			c0.4-0.4,0.7-0.9,0.9-1.4c0,0,0.3-1.1,0.4-1.2c0.1-0.4,0.9-0.9,1.1-1.1c0.1-0.1,0.2-0.2,0.3-0.3c0.5-0.4,0.9-0.9,1.2-1.4v0.1
			c0-0.3,0.3-0.5,0.6-0.5c0.2,0,0.4,0,0.6,0.1c0.2,0,0.3,0,0.5,0.1c0.2,0.1,0,0.7-0.4,0.9c-0.1,0.1,0,0.7,0.2,0.8
			c0.2,0.2,0.4,0.3,0.6,0.4c0.2,0,0.6,0,0.7,0.4c0,0.4-0.1,0.3-0.1,0.5c0,0.1,0.1,0.3,0.2,0.3c0.1,0.1,0.1,0.8,0.1,0.8
			s-0.1,0.5-0.3,0.7c-0.2,0.2-0.2,0.3-0.3,0.5c-0.1,0.2-0.2,0.5-0.2,0.7c-0.1,0.4,0.1,1-0.1,1.1c-0.2,0.1-0.2,0.6-0.2,0.7
			c0,0.1-0.1,0.3,0.2,0.3s0.4-0.1,0.4-0.1c0.1-0.1,0.3-0.1,0.5,0c0.1,0.1,0.2,0.2,0.2,0.4c0,0.2-0.1,0.3,0.2,0.3s0-0.4,0.1-0.5
			c0.1,0,0.1-0.2,0.3-0.2s1-0.1,1,0.2S58.3,53.2,57.9,53.2z M59.8,37.4c-0.1,0.3-0.3,0.3-0.5,0.3c-0.2,0-1.3,0.1-1.3,0.4
			c0,0.3-0.3,0.5-0.5,0.5c-0.3,0-0.3-0.2-0.5-0.2c-0.2,0-0.1,0.2-0.5,0.2c-0.4,0.1-0.8,0.2-1.2,0.2h-2.7c-0.4-0.1-0.8-0.2-1.1-0.2
			c-0.4,0-0.8-0.1-1.2-0.2c-0.2,0-0.5,0-0.7,0.1c-0.4,0.1-0.4-0.5-0.4-0.5s-0.1-0.3,0.4-0.4c0.2,0,0.5-1.1,0.7-1
			c0.3,0.1,1-0.8,1-0.9c0.3-0.4,0.6-0.7,1-1c0.1-0.1,0.5-0.9,0.5-1c0.1-0.1,0.3-0.7,0.3-0.7c0-0.1,0.1-0.2,0.2-0.2
			c0.3,0,0.5,0,0.5-0.2s-0.2-1.5,0.1-1.4c0.3,0,0.6,0,0.6-0.1c0-0.1-0.1-0.7,0.3-0.8c0.3-0.1,0.8-0.1,0.8-0.6c0-0.5-0.1-0.9-0.1-1.1
			c0-0.2,0.1-0.6-0.3-0.6c-0.5,0.1-1,0.2-1.5,0.3c-0.2,0-0.7,0.1-0.8,0.4c0,0.2,0,0.4,0,0.6c0,0,0.2,0.5-0.2,0.7s0,1,0.1,1.2
			c-0.2,0.2-0.4,0.4-0.5,0.6c0,0.3-0.6,0.7-0.6,0.7l0,0c0,0-0.3-0.1-0.4-0.7c0-0.6,0-0.5-0.2-0.7c-0.2-0.2-0.3-0.4-0.4-0.7
			c-0.1-0.2-0.2-0.5-0.2-0.8c0-0.3,0.1-0.5,0.2-0.7c0.1-0.2-0.1-0.8,0.1-1.1c0.3-0.5,0.8-0.9,1.4-1.1c0.6,0,0.4-0.2,0.8-0.2
			c0.4,0,0.7-0.1,1-0.3c0.2-0.2,0.5-0.3,0.8-0.3c0.6,0,1.1-0.2,1.4-0.2c0.2,0,0.3,0,0.5-0.1c0.1,0,0.5,0,0.6,0.3
			c0,0.3,0.1,0.5,0.1,0.8c0.1,0.5,0.4,0.6,0.4,0.8c0,0.2,0.1,0.6-0.1,0.7c0,0.3,0,0.6-0.1,0.8c-0.1,0.1-0.1,0.3-0.2,0.4
			c0,0.4,0.1,0.8-0.3,0.9c-0.4,0.1-0.6,0.2-0.6,0.7s0,0.7-0.2,0.8c-0.2,0.1-0.4,0.9-0.7,1.2c-0.3,0.3-0.7,1.1-1,1.4
			c-0.3,0.2-0.3,0.5-0.5,0.6c-0.1,0.1-0.3,0.2-0.4,0.3c0.1,0,0.2,0,0.2,0c0.1,0,0,0.2,0,0.3c0,0.2-0.5,0-0.5,0.2
			c-0.1,0.2-0.3,0.5,0,0.7c0.1,0.1,0.3-0.1,0.3,0.2c0,0.3,0.2,0.5,0.5,0.5c0.2,0,0.4-0.5,0.3-0.6s1.1-0.1,1.1-0.2
			c0.5,0.1,1.7-0.2,1.7-0.1c0.1,0.1,0.2,0.1,0.4,0.1c0.1,0,0.1-0.1,0.2-0.1c0.1-0.1,0.7-0.3,0.8-0.2s0.4,0,0.5,0.3s0,0.5,0.2,0.7
			C59.6,36.9,59.9,37.1,59.8,37.4z"/>
		<path class="st0" d="M54.4,27.4L54.4,27.4L54.4,27.4z"/>
		<path class="st0" d="M54.4,33.3c0.1,0.1,0.1,0.1,0.2,0.2c0.1,0.1,0.1-0.2,0.1-0.3c0-0.1-0.1-0.1-0.2-0.1
			C54.4,33.1,54.4,33.3,54.4,33.3L54.4,33.3z"/>
		<path class="st0" d="M54.4,27.3c0,0.1,0,0.1,0,0.2c0.1-0.1,0.1-0.1,0.1-0.2C54.5,27.2,54.4,27.3,54.4,27.3z"/>
		<path class="st0" d="M52.2,27.9C52,28.1,52,28,52,28.1l0,0h0.2c0.2-0.1,0.2-0.1,0.2-0.2S52.2,27.9,52.2,27.9z"/>
		<path class="st0" d="M34.4,50c-0.7-0.1-1,0.7-1,0.7l0,0c0,0.1-0.1,0.2-0.2,0.3c-0.2,0.2-1.6,0.2-1.8,0.2s-0.6,0.1-0.7,0.8
			c0.1,0.4,0.2,0.7,0.4,1c0.3,0.4,0.7,0.6,1.1,0.7c0.3,0,0.5,0,0.7-0.1c0.2-0.1,0.4-0.2,0.6-0.3c0.3-0.1,0.5-0.2,0.7-0.4
			c0.3-0.5,0.2-1.1,0.4-1.2c0.2-0.1,0.3-0.3,0.4-0.5c0.1-0.3,0.1-0.6,0-0.9C34.8,50.1,34.6,50,34.4,50z"/>
	</g>
</g>
</svg>
