<svg id="TIB_Logo" data-name="TIB Logo" xmlns="http://www.w3.org/2000/svg" width="324.11" height="53" viewBox="0 0 324.11 53"><defs><style>.cls-1{fill:#8499a3;}</style></defs><path class="cls-1" d="M36.34,53H33.87a2.65,2.65,0,0,1-2.08-.94,2.86,2.86,0,0,1-.74-1.93V2.8A2.81,2.81,0,0,1,31.8.94,2.58,2.58,0,0,1,33.87,0h2.47a2.56,2.56,0,0,1,2.07,1A2.84,2.84,0,0,1,39.1,2.8V50.1A2.92,2.92,0,0,1,38.41,52,2.61,2.61,0,0,1,36.34,53Z"/><path class="cls-1" d="M15.14,53H12.7a2.63,2.63,0,0,1-2.08-.94,2.86,2.86,0,0,1-.74-1.93V8H2.8A2.84,2.84,0,0,1,.94,7.28a2.62,2.62,0,0,1-.94-2V2.8A2.59,2.59,0,0,1,1,.69,2.92,2.92,0,0,1,2.8,0H24.94a3,3,0,0,1,1.89.69,2.59,2.59,0,0,1,1,2.11V5.26a2.64,2.64,0,0,1-.93,2.07,2.91,2.91,0,0,1-2,.7h-7V50.1A2.92,2.92,0,0,1,17.24,52,2.58,2.58,0,0,1,15.14,53Z"/><path class="cls-1" d="M58.54,53H48.16a2.65,2.65,0,0,1-2.08-.94,2.9,2.9,0,0,1-.74-1.93V2.8a2.59,2.59,0,0,1,1-2.11A2.89,2.89,0,0,1,48.13,0h8.15a44.14,44.14,0,0,1,5.39.29,11.3,11.3,0,0,1,4.15,1.3,9.94,9.94,0,0,1,4.31,4.87,17,17,0,0,1,1.39,6.81c0,3.94-.41,6.73-1.26,8.52a8.93,8.93,0,0,1-1.84,2.58l-.41.36a8,8,0,0,1,3.13,3.52,19,19,0,0,1,1.46,8.06A47.46,47.46,0,0,1,72.23,42a13.9,13.9,0,0,1-1.88,5.44,10.86,10.86,0,0,1-4.33,4A16,16,0,0,1,58.54,53ZM53.4,45h4.74A11.21,11.21,0,0,0,61,44.63a3.84,3.84,0,0,0,1.83-1.15A6.07,6.07,0,0,0,64.07,41a20.45,20.45,0,0,0,.47-4.81A11.23,11.23,0,0,0,64,32.41a4.13,4.13,0,0,0-1.33-1.93,5.87,5.87,0,0,0-2.37-1,20.84,20.84,0,0,0-3.7-.3H53.4Zm0-23.75h3.38a26.92,26.92,0,0,0,3-.17,4.09,4.09,0,0,0,2-.78,4.39,4.39,0,0,0,1.3-2.07,15.13,15.13,0,0,0,.54-4.64,7.55,7.55,0,0,0-.53-3.19,3.65,3.65,0,0,0-1.32-1.54,5.2,5.2,0,0,0-2.2-.69c-1-.09-2.14-.13-3.34-.13H53.4Z"/><path class="cls-1" d="M91.78,11.75a.36.36,0,0,1-.12.28.44.44,0,0,1-.29.11H87.15a.31.31,0,0,1-.27-.13.33.33,0,0,1-.11-.28V.58a.39.39,0,0,1,.11-.27.34.34,0,0,1,.27-.13h.58A.33.33,0,0,1,88,.31a.45.45,0,0,1,.1.27V10.79h3.25a.44.44,0,0,1,.29.11.33.33,0,0,1,.12.28Z"/><path class="cls-1" d="M99.07,11.75a.35.35,0,0,1-.14.28.39.39,0,0,1-.27.11H94.2a.29.29,0,0,1-.27-.13.33.33,0,0,1-.11-.28V.58a.39.39,0,0,1,.11-.27A.34.34,0,0,1,94.2.18h4.34a.43.43,0,0,1,.28.11A.38.38,0,0,1,99,.58v.57a.37.37,0,0,1-.13.28.43.43,0,0,1-.28.11h-3.4V5.26H98a.48.48,0,0,1,.28.1.36.36,0,0,1,.12.29v.58a.31.31,0,0,1-.12.27.39.39,0,0,1-.28.12h-2.9v4.15H98.6a.42.42,0,0,1,.28.1.32.32,0,0,1,.13.28Z"/><path class="cls-1" d="M102.06,12.18a.37.37,0,0,1-.28-.13.43.43,0,0,1-.11-.28V.58a.39.39,0,0,1,.11-.27.37.37,0,0,1,.28-.13h.58a.32.32,0,0,1,.28.13.45.45,0,0,1,.1.27V11.73a.39.39,0,0,1-.1.28.32.32,0,0,1-.28.13Z"/><path class="cls-1" d="M108.68.18a10.19,10.19,0,0,1,1.24.07,2.78,2.78,0,0,1,.89.27,2.16,2.16,0,0,1,.94,1A4.1,4.1,0,0,1,112,3.05a4.89,4.89,0,0,1-.29,1.89,2,2,0,0,1-.38.53,2.59,2.59,0,0,1-.47.32A1.71,1.71,0,0,1,112,6.7a4.16,4.16,0,0,1,.31,1.78,9.74,9.74,0,0,1-.08,1.32,3.07,3.07,0,0,1-.4,1.17,2.22,2.22,0,0,1-.92.85,3.4,3.4,0,0,1-1.63.32h-2.45a.36.36,0,0,1-.29-.13.39.39,0,0,1-.11-.28V.58a.38.38,0,0,1,.13-.29.4.4,0,0,1,.27-.11Zm-1,5h1.07a4.53,4.53,0,0,0,.74,0,1.16,1.16,0,0,0,.6-.23,1.26,1.26,0,0,0,.4-.61,3.61,3.61,0,0,0,.14-1.18,1.89,1.89,0,0,0-.15-.87,1,1,0,0,0-.42-.47,1.41,1.41,0,0,0-.63-.2h-1.75Zm0,1.38v4.23h1.39a2.7,2.7,0,0,0,.75-.09,1.1,1.1,0,0,0,.56-.35,1.68,1.68,0,0,0,.35-.69,4.84,4.84,0,0,0,.12-1.2,2.92,2.92,0,0,0-.14-1,1.15,1.15,0,0,0-.4-.57,1.65,1.65,0,0,0-.69-.28,4.87,4.87,0,0,0-.93-.08Z"/><path class="cls-1" d="M116.07,2.28l.27,3.57v5.88a.43.43,0,0,1-.1.28.33.33,0,0,1-.29.13h-.58a.35.35,0,0,1-.27-.11.38.38,0,0,1-.11-.3V.58A.33.33,0,0,1,115.1.3a.36.36,0,0,1,.27-.12h1a.26.26,0,0,1,.26.13,1.34,1.34,0,0,1,.13.27L120,10l-.26-3.4v-6a.48.48,0,0,1,.1-.28.36.36,0,0,1,.29-.13h.58A.39.39,0,0,1,121,.3a.44.44,0,0,1,.11.29V11.75a.38.38,0,0,1-.39.39h-1a.29.29,0,0,1-.27-.13.68.68,0,0,1-.12-.26Z"/><path class="cls-1" d="M124.8,12.18a.39.39,0,0,1-.29-.13.43.43,0,0,1-.11-.28V.58a.39.39,0,0,1,.11-.27.39.39,0,0,1,.29-.13h.57a.33.33,0,0,1,.28.13.4.4,0,0,1,.11.27V11.73a.39.39,0,0,1-.11.28.31.31,0,0,1-.28.13Z"/><path class="cls-1" d="M128.6,12.18a.32.32,0,0,1-.3-.15.54.54,0,0,1-.09-.27V10.9a1,1,0,0,1,.09-.33,3.62,3.62,0,0,1,.15-.36l3.85-8.67h-3.57a.44.44,0,0,1-.29-.11.33.33,0,0,1-.12-.28V.58a.34.34,0,0,1,.12-.29.44.44,0,0,1,.29-.11h4.63a.36.36,0,0,1,.28.13.45.45,0,0,1,.12.27v.89a.78.78,0,0,1,0,.21l-.07.16-4,9h3.95a.39.39,0,0,1,.27.11.32.32,0,0,1,.13.28v.58a.35.35,0,0,1-.13.28.39.39,0,0,1-.27.11Z"/><path class="cls-1" d="M136.47,7.33a.38.38,0,0,1-.27-.1.34.34,0,0,1-.13-.28V6.37a.37.37,0,0,1,.13-.28.39.39,0,0,1,.27-.11H140a.39.39,0,0,1,.27.11.35.35,0,0,1,.14.28V7a.35.35,0,0,1-.14.28.34.34,0,0,1-.27.1Z"/><path class="cls-1" d="M144,12.18a.37.37,0,0,1-.28-.13.43.43,0,0,1-.11-.28V.58a.39.39,0,0,1,.11-.27A.37.37,0,0,1,144,.18h.57a.36.36,0,0,1,.29.13.46.46,0,0,1,.11.27V11.73a.39.39,0,0,1-.11.28.33.33,0,0,1-.29.13Z"/><path class="cls-1" d="M149.36,2.28l.27,3.57v5.88a.39.39,0,0,1-.11.28.33.33,0,0,1-.29.13h-.57a.36.36,0,0,1-.28-.11.46.46,0,0,1-.11-.3V.58a.39.39,0,0,1,.11-.28.36.36,0,0,1,.28-.12h1a.29.29,0,0,1,.27.13,1.31,1.31,0,0,1,.12.27l3.2,9.46L153,6.64v-6a.37.37,0,0,1,.1-.28.34.34,0,0,1,.28-.13H154a.36.36,0,0,1,.28.12.36.36,0,0,1,.11.29V11.75a.38.38,0,0,1-.11.28.37.37,0,0,1-.28.15h-1a.29.29,0,0,1-.27-.13.66.66,0,0,1-.12-.27Z"/><path class="cls-1" d="M162.13,6.25a.37.37,0,0,1-.13.28.43.43,0,0,1-.28.11h-2.93v5.09a.45.45,0,0,1-.09.28.33.33,0,0,1-.29.13h-.58a.32.32,0,0,1-.28-.13.39.39,0,0,1-.11-.28V.58a.39.39,0,0,1,.11-.27.37.37,0,0,1,.28-.13h4.33a.44.44,0,0,1,.29.11.34.34,0,0,1,.12.29v.57a.36.36,0,0,1-.12.28.44.44,0,0,1-.29.11h-3.37V5.26h2.9a.48.48,0,0,1,.28.1.33.33,0,0,1,.13.29Z"/><path class="cls-1" d="M167.43,12.31a3.2,3.2,0,0,1-1.52-.32,2.33,2.33,0,0,1-.89-.79,2.85,2.85,0,0,1-.4-1,6.64,6.64,0,0,1-.12-.88c-.05-1.12-.08-2.19-.08-3.21s0-2.08.08-3.2a6.64,6.64,0,0,1,.12-.88,2.75,2.75,0,0,1,.4-.95,2.35,2.35,0,0,1,.86-.77,3.94,3.94,0,0,1,3.05,0,2.28,2.28,0,0,1,.89.77,2.77,2.77,0,0,1,.4,1,6.42,6.42,0,0,1,.12.88c0,1.1.08,2.17.08,3.19s0,2.08-.08,3.21a6.42,6.42,0,0,1-.12.88,2.9,2.9,0,0,1-.4,1A2.3,2.3,0,0,1,169,12,3.12,3.12,0,0,1,167.43,12.31Zm0-10.94a1.43,1.43,0,0,0-.78.19,1.22,1.22,0,0,0-.45.48,2.34,2.34,0,0,0-.23.69c0,.25-.07.51-.09.77,0,.93-.07,1.81-.07,2.65s0,1.73.07,2.67a7.11,7.11,0,0,0,.08.78,1.94,1.94,0,0,0,.23.69,1.2,1.2,0,0,0,.46.49,1.72,1.72,0,0,0,1.56,0,1.17,1.17,0,0,0,.47-.49,1.88,1.88,0,0,0,.23-.69,5.14,5.14,0,0,0,.07-.78c0-.94.06-1.83.07-2.67s0-1.72-.07-2.65a4.9,4.9,0,0,0-.08-.77,2.34,2.34,0,0,0-.23-.69,1.25,1.25,0,0,0-.46-.48A1.43,1.43,0,0,0,167.43,1.37Z"/><path class="cls-1" d="M179.05,11.75a.36.36,0,0,1,0,.25.28.28,0,0,1-.29.14h-.69a.42.42,0,0,1-.27-.07.68.68,0,0,1-.18-.32L176,6.52h-1.51v5.21a.43.43,0,0,1-.1.27.33.33,0,0,1-.29.13h-.58a.34.34,0,0,1-.27-.13.39.39,0,0,1-.11-.27V.58a.35.35,0,0,1,.12-.29.5.5,0,0,1,.26-.11h2.08a7.32,7.32,0,0,1,1.68.17,1.82,1.82,0,0,1,1,.76,3.18,3.18,0,0,1,.41,1,6,6,0,0,1,.11,1.34,4.14,4.14,0,0,1-.32,1.84,2.14,2.14,0,0,1-1.19,1Zm-4.56-6.57h1.11a5.42,5.42,0,0,0,.81,0,1.11,1.11,0,0,0,.55-.22,1.67,1.67,0,0,0,.28-.25,1.64,1.64,0,0,0,.16-.29,1.3,1.3,0,0,0,.09-.39,2.72,2.72,0,0,0,0-.57,3,3,0,0,0-.15-1.1,1.31,1.31,0,0,0-.42-.57,1.13,1.13,0,0,0-.27-.13,1.75,1.75,0,0,0-.4-.05h-1.8Z"/><path class="cls-1" d="M182.85,2.11h-.06L183,7.33v4.39a.43.43,0,0,1-.11.28.31.31,0,0,1-.28.13h-.56a.39.39,0,0,1-.3-.13.43.43,0,0,1-.11-.28V.58a.39.39,0,0,1,.11-.27.39.39,0,0,1,.3-.13h1.06a.3.3,0,0,1,.27.11.5.5,0,0,1,.12.29L184.81,6l.32,1.86h.06L185.52,6l1.3-5.39c.05-.25.19-.37.39-.37h1.08a.32.32,0,0,1,.29.13.38.38,0,0,1,.11.26V11.73a.39.39,0,0,1-.11.28.32.32,0,0,1-.29.13h-.57a.31.31,0,0,1-.27-.13.4.4,0,0,1-.12-.28V7.33l.2-5.23h-.07l-1.62,7.39a.79.79,0,0,1-.12.3.31.31,0,0,1-.27.1h-.57a.27.27,0,0,1-.25-.11.61.61,0,0,1-.14-.29Z"/><path class="cls-1" d="M194.56.18c.2,0,.33.13.39.4l2.23,11.17a.29.29,0,0,1-.12.4.28.28,0,0,1-.22,0h-.65c-.23,0-.37-.13-.41-.4l-.42-2H193l-.41,2c0,.27-.18.4-.4.4h-.69a.3.3,0,0,1-.33-.26.33.33,0,0,1,0-.14L193.45.61a.57.57,0,0,1,.11-.28.32.32,0,0,1,.27-.11Zm.6,8.23-.7-4.2-.23-2.29h-.07l-.24,2.29-.69,4.2Z"/><path class="cls-1" d="M204.15,1.15a.36.36,0,0,1-.12.28.44.44,0,0,1-.29.11h-1.91V11.73a.39.39,0,0,1-.1.28.33.33,0,0,1-.29.13h-.58a.3.3,0,0,1-.27-.13.39.39,0,0,1-.11-.28V1.54h-1.95a.39.39,0,0,1-.27-.11.33.33,0,0,1-.12-.28V.58a.34.34,0,0,1,.12-.29.39.39,0,0,1,.27-.11h5.23a.44.44,0,0,1,.29.11.34.34,0,0,1,.12.29Z"/><path class="cls-1" d="M206.91,12.18a.37.37,0,0,1-.28-.13.43.43,0,0,1-.11-.28V.58a.39.39,0,0,1,.11-.27.37.37,0,0,1,.28-.13h.57a.37.37,0,0,1,.3.13.44.44,0,0,1,.09.27V11.73a.39.39,0,0,1-.09.28.34.34,0,0,1-.3.13Z"/><path class="cls-1" d="M213.81,12.31a3.2,3.2,0,0,1-1.52-.32,2.25,2.25,0,0,1-.86-.79,2.66,2.66,0,0,1-.4-1,4.43,4.43,0,0,1-.12-.88q-.09-1.68-.09-3.21c0-1,0-2.08.09-3.2a4.43,4.43,0,0,1,.12-.88,2.73,2.73,0,0,1,.4-1,2.25,2.25,0,0,1,.86-.76,3.82,3.82,0,0,1,3,0,2.39,2.39,0,0,1,.89.78,2.75,2.75,0,0,1,.39,1,6.42,6.42,0,0,1,.12.88c.06,1.1.09,2.17.09,3.19s0,2.08-.09,3.21a6.42,6.42,0,0,1-.12.88,2.88,2.88,0,0,1-.39,1,2.44,2.44,0,0,1-.88.78A3,3,0,0,1,213.81,12.31Zm0-10.94a1.43,1.43,0,0,0-.78.19,1.16,1.16,0,0,0-.45.48,1.88,1.88,0,0,0-.23.69,3.94,3.94,0,0,0-.08.77c-.06.93-.09,1.81-.07,2.65s0,1.73.07,2.67a5.14,5.14,0,0,0,.07.78,2.14,2.14,0,0,0,.22.69,1.38,1.38,0,0,0,.47.49,1.43,1.43,0,0,0,.78.19,1.5,1.5,0,0,0,.78-.19,1.3,1.3,0,0,0,.47-.49,2.16,2.16,0,0,0,.23-.69c0-.27.06-.52.07-.78,0-.94.06-1.83.07-2.67s0-1.72-.07-2.65a6.48,6.48,0,0,0-.08-.77,2.34,2.34,0,0,0-.23-.69,1.32,1.32,0,0,0-.46-.48A1.5,1.5,0,0,0,213.81,1.37Z"/><path class="cls-1" d="M220.59,2.28l.28,3.57v5.88a.45.45,0,0,1-.1.28.33.33,0,0,1-.29.13h-.58a.37.37,0,0,1-.28-.11.42.42,0,0,1-.1-.3V.58a.4.4,0,0,1,.1-.28.38.38,0,0,1,.28-.12h1a.26.26,0,0,1,.26.13,2.24,2.24,0,0,1,.13.27L224.52,10l-.28-3.4v-6a.48.48,0,0,1,.1-.28.36.36,0,0,1,.29-.13h.58a.36.36,0,0,1,.28.12.44.44,0,0,1,.11.29V11.75a.43.43,0,0,1-.11.28.37.37,0,0,1-.28.15h-1a.3.3,0,0,1-.27-.13,1.11,1.11,0,0,1-.12-.27Z"/><path class="cls-1" d="M234,8.84a3.68,3.68,0,0,1-.79,2.6,2.88,2.88,0,0,1-2.24.87,3.14,3.14,0,0,1-1.47-.31,2.56,2.56,0,0,1-.93-.8,3.39,3.39,0,0,1-.47-1.17A6.49,6.49,0,0,1,228,8.64V8.48a.35.35,0,0,1,.1-.28.34.34,0,0,1,.28-.11h.6a.32.32,0,0,1,.27.11.35.35,0,0,1,.1.28v.18a3.87,3.87,0,0,0,.14,1.12,1.83,1.83,0,0,0,.36.69,1.34,1.34,0,0,0,.53.37,1.92,1.92,0,0,0,.63.09,1.67,1.67,0,0,0,1.21-.44,2.13,2.13,0,0,0,.47-1.57,1.78,1.78,0,0,0-.33-1.09,4.13,4.13,0,0,0-.83-.84c-.34-.26-.7-.52-1.09-.78a7.21,7.21,0,0,1-1.08-.83,4.07,4.07,0,0,1-.84-1.09,3.17,3.17,0,0,1-.33-1.48,3.13,3.13,0,0,1,.18-1,2.49,2.49,0,0,1,.53-.9,2.44,2.44,0,0,1,.87-.62,3.47,3.47,0,0,1,2.43,0,2.6,2.6,0,0,1,.86.61,2.79,2.79,0,0,1,.53.87,2.85,2.85,0,0,1,.18,1v.12a.38.38,0,0,1-.37.39h-.58a.32.32,0,0,1-.28-.13.36.36,0,0,1-.11-.26h0a1.45,1.45,0,0,0-.38-1,1.31,1.31,0,0,0-1-.4,1.48,1.48,0,0,0-.69.11,1.25,1.25,0,0,0-.7.79,1.93,1.93,0,0,0-.07.53,1.83,1.83,0,0,0,.3,1,4.94,4.94,0,0,0,.87.84c.34.28.7.54,1.08.8a8.17,8.17,0,0,1,1.09.85,4.27,4.27,0,0,1,.84,1.06A2.86,2.86,0,0,1,234,8.84Z"/><path class="cls-1" d="M236,12.18a.32.32,0,0,1-.3-.15.54.54,0,0,1-.09-.27V10.9a1,1,0,0,1,.09-.33,2.75,2.75,0,0,1,.15-.36l3.85-8.67h-3.58a.43.43,0,0,1-.28-.11.37.37,0,0,1-.13-.28V.58a.31.31,0,0,1,.13-.29.43.43,0,0,1,.28-.11h4.64a.37.37,0,0,1,.28.13.39.39,0,0,1,.11.27v.89a.52.52,0,0,1,0,.21l-.06.16-4,9h4a.43.43,0,0,1,.28.11.31.31,0,0,1,.13.28v.58a.37.37,0,0,1-.13.28.43.43,0,0,1-.28.11Z"/><path class="cls-1" d="M248.88,11.75a.33.33,0,0,1-.12.28.43.43,0,0,1-.28.11H244a.34.34,0,0,1-.28-.13.39.39,0,0,1-.11-.28V.58a.44.44,0,0,1,.11-.27A.37.37,0,0,1,244,.18h4.34a.43.43,0,0,1,.28.11.36.36,0,0,1,.13.29v.57a.37.37,0,0,1-.13.28.43.43,0,0,1-.28.11H245V5.26h2.89a.45.45,0,0,1,.28.1.37.37,0,0,1,.13.29v.58a.32.32,0,0,1-.13.27.36.36,0,0,1-.28.12H245v4.15h3.46a.42.42,0,0,1,.28.1.34.34,0,0,1,.13.28Z"/><path class="cls-1" d="M252.37,2.28l.28,3.57v5.88a.46.46,0,0,1-.11.28.32.32,0,0,1-.29.13h-.57a.39.39,0,0,1-.28-.11.48.48,0,0,1-.11-.3V.58A.41.41,0,0,1,251.4.3a.36.36,0,0,1,.28-.12h1a.28.28,0,0,1,.26.13,1.31,1.31,0,0,1,.12.27L256.27,10,256,6.64v-6a.47.47,0,0,1,.09-.28.36.36,0,0,1,.29-.13H257a.36.36,0,0,1,.28.12.44.44,0,0,1,.11.29V11.75a.43.43,0,0,1-.11.28.39.39,0,0,1-.28.11h-1a.29.29,0,0,1-.27-.13,1.23,1.23,0,0,1-.12-.26Z"/><path class="cls-1" d="M265.54,1.15a.37.37,0,0,1-.13.28.43.43,0,0,1-.28.11h-1.92V11.73a.39.39,0,0,1-.1.28.32.32,0,0,1-.29.13h-.57A.32.32,0,0,1,262,12a.39.39,0,0,1-.11-.28V1.54h-1.95a.36.36,0,0,1-.26-.11.37.37,0,0,1-.13-.28V.58a.32.32,0,0,1,.13-.29.36.36,0,0,1,.26-.11h5.22a.43.43,0,0,1,.28.11.36.36,0,0,1,.13.29Z"/><path class="cls-1" d="M273.6,11.75a.32.32,0,0,1,0,.25.27.27,0,0,1-.28.14h-.69a.42.42,0,0,1-.27-.07.59.59,0,0,1-.17-.32l-1.61-5.23H269v5.21a.45.45,0,0,1-.1.27.32.32,0,0,1-.29.13h-.54a.37.37,0,0,1-.28-.13.38.38,0,0,1-.1-.27V.58a.35.35,0,0,1,.12-.29.5.5,0,0,1,.26-.11h2.08a7.4,7.4,0,0,1,1.69.17,1.75,1.75,0,0,1,1,.76,2.89,2.89,0,0,1,.42,1,6,6,0,0,1,.12,1.33,4,4,0,0,1-.33,1.85,2.14,2.14,0,0,1-1.19,1ZM269,5.18h1.14a5.29,5.29,0,0,0,.8,0,1.18,1.18,0,0,0,.56-.22,1.24,1.24,0,0,0,.26-.25,1.05,1.05,0,0,0,.17-.29,1.72,1.72,0,0,0,.1-.39,5.42,5.42,0,0,0,0-.57,3.44,3.44,0,0,0-.15-1.1,1.35,1.35,0,0,0-.43-.57,1.66,1.66,0,0,0-.27-.13,1.74,1.74,0,0,0-.39-.05H269Z"/><path class="cls-1" d="M277.29,8.94a4.74,4.74,0,0,0,.06.75,1.87,1.87,0,0,0,.22.64,1.32,1.32,0,0,0,.48.46,2.1,2.1,0,0,0,1.63,0,1.3,1.3,0,0,0,.47-.46,1.66,1.66,0,0,0,.22-.66,6,6,0,0,0,.06-.74V.58a.42.42,0,0,1,.09-.29.44.44,0,0,1,.29-.11h.58a.38.38,0,0,1,.39.37V9.47a6.11,6.11,0,0,1-.09.86,2.25,2.25,0,0,1-.39.93,2.42,2.42,0,0,1-.91.74,3.59,3.59,0,0,1-1.61.31,3.08,3.08,0,0,1-1.49-.31,2.28,2.28,0,0,1-.88-.72,2.37,2.37,0,0,1-.41-.88,5.18,5.18,0,0,1-.09-.78v-9A.44.44,0,0,1,276,.29a.41.41,0,0,1,.28-.11h.58a.43.43,0,0,1,.28.11.36.36,0,0,1,.11.29Z"/><path class="cls-1" d="M286,2.11h-.06l.19,5.22v4.39a.42.42,0,0,1-.1.28.33.33,0,0,1-.29.13h-.56a.36.36,0,0,1-.29-.13.35.35,0,0,1-.11-.28V.58a.39.39,0,0,1,.11-.27.36.36,0,0,1,.29-.13h1.07a.32.32,0,0,1,.27.11.69.69,0,0,1,.12.29L287.91,6l.32,1.86h.07L288.62,6l1.3-5.39c.06-.25.19-.37.4-.37h1.08a.33.33,0,0,1,.29.13.42.42,0,0,1,.1.26V11.73a.39.39,0,0,1-.1.28.33.33,0,0,1-.29.13h-.58a.34.34,0,0,1-.27-.13.36.36,0,0,1-.11-.28V7.33l.2-5.23h-.07l-1.63,7.39a.56.56,0,0,1-.12.3.29.29,0,0,1-.27.1H288a.27.27,0,0,1-.25-.11.65.65,0,0,1-.14-.29Z"/><path class="cls-1" d="M91.82,21.48a.33.33,0,0,1-.14.27.39.39,0,0,1-.27.11H89.49v10.2a.42.42,0,0,1-.1.28.32.32,0,0,1-.29.13h-.57a.36.36,0,0,1-.28-.13.43.43,0,0,1-.11-.28V21.86h-2a.36.36,0,0,1-.26-.11.37.37,0,0,1-.13-.27V20.9a.36.36,0,0,1,.13-.29.4.4,0,0,1,.26-.1h5.22a.38.38,0,0,1,.27.1.37.37,0,0,1,.14.29Z"/><path class="cls-1" d="M99.22,32.08a.37.37,0,0,1-.13.28.43.43,0,0,1-.28.11H94.35a.35.35,0,0,1-.27-.13.43.43,0,0,1-.11-.28V20.9a.36.36,0,0,1,.11-.26.3.3,0,0,1,.27-.13h4.34a.42.42,0,0,1,.28.1.33.33,0,0,1,.13.29v.58a.32.32,0,0,1-.13.27.39.39,0,0,1-.28.11H95.32v3.75h2.9a.42.42,0,0,1,.28.1.34.34,0,0,1,.1.3v.59a.33.33,0,0,1-.12.27.44.44,0,0,1-.29.11H95.3v4.15h3.46a.43.43,0,0,1,.28.11.31.31,0,0,1,.13.28Z"/><path class="cls-1" d="M107,23.59a.41.41,0,0,1-.09.28.38.38,0,0,1-.3.11h-.57a.33.33,0,0,1-.28-.11.39.39,0,0,1-.11-.28v-.23a2.4,2.4,0,0,0-.07-.6,1.81,1.81,0,0,0-.22-.54,1.21,1.21,0,0,0-.43-.38,1.36,1.36,0,0,0-.65-.14,1.61,1.61,0,0,0-.81.16,1.24,1.24,0,0,0-.46.45,1.69,1.69,0,0,0-.23.65,5,5,0,0,0-.07.76c0,.52-.07,1-.09,1.44v2.59c0,.44,0,.89.08,1.38a6.87,6.87,0,0,0,.08.78,2.18,2.18,0,0,0,.24.69,1.33,1.33,0,0,0,.47.5,1.41,1.41,0,0,0,.81.19,1.38,1.38,0,0,0,.69-.16,1.24,1.24,0,0,0,.45-.46,2.14,2.14,0,0,0,.25-.65,3.81,3.81,0,0,0,.07-.75v-.62a.48.48,0,0,1,.1-.28.44.44,0,0,1,.29-.11h.58a.38.38,0,0,1,.39.39v1.16a4.05,4.05,0,0,1-.12.85,2.68,2.68,0,0,1-.43.92,2.42,2.42,0,0,1-.9.75,3.15,3.15,0,0,1-1.48.31,2.9,2.9,0,0,1-1.48-.33,2.59,2.59,0,0,1-.85-.76,3,3,0,0,1-.39-.94,5.52,5.52,0,0,1-.12-.8c-.05-.59-.08-1.14-.1-1.68s0-1.06,0-1.6V24.94c0-.54,0-1.09.09-1.66a5.18,5.18,0,0,1,.11-.87,2.52,2.52,0,0,1,1.3-1.73,3.6,3.6,0,0,1,1.62-.31,2.56,2.56,0,0,1,1.38.3,2.45,2.45,0,0,1,.81.69,2.69,2.69,0,0,1,.39.88,3.31,3.31,0,0,1,.09.77Z"/><path class="cls-1" d="M114.41,32.47a.37.37,0,0,1-.28-.13.43.43,0,0,1-.11-.28V27h-3.13v5.1a.48.48,0,0,1-.1.28.33.33,0,0,1-.29.13h-.58a.37.37,0,0,1-.28-.13.43.43,0,0,1-.11-.28V20.9a.36.36,0,0,1,.11-.26.32.32,0,0,1,.28-.13h.58a.33.33,0,0,1,.29.13.4.4,0,0,1,.1.26v4.71H114V20.9a.36.36,0,0,1,.11-.26.32.32,0,0,1,.28-.13H115a.33.33,0,0,1,.29.13.41.41,0,0,1,.09.26V32.06a.47.47,0,0,1-.09.28.33.33,0,0,1-.29.13Z"/><path class="cls-1" d="M119.58,22.61l.27,3.57v5.88a.48.48,0,0,1-.1.28.34.34,0,0,1-.3.13h-.57a.38.38,0,0,1-.28-.12.44.44,0,0,1-.11-.29V20.9a.39.39,0,0,1,.11-.27.38.38,0,0,1,.28-.12h1a.27.27,0,0,1,.26.13,1.23,1.23,0,0,1,.12.26l3.23,9.47L123.25,27v-6a.41.41,0,0,1,.11-.28.31.31,0,0,1,.28-.13h.56a.36.36,0,0,1,.28.12.38.38,0,0,1,.12.29V32.08a.36.36,0,0,1-.12.27.36.36,0,0,1-.28.12h-1a.3.3,0,0,1-.27-.13.85.85,0,0,1-.11-.26Z"/><path class="cls-1" d="M128.3,32.47a.37.37,0,0,1-.28-.13.43.43,0,0,1-.11-.28V20.9a.36.36,0,0,1,.11-.26.34.34,0,0,1,.28-.13h.58a.32.32,0,0,1,.28.13.35.35,0,0,1,.1.26V32.06a.37.37,0,0,1-.1.28.32.32,0,0,1-.28.13Z"/><path class="cls-1" d="M138.56,32.08a.26.26,0,0,1,0,.27.27.27,0,0,1-.24.12h-.77a.35.35,0,0,1-.29-.12,2.4,2.4,0,0,1-.16-.27l-2.31-5.51L134,28v4a.39.39,0,0,1-.12.28.39.39,0,0,1-.27.11H133a.41.41,0,0,1-.4-.39V20.9a.41.41,0,0,1,.4-.39h.57a.41.41,0,0,1,.39.39v4.84l2.9-5a1.66,1.66,0,0,1,.16-.21.45.45,0,0,1,.27-.08h.89a.31.31,0,0,1,.16.06.13.13,0,0,1,.07.13.39.39,0,0,1,0,.21l-2.63,4.43Z"/><path class="cls-1" d="M146.37,29.27a3.64,3.64,0,0,0,.07.74,1.85,1.85,0,0,0,.22.65,1.22,1.22,0,0,0,.48.45,1.74,1.74,0,0,0,.81.17,1.62,1.62,0,0,0,.81-.17,1.16,1.16,0,0,0,.48-.45,1.85,1.85,0,0,0,.22-.65,6.47,6.47,0,0,0,0-.76V20.9a.37.37,0,0,1,.1-.28.36.36,0,0,1,.29-.11h.59a.43.43,0,0,1,.28.11.41.41,0,0,1,.11.28v8.89a6.4,6.4,0,0,1-.08.87,2.39,2.39,0,0,1-.41.92,2.34,2.34,0,0,1-.9.75,3.59,3.59,0,0,1-1.61.31,3.08,3.08,0,0,1-1.49-.31,2.45,2.45,0,0,1-.87-.73,2.36,2.36,0,0,1-.39-.87,4.17,4.17,0,0,1-.1-.79v-9a.37.37,0,0,1,.34-.39H146a.43.43,0,0,1,.28.11.41.41,0,0,1,.11.28Z"/><path class="cls-1" d="M154.86,22.61l.27,3.57v5.88a.42.42,0,0,1-.1.28.33.33,0,0,1-.29.13h-.58a.39.39,0,0,1-.38-.41V20.9a.39.39,0,0,1,.11-.27.36.36,0,0,1,.27-.12h1a.26.26,0,0,1,.26.13.91.91,0,0,1,.13.26l3.22,9.47L158.54,27v-6a.4.4,0,0,1,.1-.28.32.32,0,0,1,.28-.13h.56a.36.36,0,0,1,.28.12.42.42,0,0,1,.11.29V32.08a.39.39,0,0,1-.11.27.36.36,0,0,1-.28.12h-1a.29.29,0,0,1-.27-.13.91.91,0,0,1-.13-.26Z"/><path class="cls-1" d="M162.94,20.9a.47.47,0,0,1,.11-.26.33.33,0,0,1,.29-.13H166a3.28,3.28,0,0,1,1.48.28,2.23,2.23,0,0,1,.83.69,2.55,2.55,0,0,1,.4.85c.06.31.12.56.14.78a23.21,23.21,0,0,1,.24,3.33c0,1.1-.08,2.22-.19,3.36,0,.28-.08.56-.14.84a2.4,2.4,0,0,1-.41.87,2.34,2.34,0,0,1-.9.69,3.7,3.7,0,0,1-1.61.28h-2.45a.33.33,0,0,1-.29-.13.5.5,0,0,1-.11-.27Zm1.39,10.21h1.6a1.84,1.84,0,0,0,.8-.15,1.17,1.17,0,0,0,.46-.42,1.72,1.72,0,0,0,.23-.62c0-.23.08-.48.11-.74a21.28,21.28,0,0,0,.15-2.76,24.78,24.78,0,0,0-.18-2.68c0-.25-.07-.49-.11-.69a1.79,1.79,0,0,0-.23-.61,1.24,1.24,0,0,0-.46-.42,1.81,1.81,0,0,0-.8-.15h-1.57Z"/><path class="cls-1" d="M177.1,22.61l.28,3.57v5.88a.43.43,0,0,1-.11.28.33.33,0,0,1-.29.13h-.57a.36.36,0,0,1-.28-.12.44.44,0,0,1-.11-.29V20.9a.39.39,0,0,1,.11-.27.36.36,0,0,1,.28-.12h1a.29.29,0,0,1,.27.13,1.23,1.23,0,0,1,.12.26L181,30.37,180.74,27v-6a.41.41,0,0,1,.11-.28.31.31,0,0,1,.28-.13h.58a.38.38,0,0,1,.28.12.44.44,0,0,1,.11.29V32.08a.39.39,0,0,1-.11.27.38.38,0,0,1-.28.12h-1a.31.31,0,0,1-.28-.13.68.68,0,0,1-.12-.26Z"/><path class="cls-1" d="M187.93,20.48c.2,0,.33.13.38.39l2.24,11.18a.3.3,0,0,1-.32.39h-.66c-.23,0-.36-.13-.41-.39l-.42-2h-2.32l-.41,2c0,.26-.18.39-.41.39h-.66a.32.32,0,0,1-.27-.11.39.39,0,0,1,0-.28l2.24-11.18a.77.77,0,0,1,.12-.28.32.32,0,0,1,.27-.11Zm.59,8.23-.69-4.2-.24-2.29h-.07l-.23,2.29-.69,4.2Z"/><path class="cls-1" d="M197.54,21.48a.33.33,0,0,1-.14.27.39.39,0,0,1-.27.11h-1.92v10.2a.48.48,0,0,1-.1.28.33.33,0,0,1-.29.13h-.57a.36.36,0,0,1-.28-.13.43.43,0,0,1-.11-.28V21.86h-2a.36.36,0,0,1-.26-.11.32.32,0,0,1-.13-.27V20.9a.33.33,0,0,1,.13-.29.4.4,0,0,1,.26-.1h5.22a.43.43,0,0,1,.27.1.37.37,0,0,1,.14.29Z"/><path class="cls-1" d="M200.82,29.27a3,3,0,0,0,.06.74,1.69,1.69,0,0,0,.23.65,1.13,1.13,0,0,0,.47.45,1.74,1.74,0,0,0,.81.17,1.62,1.62,0,0,0,.81-.17,1.16,1.16,0,0,0,.48-.45,1.85,1.85,0,0,0,.22-.65,6.47,6.47,0,0,0,0-.76V20.9a.42.42,0,0,1,.1-.28.36.36,0,0,1,.29-.11h.57a.38.38,0,0,1,.4.36v8.92a6.42,6.42,0,0,1-.09.87,2.23,2.23,0,0,1-.4.92,2.37,2.37,0,0,1-.91.75,3.52,3.52,0,0,1-1.6.31,3.05,3.05,0,0,1-1.49-.31,2.45,2.45,0,0,1-.87-.73,2.2,2.2,0,0,1-.39-.87,4.17,4.17,0,0,1-.1-.79v-9a.42.42,0,0,1,.1-.28.36.36,0,0,1,.29-.11h.58a.39.39,0,0,1,.27.11.38.38,0,0,1,.12.28Z"/><path class="cls-1" d="M214.14,32.08a.33.33,0,0,1,0,.24.3.3,0,0,1-.3.15h-.69a.45.45,0,0,1-.27-.08.58.58,0,0,1-.16-.31l-1.61-5.24h-1.51v5.22a.36.36,0,0,1-.11.26.36.36,0,0,1-.29.14h-.56a.35.35,0,0,1-.28-.14.36.36,0,0,1-.11-.26V20.9a.33.33,0,0,1,.12-.28.4.4,0,0,1,.27-.14h2.07a7.26,7.26,0,0,1,1.68.17,1.79,1.79,0,0,1,1.08.76,3.42,3.42,0,0,1,.42,1,5.93,5.93,0,0,1,.12,1.33,4.11,4.11,0,0,1-.34,1.86,2.15,2.15,0,0,1-1.18,1Zm-4.56-6.58h1.1a5.49,5.49,0,0,0,.81,0,1,1,0,0,0,.55-.23,1.06,1.06,0,0,0,.27-.25,1.31,1.31,0,0,0,.17-.28,1.38,1.38,0,0,0,.09-.39,5.42,5.42,0,0,0,0-.57,3.15,3.15,0,0,0-.15-1.1,1.2,1.2,0,0,0-.42-.57,1.11,1.11,0,0,0-.27-.13,2.33,2.33,0,0,0-.36-.08h-1.8Z"/><path class="cls-1" d="M219.67,26.62l-.25,1.58-1,3.88c-.06.26-.18.39-.37.39h-.59a.33.33,0,0,1-.27-.12.47.47,0,0,1-.12-.27l-1.08-11.16a.39.39,0,0,1,.39-.41h.58a.29.29,0,0,1,.27.13.41.41,0,0,1,.11.28l.43,4.74.17,4.15H218L219,24.87a.5.5,0,0,1,.12-.29.34.34,0,0,1,.27-.1H220a.34.34,0,0,1,.27.1.5.5,0,0,1,.12.29l1.07,4.94h.07l.16-4.15.42-4.74a.57.57,0,0,1,.11-.28.33.33,0,0,1,.29-.13h.57a.36.36,0,0,1,.29.13.32.32,0,0,1,.1.28l-1.07,11.16a.54.54,0,0,1-.11.27.36.36,0,0,1-.27.12h-.6c-.19,0-.32-.13-.37-.39l-1-3.88-.25-1.58Z"/><path class="cls-1" d="M226.66,32.47a.34.34,0,0,1-.27-.13.39.39,0,0,1-.12-.28V20.9a.42.42,0,0,1,.12-.26.31.31,0,0,1,.27-.13h.58a.33.33,0,0,1,.29.13.4.4,0,0,1,.1.26V32.06a.48.48,0,0,1-.1.28.33.33,0,0,1-.29.13Z"/><path class="cls-1" d="M236.28,29.16a3.73,3.73,0,0,1-.8,2.61,2.87,2.87,0,0,1-2.23.87,3.15,3.15,0,0,1-1.48-.31,2.47,2.47,0,0,1-.89-.78,3.1,3.1,0,0,1-.49-1.17,7.18,7.18,0,0,1-.14-1.38v-.22a.43.43,0,0,1,.11-.28.44.44,0,0,1,.29-.11h.59a.4.4,0,0,1,.27.11.48.48,0,0,1,.1.28V29a3.8,3.8,0,0,0,.14,1.11,1.76,1.76,0,0,0,.36.69,1.16,1.16,0,0,0,.53.37,1.93,1.93,0,0,0,.63.1,1.66,1.66,0,0,0,1.21-.38,2.11,2.11,0,0,0,.46-1.57,1.76,1.76,0,0,0-.32-1.08,4.23,4.23,0,0,0-.84-.85c-.34-.26-.69-.52-1.08-.77a7.58,7.58,0,0,1-1.09-.85,4.28,4.28,0,0,1-.87-1.11,3.17,3.17,0,0,1-.33-1.48,3.13,3.13,0,0,1,.18-1,2.49,2.49,0,0,1,.53-.9,2.44,2.44,0,0,1,.87-.62,3.47,3.47,0,0,1,2.43,0,2.5,2.5,0,0,1,.86.61,2.68,2.68,0,0,1,.53.87,2.85,2.85,0,0,1,.18,1v.12a.37.37,0,0,1-.37.39H235a.33.33,0,0,1-.28-.12.44.44,0,0,1-.11-.27h0a1.41,1.41,0,0,0-.38-1,1.31,1.31,0,0,0-1-.4,1.48,1.48,0,0,0-.69.11,1.23,1.23,0,0,0-.45.32,1.28,1.28,0,0,0-.26.47,2.43,2.43,0,0,0-.08.53,1.74,1.74,0,0,0,.34,1.06,4.46,4.46,0,0,0,.83.85,12.2,12.2,0,0,0,1.09.8,11.2,11.2,0,0,1,1.13.82,4.23,4.23,0,0,1,.83,1.05A2.87,2.87,0,0,1,236.28,29.16Z"/><path class="cls-1" d="M244,29.16a3.72,3.72,0,0,1-.79,2.61,2.89,2.89,0,0,1-2.24.87,3.11,3.11,0,0,1-1.47-.31,2.48,2.48,0,0,1-.92-.78,3.1,3.1,0,0,1-.49-1.17A7.18,7.18,0,0,1,238,29v-.22a.43.43,0,0,1,.11-.28.44.44,0,0,1,.29-.11H239a.39.39,0,0,1,.27.11.42.42,0,0,1,.1.28V29a3.8,3.8,0,0,0,.14,1.11,1.76,1.76,0,0,0,.36.69,1.19,1.19,0,0,0,.52.37,2,2,0,0,0,.64.1,1.63,1.63,0,0,0,1.21-.45,2.12,2.12,0,0,0,.47-1.57,1.91,1.91,0,0,0-.33-1.08,4.23,4.23,0,0,0-.84-.85c-.34-.26-.7-.51-1.08-.77a8.17,8.17,0,0,1-1.09-.85,4.22,4.22,0,0,1-.84-1,3.17,3.17,0,0,1-.33-1.48,3.13,3.13,0,0,1,.18-1,2.49,2.49,0,0,1,.53-.9,2.44,2.44,0,0,1,.87-.62,3.47,3.47,0,0,1,2.43,0,2.5,2.5,0,0,1,.86.61,2.79,2.79,0,0,1,.53.87,2.85,2.85,0,0,1,.18,1v.12a.37.37,0,0,1-.37.39h-.6a.33.33,0,0,1-.28-.12.39.39,0,0,1-.11-.27h0a1.45,1.45,0,0,0-.38-1,1.31,1.31,0,0,0-1-.4,1.46,1.46,0,0,0-.69.11,1.12,1.12,0,0,0-.45.32,1.28,1.28,0,0,0-.26.47,2,2,0,0,0-.08.53,1.68,1.68,0,0,0,.34,1.06,4.46,4.46,0,0,0,.83.85c.36.27.74.52,1.12.75a8.92,8.92,0,0,1,1.06.87,4.31,4.31,0,0,1,.85,1.05A3,3,0,0,1,244,29.16Z"/><path class="cls-1" d="M251.7,32.08a.38.38,0,0,1-.12.28.44.44,0,0,1-.29.11h-4.45a.36.36,0,0,1-.28-.13.43.43,0,0,1-.11-.28V20.9a.36.36,0,0,1,.11-.26.31.31,0,0,1,.28-.13h4.33a.4.4,0,0,1,.28.1.33.33,0,0,1,.13.29v.58a.3.3,0,0,1-.13.27.39.39,0,0,1-.28.11H247.8v3.75h2.9a.42.42,0,0,1,.28.1.37.37,0,0,1,.13.28v.58a.37.37,0,0,1-.13.28.43.43,0,0,1-.28.11h-2.9v4.15h3.46a.44.44,0,0,1,.29.11.33.33,0,0,1,.12.28Z"/><path class="cls-1" d="M255.19,22.61l.27,3.57v5.88a.42.42,0,0,1-.1.28.33.33,0,0,1-.29.13h-.57a.36.36,0,0,1-.28-.12.4.4,0,0,1-.12-.29V20.9a.36.36,0,0,1,.12-.27.33.33,0,0,1,.28-.12h1a.26.26,0,0,1,.26.13,1.26,1.26,0,0,1,.13.26l3.21,9.47L258.85,27v-6a.48.48,0,0,1,.1-.28.33.33,0,0,1,.29-.13h.56a.4.4,0,0,1,.29.12.49.49,0,0,1,.11.29V32.08a.5.5,0,0,1-.11.27.4.4,0,0,1-.29.12h-1a.3.3,0,0,1-.27-.13.85.85,0,0,1-.11-.26Z"/><path class="cls-1" d="M268.64,29.16a3.73,3.73,0,0,1-.8,2.61,2.87,2.87,0,0,1-2.23.87,3.15,3.15,0,0,1-1.48-.31,2.48,2.48,0,0,1-.92-.78,3.15,3.15,0,0,1-.48-1.17,7.18,7.18,0,0,1-.14-1.38v-.22a.42.42,0,0,1,.1-.28.44.44,0,0,1,.29-.11h.59a.39.39,0,0,1,.27.11.43.43,0,0,1,.11.28V29a3.8,3.8,0,0,0,.14,1.11,1.76,1.76,0,0,0,.36.69,1.16,1.16,0,0,0,.53.37,1.93,1.93,0,0,0,.63.1,1.63,1.63,0,0,0,1.21-.45,2.12,2.12,0,0,0,.47-1.57,1.83,1.83,0,0,0-.33-1.08,4.23,4.23,0,0,0-.84-.85c-.34-.26-.69-.51-1.08-.77a7.9,7.9,0,0,1-1.09-.81,4.19,4.19,0,0,1-.84-1.08,3.05,3.05,0,0,1-.33-1.48,3.13,3.13,0,0,1,.18-1,2.62,2.62,0,0,1,.52-.9,2.44,2.44,0,0,1,.87-.62,3,3,0,0,1,1.22-.22,2.92,2.92,0,0,1,1.21.22,2.64,2.64,0,0,1,.87.61,2.58,2.58,0,0,1,.52.87,2.85,2.85,0,0,1,.18,1v.12a.37.37,0,0,1-.37.39h-.57a.34.34,0,0,1-.28-.12.5.5,0,0,1-.11-.27h0a1.41,1.41,0,0,0-.38-1,1.32,1.32,0,0,0-1-.4,1.5,1.5,0,0,0-.69.11,1.23,1.23,0,0,0-.69.79,2,2,0,0,0-.08.53,1.68,1.68,0,0,0,.34,1.06,4.08,4.08,0,0,0,.85.81c.34.28.71.54,1.08.79a9.69,9.69,0,0,1,1.05.87,4.27,4.27,0,0,1,.84,1.05A3,3,0,0,1,268.64,29.16Z"/><path class="cls-1" d="M276.45,23.59a.39.39,0,0,1-.11.28.34.34,0,0,1-.29.11h-.57a.38.38,0,0,1-.39-.39v-.23a2.4,2.4,0,0,0-.07-.6,1.3,1.3,0,0,0-.23-.54,1.1,1.1,0,0,0-.42-.38,1.32,1.32,0,0,0-.65-.14,1.69,1.69,0,0,0-.77.16,1.44,1.44,0,0,0-.47.45,2.1,2.1,0,0,0-.23.65,6.71,6.71,0,0,0-.07.76c0,.52-.06,1-.08,1.44s0,.88,0,1.3,0,.86,0,1.29,0,.89.08,1.38a6.87,6.87,0,0,0,.08.78,2.1,2.1,0,0,0,.24.69,1.33,1.33,0,0,0,.47.5,1.43,1.43,0,0,0,.81.19,1.38,1.38,0,0,0,.69-.16,1.27,1.27,0,0,0,.46-.46,2.41,2.41,0,0,0,.24-.65,4.78,4.78,0,0,0,.08-.75v-.62a.37.37,0,0,1,.1-.28.41.41,0,0,1,.28-.11h.58a.39.39,0,0,1,.39.38h0v1.16a3.06,3.06,0,0,1-.12.85,2.51,2.51,0,0,1-.43.92,2.48,2.48,0,0,1-.89.75,3.2,3.2,0,0,1-1.49.31,2.9,2.9,0,0,1-1.48-.33,2.39,2.39,0,0,1-.85-.76,2.78,2.78,0,0,1-.4-.94,5.52,5.52,0,0,1-.12-.8c0-.59-.08-1.14-.11-1.68s0-1.06,0-1.6V24.94c0-.54.05-1.09.1-1.66a5.18,5.18,0,0,1,.11-.87,2.45,2.45,0,0,1,1.3-1.73,3.47,3.47,0,0,1,1.62-.31,2.67,2.67,0,0,1,1.35.3,2.3,2.3,0,0,1,1.19,1.57,4,4,0,0,1,.1.77Z"/><path class="cls-1" d="M283.83,32.47a.37.37,0,0,1-.28-.13.43.43,0,0,1-.11-.28V27h-3.13v5.1a.43.43,0,0,1-.11.28.31.31,0,0,1-.28.13h-.58a.37.37,0,0,1-.28-.13.43.43,0,0,1-.11-.28V20.9a.47.47,0,0,1,.11-.26.34.34,0,0,1,.28-.13h.58a.31.31,0,0,1,.28.13.36.36,0,0,1,.11.26v4.71h3.13V20.9a.36.36,0,0,1,.11-.26.32.32,0,0,1,.28-.13h.58a.31.31,0,0,1,.28.13.36.36,0,0,1,.11.26V32.06a.43.43,0,0,1-.11.28.33.33,0,0,1-.28.13Z"/><path class="cls-1" d="M290.62,20.48c.2,0,.34.13.39.39l2.24,11.18a.35.35,0,0,1-.05.28.32.32,0,0,1-.27.11h-.7c-.22,0-.35-.13-.4-.39l-.42-2h-2.32l-.41,2c0,.26-.18.39-.4.39h-.69a.3.3,0,0,1-.27-.11.32.32,0,0,1-.05-.28l2.28-11.15a.7.7,0,0,1,.12-.28.32.32,0,0,1,.27-.11Zm.6,8.23-.69-4.2-.24-2.29h-.05L290,24.51l-.69,4.2Z"/><path class="cls-1" d="M300.43,26.57a.31.31,0,0,1-.13.28A.39.39,0,0,1,300,27h-2.87v5.1a.42.42,0,0,1-.1.28.32.32,0,0,1-.29.13h-.57a.36.36,0,0,1-.28-.13.5.5,0,0,1-.12-.28V20.9a.42.42,0,0,1,.12-.26.31.31,0,0,1,.28-.13h4.33a.42.42,0,0,1,.28.1.36.36,0,0,1,.13.29v.58a.34.34,0,0,1-.13.27.39.39,0,0,1-.28.11h-3.37v3.75h2.9a.42.42,0,0,1,.28.1.37.37,0,0,1,.13.28Z"/><path class="cls-1" d="M308.19,21.48a.34.34,0,0,1-.13.27.39.39,0,0,1-.28.11h-1.92v10.2a.41.41,0,0,1-.09.28.33.33,0,0,1-.29.13h-.58a.39.39,0,0,1-.38-.41V21.86h-2a.38.38,0,0,1-.26-.11.33.33,0,0,1-.12-.27V20.9a.35.35,0,0,1,.12-.29.42.42,0,0,1,.26-.1h5.22a.48.48,0,0,1,.28.1.36.36,0,0,1,.13.29Z"/><path class="cls-1" d="M315.59,32.08a.32.32,0,0,1-.13.28.39.39,0,0,1-.28.11h-4.45a.37.37,0,0,1-.28-.13.43.43,0,0,1-.11-.28V20.9a.36.36,0,0,1,.11-.26.32.32,0,0,1,.28-.13h4.34a.38.38,0,0,1,.27.1.33.33,0,0,1,.13.29v.58a.3.3,0,0,1-.13.27.39.39,0,0,1-.27.11h-3.38v3.75h2.89a.43.43,0,0,1,.29.1A.33.33,0,0,1,315,26v.58a.36.36,0,0,1-.12.28.44.44,0,0,1-.29.11h-2.89v4.15h3.46a.43.43,0,0,1,.28.11.36.36,0,0,1,.13.28Z"/><path class="cls-1" d="M319.08,22.61l.27,3.57v5.88a.48.48,0,0,1-.1.28.33.33,0,0,1-.29.13h-.57a.4.4,0,0,1-.29-.12.43.43,0,0,1-.1-.29V20.9a.43.43,0,0,1,.1-.27.4.4,0,0,1,.29-.12h1a.29.29,0,0,1,.27.13,1.23,1.23,0,0,1,.12.26L323,30.37,322.76,27v-6a.4.4,0,0,1,.1-.28.32.32,0,0,1,.29-.13h.57a.36.36,0,0,1,.28.12.42.42,0,0,1,.11.29V32.08a.39.39,0,0,1-.11.27.36.36,0,0,1-.28.12h-1a.3.3,0,0,1-.27-.13.85.85,0,0,1-.11-.26Z"/><path class="cls-1" d="M87.92,49.59a4.74,4.74,0,0,0,.06.75,1.8,1.8,0,0,0,.22.64,1.25,1.25,0,0,0,.48.46,1.74,1.74,0,0,0,.81.17,1.8,1.8,0,0,0,.82-.17,1.22,1.22,0,0,0,.47-.46,1.67,1.67,0,0,0,.22-.65,4.73,4.73,0,0,0,0-.75V41.24a.48.48,0,0,1,.1-.29.44.44,0,0,1,.29-.11H92a.38.38,0,0,1,.39.37v8.91a6.11,6.11,0,0,1-.09.86,2.3,2.3,0,0,1-.39.94,2.52,2.52,0,0,1-.94.74,3.55,3.55,0,0,1-1.61.3,3.21,3.21,0,0,1-1.49-.3,2.42,2.42,0,0,1-.86-.73,2.07,2.07,0,0,1-.4-.88,3.39,3.39,0,0,1-.09-.78v-9a.42.42,0,0,1,.09-.29.46.46,0,0,1,.29-.11h.61a.39.39,0,0,1,.4.37v8.38Z"/><path class="cls-1" d="M96.4,42.94l.28,3.57v5.88a.43.43,0,0,1-.1.27.37.37,0,0,1-.3.14h-.57a.39.39,0,0,1-.28-.12.44.44,0,0,1-.11-.29V41.24a.39.39,0,0,1,.39-.4h1A.27.27,0,0,1,97,41a2.24,2.24,0,0,1,.13.27l3.18,9.46-.25-3.4V41.24a.39.39,0,0,1,.1-.28.33.33,0,0,1,.29-.13H101a.36.36,0,0,1,.28.11.48.48,0,0,1,.11.3V52.4a.43.43,0,0,1-.11.28.36.36,0,0,1-.28.12h-1a.3.3,0,0,1-.27-.14.57.57,0,0,1-.12-.26Z"/><path class="cls-1" d="M105.13,52.8a.35.35,0,0,1-.28-.14.39.39,0,0,1-.11-.27V41.24a.39.39,0,0,1,.11-.27.37.37,0,0,1,.28-.13h.57A.33.33,0,0,1,106,41a.44.44,0,0,1,.11.27V52.39a.39.39,0,0,1-.11.27.37.37,0,0,1-.29.14Z"/><path class="cls-1" d="M111,52.8c-.2,0-.33-.14-.39-.4l-2.29-11.16a.31.31,0,0,1,.06-.29.29.29,0,0,1,.26-.11h.69c.23,0,.36.13.41.4l.72,3.63.86,5.36.88-5.36.73-3.63c0-.27.18-.4.41-.4H114a.3.3,0,0,1,.27.11.37.37,0,0,1,.06.29L112,52.41q-.09.39-.39.39Z"/><path class="cls-1" d="M122,52.4a.41.41,0,0,1-.41.4h-4.45a.35.35,0,0,1-.28-.14.39.39,0,0,1-.11-.27V41.24a.39.39,0,0,1,.11-.27.37.37,0,0,1,.28-.13h4.33a.45.45,0,0,1,.28.1.35.35,0,0,1,.13.3v.57a.34.34,0,0,1-.13.28.39.39,0,0,1-.28.11H118.1v3.74H121a.48.48,0,0,1,.28.1.37.37,0,0,1,.13.29v.58a.35.35,0,0,1-.13.27.39.39,0,0,1-.28.12h-2.9v4.15h3.46a.38.38,0,0,1,.27.1.35.35,0,0,1,.14.28Z"/><path class="cls-1" d="M130.32,52.4a.43.43,0,0,1,0,.25.31.31,0,0,1-.29.15h-.69a.5.5,0,0,1-.27-.08.76.76,0,0,1-.17-.32l-1.61-5.23h-1.51v5.22a.37.37,0,0,1-.1.26.32.32,0,0,1-.28.13h-.58a.32.32,0,0,1-.28-.13.36.36,0,0,1-.11-.26V41.24a.32.32,0,0,1,.13-.29.47.47,0,0,1,.26-.11h2.08a7.4,7.4,0,0,1,1.69.17,1.8,1.8,0,0,1,1.07.76,2.73,2.73,0,0,1,.41,1,6.59,6.59,0,0,1,.13,1.33,4.11,4.11,0,0,1-.34,1.86,2.15,2.15,0,0,1-1.18,1Zm-4.56-6.57h1.12a7.14,7.14,0,0,0,.8,0,1.22,1.22,0,0,0,.55-.23.93.93,0,0,0,.27-.25,1.17,1.17,0,0,0,.17-.28,1.8,1.8,0,0,0,.1-.4v-.57a3.19,3.19,0,0,0-.16-1.1,1.1,1.1,0,0,0-.42-.56.84.84,0,0,0-.27-.13,1.21,1.21,0,0,0-.38-.06h-1.82Z"/><path class="cls-1" d="M138.19,49.49a3.73,3.73,0,0,1-.8,2.61,2.87,2.87,0,0,1-2.23.9,3.11,3.11,0,0,1-1.47-.31,2.59,2.59,0,0,1-.93-.81,3.09,3.09,0,0,1-.48-1.17,7.1,7.1,0,0,1-.14-1.38v-.17a.39.39,0,0,1,.11-.27.34.34,0,0,1,.29-.11h.59a.32.32,0,0,1,.27.11.38.38,0,0,1,.1.27v.19a3.46,3.46,0,0,0,.14,1.11,1.87,1.87,0,0,0,.36.7,1.25,1.25,0,0,0,.52.36,2,2,0,0,0,.64.1,1.68,1.68,0,0,0,1.21-.44,2.12,2.12,0,0,0,.46-1.57,1.77,1.77,0,0,0-.32-1.09,3.76,3.76,0,0,0-.85-.84c-.33-.27-.69-.52-1.07-.78a6.93,6.93,0,0,1-1.09-.85,4.07,4.07,0,0,1-.84-1.09,3.17,3.17,0,0,1-.33-1.48,3.47,3.47,0,0,1,.17-1.07,2.64,2.64,0,0,1,.53-.9,2.29,2.29,0,0,1,.87-.61,3,3,0,0,1,1.22-.23,3,3,0,0,1,1.21.23,2.35,2.35,0,0,1,.86.6,2.83,2.83,0,0,1,.53.88,2.8,2.8,0,0,1,.18,1v.13a.39.39,0,0,1-.37.39h-.6a.33.33,0,0,1-.28-.12.47.47,0,0,1-.11-.26h0a1.47,1.47,0,0,0-.38-1,1.35,1.35,0,0,0-1-.4,1.62,1.62,0,0,0-.69.12,1.17,1.17,0,0,0-.69.78,2,2,0,0,0-.08.54,1.75,1.75,0,0,0,.33,1.06,4.46,4.46,0,0,0,.85.83,12.14,12.14,0,0,0,1.1.78A9.93,9.93,0,0,1,137,47a4,4,0,0,1,.84,1A2.88,2.88,0,0,1,138.19,49.49Z"/><path class="cls-1" d="M141.21,52.8a.34.34,0,0,1-.28-.14.39.39,0,0,1-.11-.27V41.24a.39.39,0,0,1,.11-.27.36.36,0,0,1,.28-.13h.57a.33.33,0,0,1,.29.13.45.45,0,0,1,.12.27V52.39a.39.39,0,0,1-.11.27.34.34,0,0,1-.29.14Z"/><path class="cls-1" d="M150.56,41.8a.37.37,0,0,1-.13.28.43.43,0,0,1-.28.11h-1.91v10.2a.39.39,0,0,1-.11.27.35.35,0,0,1-.28.14h-.58a.35.35,0,0,1-.28-.14.39.39,0,0,1-.11-.27V42.19H145a.39.39,0,0,1-.27-.11.37.37,0,0,1-.13-.28v-.56a.42.42,0,0,1,.13-.3.45.45,0,0,1,.27-.1h5.21a.48.48,0,0,1,.28.1.38.38,0,0,1,.13.3Z"/><path class="cls-1" d="M154.81,40.83c.2,0,.33.14.39.4l2.21,11.17a.34.34,0,0,1,0,.29.35.35,0,0,1-.27.11h-.66c-.22,0-.36-.14-.4-.4l-.43-2h-2.32l-.41,2c0,.26-.18.4-.4.4h-.69a.32.32,0,0,1-.27-.11.34.34,0,0,1,0-.29l2.28-11.16a.74.74,0,0,1,.12-.29.32.32,0,0,1,.27-.11ZM152,39.36a.89.89,0,0,1,1.78-.16v.16a.9.9,0,0,1-1.52.63h0a.86.86,0,0,1-.27-.62Zm3.37,9.69-.69-4.2-.24-2.29h-.07l-.23,2.29-.69,4.2Zm-.27-9.69a.89.89,0,0,1,1.78-.16v.16a.86.86,0,0,1-.27.62.88.88,0,0,1-1.25,0h0a.86.86,0,0,1-.27-.62Z"/><path class="cls-1" d="M164.4,41.8a.37.37,0,0,1-.13.28.43.43,0,0,1-.28.11h-1.92v10.2a.42.42,0,0,1-.09.27.37.37,0,0,1-.3.14h-.57a.35.35,0,0,1-.28-.14.39.39,0,0,1-.11-.27V42.19h-1.93a.36.36,0,0,1-.26-.11.33.33,0,0,1-.12-.28v-.56a.37.37,0,0,1,.12-.3.42.42,0,0,1,.26-.1H164a.48.48,0,0,1,.28.1.4.4,0,0,1,.13.3Z"/><path class="cls-1" d="M171.88,49.49a3.72,3.72,0,0,1-.79,2.61,2.91,2.91,0,0,1-2.24.9,3.11,3.11,0,0,1-1.47-.31,2.5,2.5,0,0,1-.93-.81,3.09,3.09,0,0,1-.48-1.17,6.39,6.39,0,0,1-.13-1.38v-.17a.37.37,0,0,1,.09-.27.36.36,0,0,1,.29-.11h.6a.29.29,0,0,1,.27.07.35.35,0,0,1,.11.27v.19a3.79,3.79,0,0,0,.13,1.11,1.78,1.78,0,0,0,.37.69,1.19,1.19,0,0,0,.52.37,2,2,0,0,0,.64.1,1.68,1.68,0,0,0,1.21-.44,2.15,2.15,0,0,0,.46-1.58,1.77,1.77,0,0,0-.33-1.08,4,4,0,0,0-.84-.85c-.33-.26-.69-.51-1.08-.77A7.49,7.49,0,0,1,167.2,46a4.07,4.07,0,0,1-.84-1.09,3.17,3.17,0,0,1-.33-1.48,3.46,3.46,0,0,1,.17-1.06,2.93,2.93,0,0,1,.53-.9,2.54,2.54,0,0,1,.87-.61,3.35,3.35,0,0,1,2.44,0,2.6,2.6,0,0,1,.86.61,2.68,2.68,0,0,1,.53.87,3.09,3.09,0,0,1,.17,1v.12a.43.43,0,0,1-.11.28.46.46,0,0,1-.3.11h-.55a.39.39,0,0,1-.29-.13.47.47,0,0,1-.11-.26h0a1.43,1.43,0,0,0-.38-1,1.35,1.35,0,0,0-1-.4,1.62,1.62,0,0,0-.69.12,1.28,1.28,0,0,0-.45.32,1,1,0,0,0-.25.47,1.87,1.87,0,0,0,.25,1.59,4.61,4.61,0,0,0,.85.86,10.69,10.69,0,0,0,1.08.79,9.93,9.93,0,0,1,1.08.86,4.09,4.09,0,0,1,.84,1.06A2.8,2.8,0,0,1,171.88,49.49Z"/><path class="cls-1" d="M176.59,40.83c.42,0,.83,0,1.24.07a2.8,2.8,0,0,1,.88.27,2.08,2.08,0,0,1,.91,1,4,4,0,0,1,.29,1.5,4.67,4.67,0,0,1-.27,1.89,1.83,1.83,0,0,1-.38.53,1.86,1.86,0,0,1-.47.32,1.69,1.69,0,0,1,1.06.91,4.21,4.21,0,0,1,.31,1.79,9.6,9.6,0,0,1-.08,1.31,3.06,3.06,0,0,1-.4,1.18,2.3,2.3,0,0,1-.91.84,3.6,3.6,0,0,1-1.64.33h-2.42a.34.34,0,0,1-.28-.14.39.39,0,0,1-.11-.27V41.24a.37.37,0,0,1,.12-.3.43.43,0,0,1,.27-.1Zm-1,5h1.07a5.85,5.85,0,0,0,.73,0,1.16,1.16,0,0,0,.61-.24,1.26,1.26,0,0,0,.4-.61,3.58,3.58,0,0,0,.14-1.17,1.85,1.85,0,0,0-.16-.87,1.05,1.05,0,0,0-.4-.48,1.65,1.65,0,0,0-.64-.2h-1.75Zm0,1.38v4.26H177a2.78,2.78,0,0,0,.76-.1,1,1,0,0,0,.56-.35,1.45,1.45,0,0,0,.34-.69,4.76,4.76,0,0,0,.12-1.19,2.88,2.88,0,0,0-.13-1,1.26,1.26,0,0,0-.41-.58,1.68,1.68,0,0,0-.69-.28,5.62,5.62,0,0,0-.92-.08Z"/><path class="cls-1" d="M183.5,52.8a.35.35,0,0,1-.28-.14.39.39,0,0,1-.11-.27V41.24a.39.39,0,0,1,.11-.27.37.37,0,0,1,.28-.13h.58a.31.31,0,0,1,.28.13.44.44,0,0,1,.11.27V52.39a.39.39,0,0,1-.11.27.34.34,0,0,1-.28.14Z"/><path class="cls-1" d="M190.11,40.83c.41,0,.82,0,1.23.07a2.65,2.65,0,0,1,.88.27,2.08,2.08,0,0,1,.91,1,3.83,3.83,0,0,1,.3,1.5,5,5,0,0,1-.27,1.89,1.83,1.83,0,0,1-.38.53,2.59,2.59,0,0,1-.47.32,1.65,1.65,0,0,1,1.07.91,4.07,4.07,0,0,1,.32,1.79,9.6,9.6,0,0,1-.08,1.31,3.12,3.12,0,0,1-.4,1.18,2.26,2.26,0,0,1-.92.84,3.57,3.57,0,0,1-1.64.33H188.2a.37.37,0,0,1-.29-.14.39.39,0,0,1-.11-.27V41.24a.37.37,0,0,1,.13-.3.43.43,0,0,1,.27-.1Zm-1,5h1.06a6,6,0,0,0,.74,0,1.35,1.35,0,0,0,.61-.24,1.31,1.31,0,0,0,.39-.61,3.58,3.58,0,0,0,.14-1.17,1.84,1.84,0,0,0-.15-.87,1.07,1.07,0,0,0-.41-.48,1.6,1.6,0,0,0-.64-.2h-1.74Zm0,1.38v4.26h1.38a2.78,2.78,0,0,0,.76-.1,1,1,0,0,0,.56-.35,1.72,1.72,0,0,0,.34-.69,4.76,4.76,0,0,0,.12-1.19,2.66,2.66,0,0,0-.14-1,1.17,1.17,0,0,0-.4-.58,1.74,1.74,0,0,0-.69-.28,5.72,5.72,0,0,0-.92-.08Z"/><path class="cls-1" d="M201.42,52.4a.33.33,0,0,1-.13.29.39.39,0,0,1-.27.11H196.8a.35.35,0,0,1-.28-.14.39.39,0,0,1-.11-.27V41.24a.39.39,0,0,1,.11-.27.37.37,0,0,1,.28-.13h.57a.33.33,0,0,1,.29.13.38.38,0,0,1,.1.27v10.2H201a.43.43,0,0,1,.27.1.33.33,0,0,1,.13.29Z"/><path class="cls-1" d="M204.07,52.8a.37.37,0,0,1-.29-.14.39.39,0,0,1-.11-.27V41.24a.5.5,0,0,1,.11-.27.39.39,0,0,1,.29-.13h.57a.31.31,0,0,1,.28.13.39.39,0,0,1,.11.27V52.39a.39.39,0,0,1-.11.27.34.34,0,0,1-.28.14Z"/><path class="cls-1" d="M211,53a3.16,3.16,0,0,1-1.51-.32,2.31,2.31,0,0,1-.84-.83,2.77,2.77,0,0,1-.4-1,6.42,6.42,0,0,1-.12-.88q-.09-1.68-.09-3.21c0-1,0-2.07.09-3.2a6.28,6.28,0,0,1,.12-.87,2.77,2.77,0,0,1,.4-1,2.3,2.3,0,0,1,.87-.77,3.8,3.8,0,0,1,3,0,2.3,2.3,0,0,1,.87.77,2.77,2.77,0,0,1,.4,1,6.28,6.28,0,0,1,.12.87c0,1.11.09,2.18.09,3.2s0,2.08-.09,3.21a6.42,6.42,0,0,1-.12.88,2.77,2.77,0,0,1-.4,1,2.27,2.27,0,0,1-.87.79A3.08,3.08,0,0,1,211,53Zm0-10.94a1.43,1.43,0,0,0-.78.19,1.35,1.35,0,0,0-.45.47,2.44,2.44,0,0,0-.23.69q-.06.39-.09.78c0,.93-.07,1.8-.06,2.65s0,1.73.06,2.66a6.43,6.43,0,0,0,.08.78,2.14,2.14,0,0,0,.23.7,1.35,1.35,0,0,0,.46.49,1.72,1.72,0,0,0,1.56,0,1.41,1.41,0,0,0,.48-.49,2.12,2.12,0,0,0,.22-.7,5,5,0,0,0,.07-.78c0-.93.07-1.82.07-2.66s0-1.72-.07-2.65a4.13,4.13,0,0,0-.08-.78,1.94,1.94,0,0,0-.23-.69,1.16,1.16,0,0,0-.46-.47A1.42,1.42,0,0,0,211,42Z"/><path class="cls-1" d="M221.31,41.8a.37.37,0,0,1-.13.28.41.41,0,0,1-.28.11H219v10.2a.38.38,0,0,1-.1.27.37.37,0,0,1-.29.14H218a.33.33,0,0,1-.27-.14.39.39,0,0,1-.11-.27V42.19h-1.95a.39.39,0,0,1-.27-.11.36.36,0,0,1-.12-.28v-.56a.37.37,0,0,1,.12-.3.45.45,0,0,1,.27-.1h5.21a.48.48,0,0,1,.29.1.37.37,0,0,1,.12.3Z"/><path class="cls-1" d="M228.34,52.8a.35.35,0,0,1-.28-.14.39.39,0,0,1-.11-.27v-5.1h-3.13v5.1a.39.39,0,0,1-.11.27.35.35,0,0,1-.28.14h-.6a.35.35,0,0,1-.28-.14.39.39,0,0,1-.11-.27V41.24a.39.39,0,0,1,.11-.27.37.37,0,0,1,.28-.13h.58a.32.32,0,0,1,.28.13.38.38,0,0,1,.1.27v4.7H228v-4.7a.39.39,0,0,1,.11-.27.35.35,0,0,1,.27-.13h.58a.33.33,0,0,1,.29.13.43.43,0,0,1,.1.27V52.39a.38.38,0,0,1-.1.27.37.37,0,0,1-.29.14Z"/><path class="cls-1" d="M237.66,52.4a.36.36,0,0,1-.12.29.44.44,0,0,1-.29.11h-4.43a.34.34,0,0,1-.28-.14.39.39,0,0,1-.11-.27V41.24a.39.39,0,0,1,.11-.27.36.36,0,0,1,.28-.13h4.33a.45.45,0,0,1,.28.1.38.38,0,0,1,.13.3v.57a.34.34,0,0,1-.13.28.39.39,0,0,1-.28.11h-3.37v3.74h2.9a.48.48,0,0,1,.28.1.39.39,0,0,1,.13.29v.58a.34.34,0,0,1-.13.27.39.39,0,0,1-.28.12h-2.9v4.15h3.46a.4.4,0,0,1,.28.1.32.32,0,0,1,.13.28Z"/><path class="cls-1" d="M246,52.4a.28.28,0,0,1,0,.28.29.29,0,0,1-.23.12H245a.36.36,0,0,1-.27-.12,1.12,1.12,0,0,1-.16-.28l-2.33-5.53-.81,1.45v4a.37.37,0,0,1-.11.28.43.43,0,0,1-.28.11h-.57a.34.34,0,0,1-.27-.12.36.36,0,0,1-.12-.27V41.24a.36.36,0,0,1,.12-.28.38.38,0,0,1,.27-.12h.57a.39.39,0,0,1,.39.4v4.84l2.9-5a1.84,1.84,0,0,1,.17-.22.42.42,0,0,1,.27-.07h.88a.3.3,0,0,1,.16.05.16.16,0,0,1,.08.13.37.37,0,0,1-.06.21l-2.65,4.44Z"/></svg>