<?xml version="1.0" encoding="UTF-8" standalone="no"?>
<!-- Generator: Adobe Illustrator 25.3.1, SVG Export Plug-In . SVG Version: 6.00 Build 0)  -->

<svg
   xmlns:dc="http://purl.org/dc/elements/1.1/"
   xmlns:cc="http://creativecommons.org/ns#"
   xmlns:rdf="http://www.w3.org/1999/02/22-rdf-syntax-ns#"
   xmlns:svg="http://www.w3.org/2000/svg"
   xmlns="http://www.w3.org/2000/svg"
   xmlns:sodipodi="http://sodipodi.sourceforge.net/DTD/sodipodi-0.dtd"
   xmlns:inkscape="http://www.inkscape.org/namespaces/inkscape"
   version="1.1"
   x="0px"
   y="0px"
   width="306.6431"
   height="61.140907"
   viewBox="0 0 306.6431 61.140907"
   xml:space="preserve"
   id="svg467"
   sodipodi:docname="logo.svg"
   inkscape:version="0.92.3 (2405546, 2018-03-11)"><metadata
   id="metadata473"><rdf:RDF><cc:Work
       rdf:about=""><dc:format>image/svg+xml</dc:format><dc:type
         rdf:resource="http://purl.org/dc/dcmitype/StillImage" /><dc:title></dc:title></cc:Work></rdf:RDF></metadata><defs
   id="defs471">
		
		
		
		
		
		
		
		
		
		
		
		
		
		
		
		
		
		
		
		
		
		
		
		
		
		
		
		
		
		
		
		
		
		
		
		
		
		
		
		
		
		
		
		
		
		
		
		
		
		
		
		
		
		
		
		
		
		
		
		
		
		
		
		
		
		
		
	</defs><sodipodi:namedview
   pagecolor="#ffffff"
   bordercolor="#666666"
   borderopacity="1"
   objecttolerance="10"
   gridtolerance="10"
   guidetolerance="10"
   inkscape:pageopacity="0"
   inkscape:pageshadow="2"
   inkscape:window-width="3815"
   inkscape:window-height="2079"
   id="namedview469"
   showgrid="false"
   inkscape:zoom="2.9038518"
   inkscape:cx="126.89026"
   inkscape:cy="1.0813169"
   inkscape:window-x="25"
   inkscape:window-y="27"
   inkscape:window-maximized="1"
   inkscape:current-layer="text1117"
   fit-margin-top="0"
   fit-margin-left="0"
   fit-margin-right="0"
   fit-margin-bottom="0" />
<style
   type="text/css"
   id="style2">
	.st0{display:none;}
	.st1{display:inline;}
	.st2{fill:#555555;}
</style>
<g
   id="Ebene_1"
   class="st0"
   style="display:none">
	<g
   transform="translate(-28.896,77)"
   class="st1"
   id="g328"
   style="display:inline">
		<g
   transform="translate(62.507,-27.983)"
   id="g6">
			<path
   class="st2"
   d="M 0,0 H -2.3 C -3,0 -3.7,-0.3 -4.2,-0.9 -4.6,-1.4 -4.8,-2 -4.8,-2.7 v -43.8 c 0,-0.6 0.3,-1.3 0.7,-1.7 0.4,-0.5 1.1,-0.8 1.8,-0.8 H 0 c 0.8,0 1.5,0.3 2,0.9 0.4,0.5 0.6,1.1 0.6,1.7 V -2.6 C 2.6,-2 2.4,-1.4 2,-0.9 1.5,-0.3 0.8,0 0,0"
   id="path4"
   inkscape:connector-curvature="0"
   style="fill:#555555" />
		</g>
		<g
   transform="translate(42.91,-27.983)"
   id="g10">
			<path
   class="st2"
   d="M 0,0 H -2.3 C -3,0 -3.7,-0.3 -4.2,-0.9 -4.6,-1.4 -4.8,-2 -4.8,-2.7 v -38.9 h -6.6 c -0.6,0 -1.3,-0.3 -1.7,-0.7 -0.6,-0.5 -0.9,-1.2 -0.9,-1.9 v -2.3 c 0,-0.8 0.3,-1.5 0.9,-2 0.5,-0.4 1.1,-0.6 1.7,-0.6 H 9 c 0.6,0 1.3,0.2 1.8,0.6 0.6,0.5 0.9,1.2 0.9,2 v 2.3 c 0,0.7 -0.3,1.4 -0.9,1.9 -0.5,0.4 -1.1,0.7 -1.8,0.7 H 2.6 V -2.7 C 2.6,-2 2.4,-1.4 2,-0.9 1.5,-0.3 0.8,0 0,0"
   id="path8"
   inkscape:connector-curvature="0"
   style="fill:#555555" />
		</g>
		<g
   transform="translate(83.083,-27.983)"
   id="g14">
			<path
   class="st2"
   d="m 0,0 h -9.6 c -0.7,0 -1.4,-0.3 -1.9,-0.9 -0.4,-0.5 -0.7,-1.1 -0.7,-1.8 v -43.8 c 0,-0.8 0.3,-1.5 0.9,-2 0.5,-0.4 1.1,-0.6 1.7,-0.6 h 7.5 c 1.7,0 3.3,0.1 5,0.3 1.3,0.1 2.7,0.6 3.8,1.2 1.8,1 3.2,2.6 4,4.5 0.8,2 1.3,4.1 1.2,6.3 0,3.6 -0.4,6.2 -1.2,7.9 -0.4,0.9 -1,1.7 -1.7,2.4 -0.1,0.1 -0.2,0.2 -0.4,0.3 1.3,0.8 2.3,1.9 2.9,3.3 1,2.4 1.4,4.9 1.3,7.5 0,1.8 -0.1,3.5 -0.3,5.3 -0.2,1.8 -0.8,3.5 -1.7,5 -1,1.6 -2.4,2.9 -4,3.7 -2,1 -4.4,1.5 -6.8,1.4 m -4.8,-7.4 h 4.4 c 0.9,0 1.8,-0.1 2.7,-0.3 0.7,-0.2 1.2,-0.6 1.7,-1.1 0.6,-0.7 0.9,-1.5 1.1,-2.3 0.3,-1.5 0.5,-3 0.4,-4.4 0,-1.2 -0.1,-2.3 -0.5,-3.4 -0.2,-0.7 -0.7,-1.3 -1.2,-1.8 -0.7,-0.5 -1.4,-0.8 -2.2,-0.9 -1.1,-0.3 -2.2,-0.4 -3.4,-0.4 h -3 z m 0,-22 h 3.1 c 0.9,0 1.8,-0.1 2.8,-0.2 0.7,-0.1 1.3,-0.3 1.8,-0.7 0.6,-0.5 1,-1.2 1.2,-1.9 0.4,-1.4 0.6,-2.8 0.5,-4.3 0.1,-1 -0.1,-2 -0.5,-3 -0.2,-0.5 -0.6,-1 -1.1,-1.3 -0.6,-0.4 -1.3,-0.6 -2,-0.6 -0.9,-0.1 -2,-0.1 -3.1,-0.1 h -2.6 v 12.1 z"
   id="path12"
   inkscape:connector-curvature="0"
   style="fill:#555555" />
		</g>
		<g
   transform="translate(113.857,-66.133)"
   id="g18">
			<path
   class="st2"
   d="m 0,0 c 0,0.1 0,0.2 -0.1,0.3 -0.1,0.1 -0.2,0.1 -0.3,0.1 h -3.9 c -0.1,0 -0.2,0 -0.3,-0.1 0,-0.1 0,-0.2 0,-0.3 v -10.3 c 0,-0.1 0,-0.2 0.1,-0.2 0.1,-0.1 0.2,-0.1 0.3,-0.1 h 0.5 c 0.1,0 0.2,0 0.3,0.1 0.1,0.1 0.1,0.2 0.1,0.2 v 9.5 h 3 c 0.1,0 0.2,0 0.3,0.1 0,0 0,0.1 0,0.2 z"
   id="path16"
   inkscape:connector-curvature="0"
   style="fill:#555555" />
		</g>
		<g
   transform="translate(120.599,-66.133)"
   id="g22">
			<path
   class="st2"
   d="m 0,0 c 0,0.1 0,0.2 -0.1,0.3 -0.1,0.1 -0.2,0.1 -0.3,0.1 h -4.1 c -0.1,0 -0.2,0 -0.3,-0.1 0,-0.1 -0.1,-0.2 -0.1,-0.3 v -10.3 c 0,-0.1 0,-0.2 0.1,-0.2 0.1,-0.1 0.2,-0.1 0.3,-0.1 h 4 c 0.1,0 0.2,0 0.3,0.1 0.1,0.1 0.1,0.2 0.1,0.3 v 0.5 c 0,0.1 0,0.2 -0.1,0.3 -0.1,0.1 -0.2,0.1 -0.3,0.1 H -3.6 V -6 h 2.7 c 0.1,0 0.2,0 0.3,0.1 0.1,0.1 0.1,0.2 0.1,0.3 v 0.5 c 0,0.1 0,0.2 -0.1,0.3 -0.1,0.1 -0.2,0.1 -0.3,0.1 h -2.7 v 3.8 h 3.2 c 0.1,0 0.2,0 0.3,0.1 C 0,-0.7 0,-0.6 0,-0.5 Z"
   id="path20"
   inkscape:connector-curvature="0"
   style="fill:#555555" />
		</g>
		<g
   transform="translate(123.391,-65.773)"
   id="g26">
			<path
   class="st2"
   d="m 0,0 c -0.1,0 -0.2,0 -0.3,-0.1 -0.1,-0.1 -0.1,-0.2 -0.1,-0.3 v -10.3 c 0,-0.1 0,-0.2 0.1,-0.2 C -0.2,-11 -0.1,-11 0,-11 h 0.5 c 0.1,0 0.2,0 0.3,0.1 0.1,0.1 0.1,0.2 0.1,0.2 v 10.3 c 0,0.1 0,0.2 -0.1,0.3 C 0.7,0 0.6,0 0.5,0 Z"
   id="path24"
   inkscape:connector-curvature="0"
   style="fill:#555555" />
		</g>
		<g
   transform="translate(129.507,-76.843)"
   id="g30">
			<path
   class="st2"
   d="M 0,0 C 0.4,0 0.8,0 1.1,0.1 1.4,0.1 1.7,0.2 1.9,0.4 2.3,0.6 2.6,0.9 2.7,1.3 3,1.7 3.1,2.2 3.1,2.7 3.1,3.3 3,3.9 2.8,4.5 2.7,4.6 2.6,4.8 2.5,4.9 2.3,5 2.2,5.1 2,5.2 2.5,5.3 2.8,5.6 3,6 3.2,6.5 3.3,7.1 3.3,7.7 3.3,8.1 3.3,8.5 3.2,8.9 3.2,9.3 3,9.7 2.8,10 2.6,10.3 2.3,10.6 2,10.8 1.5,11 1,11.1 0.5,11.1 H -1.8 C -1.9,11.1 -2,11 -2,11 -2.1,10.9 -2.1,10.8 -2.1,10.7 V 0.4 C -2.1,0.3 -2.1,0.2 -2,0.1 -1.9,0 -1.9,0 -1.8,0 Z m -0.9,4.6 h 1 c 0.2,0 0.5,0 0.7,0 C 1,4.6 1.2,4.5 1.4,4.4 1.5,4.2 1.7,4 1.7,3.8 1.8,3.4 1.8,3.1 1.8,2.7 1.8,2.4 1.8,2.1 1.7,1.9 1.6,1.7 1.5,1.6 1.3,1.5 1.1,1.4 0.9,1.3 0.7,1.3 c -0.2,0 -0.5,0 -0.8,0 H -1 v 3.3 z m 0,1.3 v 3.9 h 1.3 c 0.2,0 0.5,0 0.7,-0.1 C 1.3,9.6 1.5,9.5 1.6,9.4 1.8,9.2 1.9,9 1.9,8.8 2,8.4 2.1,8 2.1,7.6 2.1,7.3 2.1,7 2,6.7 1.9,6.5 1.7,6.3 1.6,6.2 1.4,6.1 1.2,6 0.9,6 0.7,5.9 0.4,5.9 0.1,5.9 Z"
   id="path28"
   inkscape:connector-curvature="0"
   style="fill:#555555" />
		</g>
		<g
   transform="translate(136.342,-74.898)"
   id="g34">
			<path
   class="st2"
   d="M 0,0 0.3,3.3 V 8.7 C 0.3,8.8 0.3,8.9 0.2,9 0.1,9.1 0,9.1 -0.1,9.1 H -0.6 C -0.7,9.1 -0.8,9.1 -0.9,9 -1,8.9 -1,8.8 -1,8.7 V -1.6 c 0,-0.1 0,-0.2 0.1,-0.3 C -0.8,-2 -0.7,-2 -0.6,-2 h 0.9 c 0.1,0 0.2,0 0.2,0.1 0,0.1 0.1,0.2 0.1,0.2 L 3.5,7.1 3.4,4 v -5.6 c 0,-0.1 0,-0.2 0.1,-0.3 0,0 0.1,-0.1 0.2,0 h 0.5 c 0.1,0 0.2,0 0.3,0.1 0.1,0.1 0.1,0.2 0.1,0.3 V 8.8 c 0,0.1 0,0.2 -0.1,0.3 0,0 -0.1,0 -0.2,0 h -1 C 3.2,9.1 3.1,9.1 3,9 3,8.9 3,8.9 3,8.8 Z"
   id="path32"
   inkscape:connector-curvature="0"
   style="fill:#555555" />
		</g>
		<g
   transform="translate(144.417,-65.773)"
   id="g38">
			<path
   class="st2"
   d="m 0,0 c -0.1,0 -0.2,0 -0.3,-0.1 -0.1,-0.1 -0.1,-0.2 -0.1,-0.3 v -10.3 c 0,-0.1 0,-0.2 0.1,-0.2 C -0.2,-11 -0.1,-11 0,-11 h 0.5 c 0.1,0 0.2,0 0.3,0.1 0.1,0.1 0.1,0.2 0.1,0.2 v 10.3 c 0,0.1 0,0.2 -0.1,0.3 C 0.7,0 0.6,0 0.5,0 Z"
   id="path36"
   inkscape:connector-curvature="0"
   style="fill:#555555" />
		</g>
		<g
   transform="translate(147.945,-65.773)"
   id="g42">
			<path
   class="st2"
   d="m 0,0 c -0.1,0 -0.2,0 -0.3,-0.1 0,-0.1 -0.1,-0.2 -0.1,-0.3 v -0.8 c 0,-0.1 0,-0.2 0.1,-0.3 0,-0.1 0.1,-0.2 0.1,-0.3 l 3.6,-8 H 0.1 c -0.1,0 -0.2,0 -0.3,-0.1 -0.1,-0.1 -0.1,-0.2 -0.1,-0.3 v -0.5 c 0,-0.1 0,-0.2 0.1,-0.3 0.1,-0.1 0.2,-0.1 0.3,-0.1 h 4.3 c 0.1,0 0.2,0 0.3,0.1 0.1,0.1 0.1,0.2 0.1,0.2 v 0.8 c 0,0.1 0,0.1 0,0.2 0,0.1 0,0.1 -0.1,0.2 L 1,-1.3 h 3.7 c 0.1,0 0.2,0 0.3,0.1 0,0.1 0,0.2 0,0.3 v 0.5 C 5,-0.3 5,-0.2 4.9,-0.1 4.8,0 4.8,0 4.7,0 Z"
   id="path40"
   inkscape:connector-curvature="0"
   style="fill:#555555" />
		</g>
		<g
   transform="translate(155.221,-70.242)"
   id="g46">
			<path
   class="st2"
   d="m 0,0 c -0.1,0 -0.2,0 -0.2,-0.1 -0.1,-0.1 -0.1,-0.2 -0.1,-0.3 v -0.5 c 0,-0.1 0,-0.2 0.1,-0.3 0,0 0.1,-0.1 0.2,-0.1 h 3.3 c 0.1,0 0.2,0 0.3,0.1 0,0.1 0.1,0.2 0.1,0.3 v 0.5 c 0,0.1 0,0.2 -0.1,0.3 C 3.5,0 3.4,0 3.3,0 Z"
   id="path44"
   inkscape:connector-curvature="0"
   style="fill:#555555" />
		</g>
		<g
   transform="translate(162.166,-65.773)"
   id="g50">
			<path
   class="st2"
   d="m 0,0 c -0.1,0 -0.2,0 -0.3,-0.1 -0.1,-0.1 -0.1,-0.2 -0.1,-0.3 v -10.3 c 0,-0.1 0,-0.2 0.1,-0.2 C -0.2,-11 -0.1,-11 0,-11 h 0.5 c 0.1,0 0.2,0 0.3,0.1 0.1,0.1 0.1,0.2 0.1,0.2 v 10.3 c 0,0.1 0,0.2 -0.1,0.3 C 0.7,0 0.6,0 0.5,0 Z"
   id="path48"
   inkscape:connector-curvature="0"
   style="fill:#555555" />
		</g>
		<g
   transform="translate(167.153,-74.898)"
   id="g54">
			<path
   class="st2"
   d="M 0,0 0.2,3.3 V 8.7 C 0.2,8.8 0.2,8.9 0.1,9 0.1,9.1 0,9.1 -0.1,9.1 H -0.6 C -0.7,9.1 -0.8,9.1 -0.9,9 -1,8.9 -1,8.8 -1,8.7 V -1.6 c 0,-0.1 0,-0.2 0.1,-0.3 C -0.8,-2 -0.7,-2 -0.6,-2 h 0.9 c 0.1,0 0.2,0 0.2,0.1 0,0.1 0.1,0.2 0.1,0.2 L 3.5,7.1 3.4,4 v -5.6 c 0,-0.1 0,-0.2 0.1,-0.3 0,0 0.1,-0.1 0.2,0 h 0.5 c 0.1,0 0.2,0 0.3,0.1 0.1,0.1 0.1,0.2 0.1,0.3 V 8.8 c 0,0.1 0,0.2 -0.1,0.3 0,0 -0.1,0 -0.2,0 h -1 C 3.2,9.1 3.1,9.1 3,9 3,8.9 3,8.9 3,8.8 Z"
   id="path52"
   inkscape:connector-curvature="0"
   style="fill:#555555" />
		</g>
		<g
   transform="translate(178.976,-71.229)"
   id="g58">
			<path
   class="st2"
   d="m 0,0 c 0,0.1 0,0.2 -0.1,0.3 -0.1,0.1 -0.2,0.1 -0.3,0.1 h -2.7 v 4.7 c 0,0.1 0,0.2 -0.1,0.3 -0.1,0.1 -0.2,0.1 -0.3,0.1 H -4 c -0.1,0 -0.2,0 -0.3,-0.1 C -4.4,5.3 -4.4,5.2 -4.4,5.1 V -5.3 c 0,-0.1 0,-0.2 0.1,-0.2 0.2,-0.1 0.2,-0.1 0.3,-0.1 h 4 c 0.1,0 0.2,0 0.3,0.1 0.1,0.1 0.1,0.2 0.1,0.3 v 0.5 c 0,0.1 0,0.2 -0.1,0.3 -0.1,0 -0.1,0 -0.2,0 H -3 v 3.5 h 2.7 c 0.1,0 0.2,0 0.3,0.1 0,0.1 0,0.2 0,0.3 z"
   id="path56"
   inkscape:connector-curvature="0"
   style="fill:#555555" />
		</g>
		<g
   transform="translate(183.891,-65.616)"
   id="g62">
			<path
   class="st2"
   d="M 0,0 C -0.5,0 -1,-0.1 -1.4,-0.3 -1.7,-0.5 -2,-0.7 -2.2,-1 c -0.2,-0.3 -0.3,-0.6 -0.4,-0.9 -0.1,-0.3 -0.1,-0.5 -0.1,-0.8 -0.1,-1 -0.1,-2 -0.1,-3 0,-1 0,-1.9 0.1,-3 0,-0.3 0.1,-0.5 0.1,-0.8 0.1,-0.3 0.2,-0.6 0.4,-0.9 0.2,-0.3 0.5,-0.5 0.8,-0.7 0.4,-0.2 0.9,-0.3 1.4,-0.3 0.5,0 1,0.1 1.4,0.3 0.3,0.2 0.6,0.4 0.8,0.7 0.2,0.3 0.3,0.6 0.4,0.9 0.1,0.3 0.1,0.5 0.1,0.8 0.1,1 0.1,2 0.1,3 0,1 0,1.9 -0.1,3 0,0.3 -0.1,0.5 -0.1,0.8 C 2.5,-1.6 2.4,-1.3 2.2,-1 2,-0.7 1.7,-0.5 1.4,-0.3 1,-0.1 0.5,0 0,0 m 0,-10.1 c -0.3,0 -0.5,0 -0.7,0.2 -0.2,0.1 -0.3,0.2 -0.4,0.4 -0.1,0.2 -0.2,0.4 -0.2,0.6 0,0.2 -0.1,0.5 -0.1,0.7 -0.1,0.9 -0.1,1.7 -0.1,2.5 0,0.8 0,1.6 0.1,2.5 0,0.2 0,0.5 0.1,0.7 0,0.2 0.1,0.4 0.2,0.6 0.1,0.2 0.3,0.3 0.4,0.5 0.2,0.1 0.4,0.2 0.7,0.1 0.3,0 0.5,-0.1 0.7,-0.2 0.2,-0.1 0.3,-0.3 0.4,-0.5 0.1,-0.2 0.2,-0.4 0.2,-0.6 0,-0.2 0.1,-0.5 0.1,-0.7 0,-0.9 0.1,-1.7 0.1,-2.5 0,-0.8 0,-1.6 -0.1,-2.5 0,-0.2 0,-0.5 -0.1,-0.7 C 1.3,-9.2 1.2,-9.4 1.1,-9.6 1,-9.7 0.9,-9.8 0.7,-10 0.5,-10.1 0.3,-10.1 0,-10.1"
   id="path60"
   inkscape:connector-curvature="0"
   style="fill:#555555" />
		</g>
		<g
   transform="translate(194.641,-66.133)"
   id="g66">
			<path
   class="st2"
   d="M 0,0 C 0,0.1 0,0.2 0,0.2 -0.1,0.3 -0.2,0.3 -0.3,0.3 H -0.9 C -1,0.3 -1.1,0.3 -1.1,0.2 -1.3,0.2 -1.3,0.1 -1.3,0 L -2.8,-4.8 H -4.2 V 0 c 0,0.1 0,0.2 -0.1,0.2 -0.1,0.1 -0.2,0.1 -0.3,0.1 h -0.5 c -0.1,0 -0.2,0 -0.3,-0.1 0,0 -0.1,-0.1 -0.1,-0.2 v -10.3 c 0,-0.1 0,-0.2 0.1,-0.3 0.1,-0.1 0.2,-0.1 0.2,-0.1 h 1.9 c 0.5,0 1,0 1.6,0.2 0.4,0.1 0.8,0.3 1,0.7 0.2,0.3 0.3,0.6 0.4,0.9 0.1,0.4 0.1,0.8 0.1,1.2 0,0.6 -0.1,1.2 -0.3,1.7 -0.2,0.4 -0.6,0.7 -1.1,0.9 z m -4.2,-6.1 h 1 c 0.2,0 0.5,0 0.7,0 0.2,0 0.4,-0.1 0.5,-0.2 0.1,-0.1 0.2,-0.1 0.3,-0.2 0.1,-0.1 0.1,-0.2 0.2,-0.3 0,-0.1 0.1,-0.2 0.1,-0.4 0,-0.2 0,-0.4 0,-0.5 0,-0.3 0,-0.7 -0.1,-1 -0.1,-0.3 -0.3,-0.4 -0.4,-0.6 -0.1,0 -0.2,-0.1 -0.2,-0.1 -0.1,0 -0.2,0 -0.4,-0.1 -0.2,0 -0.4,0 -0.6,0 h -1 v 3.4 z"
   id="path64"
   inkscape:connector-curvature="0"
   style="fill:#555555" />
		</g>
		<g
   transform="translate(198.168,-75.055)"
   id="g70">
			<path
   class="st2"
   d="m 0,0 v 0 l 0.1,4.8 v 4.1 c 0,0.1 0,0.2 -0.1,0.3 0,0 -0.1,0.1 -0.2,0.1 H -0.7 C -0.8,9.3 -0.9,9.3 -1,9.2 -1.1,9.1 -1.1,9 -1.1,8.9 V -1.4 c 0,-0.1 0,-0.2 0.1,-0.2 0,-0.1 0.1,-0.2 0.2,-0.2 h 1 c 0.1,0 0.2,0 0.3,0.1 0.1,0.1 0.1,0.2 0.1,0.3 l 1.2,5 0.3,1.7 h 0.1 l 0.3,-1.7 1.2,-5 c 0,-0.3 0.1,-0.4 0.3,-0.4 h 1 c 0.1,0 0.2,0 0.3,0.1 0.1,0.1 0.1,0.2 0.1,0.2 V 8.9 C 5.4,9 5.4,9.1 5.3,9.2 5.2,9.2 5.1,9.3 5,9.3 H 4.5 C 4.4,9.3 4.3,9.3 4.3,9.2 4.2,9.1 4.1,9 4.1,8.9 V 4.8 L 4.3,0 V 0 L 2.8,6.8 C 2.8,6.9 2.7,7 2.7,7.1 2.6,7.2 2.5,7.2 2.4,7.2 H 1.9 C 1.8,7.2 1.7,7.2 1.7,7.1 1.6,7 1.5,6.9 1.5,6.8 Z"
   id="path68"
   inkscape:connector-curvature="0"
   style="fill:#555555" />
		</g>
		<g
   transform="translate(209.002,-76.843)"
   id="g74">
			<path
   class="st2"
   d="m 0,0 c 0.2,0 0.3,0.1 0.4,0.4 l 2.1,10.3 c 0,0.1 0,0.2 0,0.3 -0.1,0.1 -0.2,0.1 -0.3,0.1 H 1.5 C 1.3,11.1 1.2,11 1.1,10.7 L 0.8,8.9 h -2.1 l -0.4,1.8 c 0,0.2 -0.2,0.4 -0.4,0.4 h -0.6 c -0.1,0 -0.2,0 -0.3,-0.1 -0.1,-0.1 -0.1,-0.2 0,-0.3 L -1,0.4 C -1,0.3 -0.9,0.2 -0.9,0.1 -0.8,0 -0.7,0 -0.6,0 Z M 0.5,7.6 -0.1,3.7 -0.3,1.6 h -0.1 l -0.2,2.1 -0.6,3.9 z"
   id="path72"
   inkscape:connector-curvature="0"
   style="fill:#555555" />
		</g>
		<g
   transform="translate(217.878,-75.949)"
   id="g78">
			<path
   class="st2"
   d="m 0,0 c 0,0.1 0,0.2 -0.1,0.3 -0.1,0.1 -0.2,0.1 -0.3,0.1 h -1.8 v 9.4 c 0,0.1 0,0.2 -0.1,0.3 -0.1,0.1 -0.2,0.1 -0.3,0.1 H -3 c -0.1,0 -0.2,0 -0.3,-0.1 C -3.4,10 -3.4,9.9 -3.4,9.8 V 0.4 h -1.8 c -0.1,0 -0.2,0 -0.2,-0.1 C -5.5,0.2 -5.6,0.1 -5.6,0 v -0.5 c 0,-0.1 0,-0.2 0.1,-0.3 0.1,-0.1 0.2,-0.1 0.2,-0.1 h 4.8 c 0.1,0 0.2,0 0.3,0.1 C 0,-0.7 0,-0.6 0,-0.5 Z"
   id="path76"
   inkscape:connector-curvature="0"
   style="fill:#555555" />
		</g>
		<g
   transform="translate(220.435,-65.773)"
   id="g82">
			<path
   class="st2"
   d="m 0,0 c -0.1,0 -0.2,0 -0.3,-0.1 -0.1,-0.1 -0.1,-0.2 -0.1,-0.3 v -10.3 c 0,-0.1 0,-0.2 0.1,-0.2 C -0.2,-11 -0.1,-11 0,-11 h 0.5 c 0.1,0 0.2,0 0.3,0.1 0.1,0.1 0.1,0.2 0.1,0.2 v 10.3 c 0,0.1 0,0.2 -0.1,0.3 C 0.7,0 0.6,0 0.5,0 Z"
   id="path80"
   inkscape:connector-curvature="0"
   style="fill:#555555" />
		</g>
		<g
   transform="translate(226.824,-65.616)"
   id="g86">
			<path
   class="st2"
   d="M 0,0 C -0.5,0 -1,-0.1 -1.4,-0.3 -1.7,-0.5 -2,-0.7 -2.2,-1 c -0.2,-0.3 -0.3,-0.6 -0.4,-0.9 -0.1,-0.3 -0.1,-0.5 -0.1,-0.8 -0.1,-1 -0.1,-2 -0.1,-3 0,-1 0,-1.9 0.1,-3 0,-0.3 0.1,-0.5 0.1,-0.8 0.1,-0.3 0.2,-0.6 0.4,-0.9 0.2,-0.3 0.5,-0.5 0.8,-0.7 0.4,-0.2 0.9,-0.3 1.4,-0.3 0.5,0 1,0.1 1.4,0.3 0.3,0.2 0.6,0.4 0.8,0.7 0.2,0.3 0.3,0.6 0.4,0.9 0.1,0.3 0.1,0.5 0.1,0.8 0.1,1 0.1,2 0.1,3 0,1 0,1.9 -0.1,3 0,0.3 -0.1,0.5 -0.1,0.8 C 2.5,-1.6 2.4,-1.3 2.2,-1 2,-0.7 1.7,-0.5 1.4,-0.3 1,-0.1 0.5,0 0,0 m 0,-10.1 c -0.3,0 -0.5,0 -0.7,0.2 -0.2,0.1 -0.3,0.2 -0.4,0.4 -0.1,0.2 -0.2,0.4 -0.2,0.6 0,0.2 -0.1,0.5 -0.1,0.7 -0.1,0.9 -0.1,1.7 -0.1,2.5 0,0.8 0,1.6 0.1,2.5 0,0.2 0,0.5 0.1,0.7 0,0.2 0.1,0.4 0.2,0.6 0.1,0.2 0.3,0.3 0.4,0.5 0.2,0.1 0.4,0.2 0.7,0.1 0.3,0 0.5,-0.1 0.7,-0.2 0.2,-0.1 0.3,-0.3 0.4,-0.5 0.1,-0.2 0.2,-0.4 0.2,-0.6 0,-0.2 0.1,-0.5 0.1,-0.7 0,-0.9 0.1,-1.7 0.1,-2.5 0,-0.8 0,-1.6 -0.1,-2.5 0,-0.2 0,-0.5 -0.1,-0.7 C 1.3,-9.2 1.2,-9.4 1.1,-9.6 1,-9.7 0.9,-9.8 0.7,-10 0.5,-10.1 0.3,-10.1 0,-10.1"
   id="path84"
   inkscape:connector-curvature="0"
   style="fill:#555555" />
		</g>
		<g
   transform="translate(233.104,-74.898)"
   id="g90">
			<path
   class="st2"
   d="M 0,0 0.3,3.3 V 8.7 C 0.3,8.8 0.3,8.9 0.2,9 0.1,9.1 0,9.1 -0.1,9.1 H -0.6 C -0.7,9.1 -0.8,9.1 -0.9,9 -1,8.9 -1,8.8 -1,8.7 V -1.6 c 0,-0.1 0,-0.2 0.1,-0.3 C -0.8,-2 -0.7,-2 -0.6,-2 h 0.9 c 0.1,0 0.2,0 0.2,0.1 0,0.1 0.1,0.2 0.1,0.2 L 3.5,7.1 3.4,4 v -5.6 c 0,-0.1 0,-0.2 0.1,-0.3 0,0 0.1,-0.1 0.2,0 h 0.5 c 0.1,0 0.2,0 0.3,0.1 0.1,0.1 0.1,0.2 0.1,0.3 V 8.8 c 0,0.1 0,0.2 -0.1,0.3 0,0 -0.1,0 -0.2,0 h -1 C 3.2,9.1 3.1,9.1 3,9 3,8.9 3,8.9 3,8.8 Z"
   id="path88"
   inkscape:connector-curvature="0"
   style="fill:#555555" />
		</g>
		<g
   transform="translate(245.554,-68.83)"
   id="g94">
			<path
   class="st2"
   d="M 0,0 C 0.1,0.9 -0.2,1.7 -0.7,2.4 -1.3,3 -2,3.3 -2.8,3.2 -3.3,3.2 -3.7,3.1 -4.2,2.9 -4.5,2.8 -4.8,2.5 -5,2.2 -5.2,1.9 -5.4,1.5 -5.4,1.1 -5.5,0.7 -5.5,0.3 -5.5,-0.2 v -0.2 c 0,-0.1 0,-0.2 0.1,-0.3 0.1,-0.1 0.2,-0.1 0.3,-0.1 h 0.5 c 0.1,0 0.2,0 0.2,0.1 0.1,0.1 0.1,0.2 0.1,0.3 v 0.2 c 0,0.3 0,0.7 0.1,1 0,0.3 0.2,0.5 0.3,0.7 0.1,0.2 0.3,0.3 0.5,0.3 0.2,0.1 0.4,0.2 0.6,0.2 0.4,0 0.8,-0.2 1.1,-0.4 0.3,-0.4 0.5,-0.9 0.4,-1.5 0,-0.4 -0.1,-0.7 -0.3,-1 -0.2,-0.3 -0.4,-0.6 -0.7,-0.8 -0.3,-0.2 -0.7,-0.5 -1,-0.7 -0.4,-0.2 -0.7,-0.5 -1,-0.8 -0.3,-0.3 -0.6,-0.6 -0.8,-1 -0.2,-0.4 -0.3,-0.9 -0.3,-1.4 0,-0.3 0.1,-0.7 0.2,-1 0,-0.3 0.2,-0.5 0.4,-0.8 0.2,-0.2 0.5,-0.4 0.8,-0.6 0.4,-0.1 0.7,-0.2 1.1,-0.2 0.4,0 0.8,0.1 1.1,0.2 0.3,0.1 0.6,0.3 0.8,0.6 0.2,0.2 0.4,0.5 0.5,0.8 0.2,0.3 0.2,0.6 0.2,0.9 v 0.1 c 0,0.1 0,0.2 -0.1,0.3 -0.1,0.1 -0.2,0.1 -0.3,0.1 h -0.5 c -0.1,0 -0.2,0 -0.3,-0.1 -0.1,-0.1 -0.1,-0.2 -0.1,-0.2 v 0 c 0,-0.4 -0.1,-0.7 -0.4,-1 -0.2,-0.3 -0.6,-0.4 -0.9,-0.4 -0.2,0 -0.4,0 -0.6,0.1 -0.2,0.1 -0.3,0.2 -0.4,0.3 -0.1,0.1 -0.2,0.3 -0.2,0.4 0,0.2 -0.1,0.3 -0.1,0.5 0,0.4 0.1,0.7 0.3,1 0.3,0.3 0.5,0.6 0.8,0.8 0.3,0.3 0.6,0.5 1,0.7 0.4,0.2 0.7,0.5 1,0.8 0.3,0.3 0.6,0.6 0.8,1 C -0.1,-0.9 0,-0.5 0,0"
   id="path92"
   inkscape:connector-curvature="0"
   style="fill:#555555" />
		</g>
		<g
   transform="translate(247.325,-65.773)"
   id="g98">
			<path
   class="st2"
   d="m 0,0 c -0.1,0 -0.2,0 -0.3,-0.1 0,-0.1 -0.1,-0.2 -0.1,-0.3 v -0.8 c 0,-0.1 0,-0.2 0.1,-0.3 0,-0.1 0.1,-0.2 0.1,-0.3 l 3.6,-8 H 0.1 c -0.1,0 -0.2,0 -0.3,-0.1 -0.1,-0.1 -0.1,-0.2 -0.1,-0.3 v -0.5 c 0,-0.1 0,-0.2 0.1,-0.3 0.1,-0.1 0.2,-0.1 0.3,-0.1 h 4.3 c 0.1,0 0.2,0 0.3,0.1 0.1,0.1 0.1,0.2 0.1,0.2 v 0.8 c 0,0.1 0,0.1 0,0.2 0,0.1 0,0.1 -0.1,0.2 L 1,-1.3 h 3.7 c 0.1,0 0.2,0 0.3,0.1 0,0.1 0,0.2 0,0.3 v 0.5 C 5,-0.3 5,-0.2 4.9,-0.1 4.8,0 4.8,0 4.7,0 Z"
   id="path96"
   inkscape:connector-curvature="0"
   style="fill:#555555" />
		</g>
		<g
   transform="translate(259.289,-66.133)"
   id="g102">
			<path
   class="st2"
   d="m 0,0 c 0,0.1 0,0.2 -0.1,0.3 -0.1,0.1 -0.2,0.1 -0.3,0.1 h -4.1 c -0.1,0 -0.2,0 -0.3,-0.1 0,-0.1 -0.1,-0.2 -0.1,-0.3 v -10.3 c 0,-0.1 0,-0.2 0.1,-0.2 0.1,-0.1 0.2,-0.1 0.3,-0.1 h 4 c 0.1,0 0.2,0 0.3,0.1 0.1,0.1 0.1,0.2 0.1,0.3 v 0.5 c 0,0.1 0,0.2 -0.1,0.3 -0.1,0.1 -0.2,0.1 -0.3,0.1 H -3.6 V -6 h 2.7 c 0.1,0 0.2,0 0.3,0.1 0.1,0.1 0.1,0.2 0.1,0.3 v 0.5 c 0,0.1 0,0.2 -0.1,0.3 -0.1,0.1 -0.2,0.1 -0.3,0.1 h -2.7 v 3.8 h 3.2 c 0.1,0 0.2,0 0.3,0.1 C 0,-0.7 0,-0.6 0,-0.5 Z"
   id="path100"
   inkscape:connector-curvature="0"
   style="fill:#555555" />
		</g>
		<g
   transform="translate(262.519,-74.898)"
   id="g106">
			<path
   class="st2"
   d="M 0,0 0.3,3.3 V 8.7 C 0.3,8.8 0.3,8.9 0.2,9 0.1,9.1 0,9.1 -0.1,9.1 H -0.6 C -0.7,9.1 -0.8,9.1 -0.9,9 -1,8.9 -1,8.8 -1,8.7 V -1.6 c 0,-0.1 0,-0.2 0.1,-0.3 C -0.8,-2 -0.7,-2 -0.6,-2 h 0.9 c 0.1,0 0.2,0 0.2,0.1 0,0.1 0.1,0.2 0.1,0.2 L 3.5,7.1 3.4,4 v -5.6 c 0,-0.1 0,-0.2 0.1,-0.3 0,0 0.1,-0.1 0.2,0 h 0.5 c 0.1,0 0.2,0 0.3,0.1 0.1,0.1 0.1,0.2 0.1,0.3 V 8.8 c 0,0.1 0,0.2 -0.1,0.3 0,0 -0.1,0 -0.2,0 h -1 C 3.2,9.1 3.1,9.1 3,9 3,8.9 3,8.9 3,8.8 Z"
   id="path104"
   inkscape:connector-curvature="0"
   style="fill:#555555" />
		</g>
		<g
   transform="translate(274.704,-75.949)"
   id="g110">
			<path
   class="st2"
   d="m 0,0 c 0,0.1 0,0.2 -0.1,0.3 -0.1,0.1 -0.2,0.1 -0.3,0.1 h -1.8 v 9.4 c 0,0.1 0,0.2 -0.1,0.3 -0.1,0.1 -0.2,0.1 -0.3,0.1 H -3 c -0.1,0 -0.2,0 -0.3,-0.1 C -3.4,10 -3.4,9.9 -3.4,9.8 V 0.4 h -1.8 c -0.1,0 -0.2,0 -0.2,-0.1 C -5.5,0.2 -5.6,0.1 -5.6,0 v -0.5 c 0,-0.1 0,-0.2 0.1,-0.3 0.1,-0.1 0.2,-0.1 0.2,-0.1 h 4.8 c 0.1,0 0.2,0 0.3,0.1 C 0,-0.7 0,-0.6 0,-0.5 Z"
   id="path108"
   inkscape:connector-curvature="0"
   style="fill:#555555" />
		</g>
		<g
   transform="translate(282.167,-66.133)"
   id="g114">
			<path
   class="st2"
   d="M 0,0 C 0,0.1 0,0.2 0,0.2 -0.1,0.3 -0.2,0.3 -0.3,0.3 H -0.9 C -1,0.3 -1.1,0.3 -1.2,0.2 -1.3,0.2 -1.3,0.1 -1.3,0 L -2.8,-4.8 H -4.2 V 0 c 0,0.1 0,0.2 -0.1,0.2 -0.1,0.1 -0.2,0.1 -0.3,0.1 h -0.5 c -0.1,0 -0.2,0 -0.3,-0.1 0,0 -0.1,-0.1 -0.1,-0.2 v -10.3 c 0,-0.1 0,-0.2 0.1,-0.3 0.1,-0.1 0.2,-0.1 0.2,-0.1 h 1.9 c 0.5,0 1,0 1.6,0.2 0.4,0.1 0.8,0.3 1,0.7 0.2,0.3 0.3,0.6 0.4,0.9 0.1,0.4 0.1,0.8 0.1,1.2 0,0.6 -0.1,1.2 -0.3,1.7 -0.2,0.4 -0.6,0.8 -1.1,0.9 z m -4.2,-6.1 h 1 c 0.2,0 0.5,0 0.7,0 0.2,0 0.4,-0.1 0.5,-0.2 0.1,-0.1 0.2,-0.1 0.2,-0.2 0.1,-0.1 0.1,-0.2 0.2,-0.3 0,-0.1 0.1,-0.2 0.1,-0.4 0,-0.2 0,-0.4 0,-0.5 0,-0.3 0,-0.7 -0.1,-1 0,-0.3 -0.2,-0.4 -0.3,-0.6 -0.1,0 -0.2,-0.1 -0.2,-0.1 -0.1,0 -0.2,0 -0.4,-0.1 -0.2,0 -0.4,0 -0.6,0 h -1 v 3.4 z"
   id="path112"
   inkscape:connector-curvature="0"
   style="fill:#555555" />
		</g>
		<g
   transform="translate(285.585,-68.736)"
   id="g118">
			<path
   class="st2"
   d="m 0,0 c 0,0.2 0,0.5 0.1,0.7 0,0.2 0.1,0.4 0.2,0.6 0.1,0.2 0.3,0.3 0.4,0.4 0.2,0.1 0.5,0.2 0.8,0.2 0.3,0 0.5,0 0.8,-0.2 C 2.5,1.6 2.6,1.5 2.7,1.3 2.8,1.1 2.9,0.9 2.9,0.7 2.9,0.5 2.9,0.2 2.9,0 v -7.7 c 0,-0.1 0,-0.2 0.1,-0.3 0.1,-0.1 0.2,-0.1 0.3,-0.1 h 0.5 c 0.1,0 0.2,0 0.3,0.1 0.1,0.1 0.1,0.2 0.1,0.3 V 0.5 C 4.2,0.8 4.2,1 4.1,1.3 4,1.6 3.9,1.9 3.7,2.1 3.5,2.4 3.2,2.7 2.9,2.8 2.4,3 1.9,3.1 1.4,3.1 0.9,3.1 0.4,3 0,2.8 -0.3,2.6 -0.6,2.4 -0.8,2.1 -1,1.9 -1.1,1.6 -1.2,1.3 -1.3,1.1 -1.3,0.8 -1.3,0.6 v -8.4 c 0,-0.1 0,-0.2 0.1,-0.3 0.1,0 0.2,0 0.3,0 h 0.5 c 0.1,0 0.2,0 0.3,0.1 C 0,-7.9 0,-7.8 0,-7.7 Z"
   id="path116"
   inkscape:connector-curvature="0"
   style="fill:#555555" />
		</g>
		<g
   transform="translate(293.613,-75.055)"
   id="g122">
			<path
   class="st2"
   d="m 0,0 v 0 l 0.1,4.8 v 4.1 c 0,0.1 0,0.2 -0.1,0.3 0,0 -0.1,0.1 -0.2,0.1 H -0.7 C -0.8,9.3 -0.9,9.3 -1,9.2 -1.1,9.1 -1.1,9 -1.1,8.9 V -1.4 c 0,-0.1 0,-0.2 0.1,-0.2 0,-0.1 0.1,-0.2 0.2,-0.2 h 1 c 0.1,0 0.2,0 0.2,0.1 0.1,0.1 0.1,0.2 0.1,0.3 l 1.2,5 0.3,1.7 h 0.1 l 0.3,-1.7 1.2,-5 C 3.7,-1.7 3.8,-1.8 4,-1.8 h 1 c 0.1,0 0.2,0 0.3,0.1 0.1,0.1 0.1,0.2 0.1,0.2 V 8.9 C 5.4,9 5.4,9.1 5.3,9.2 5.2,9.2 5.1,9.3 5,9.3 H 4.5 C 4.4,9.3 4.3,9.3 4.2,9.2 4.2,9.1 4.1,9 4.1,8.9 V 4.8 L 4.3,0 V 0 L 2.8,6.8 C 2.8,6.9 2.8,7 2.7,7.1 2.6,7.2 2.5,7.2 2.4,7.2 H 1.9 C 1.8,7.2 1.7,7.2 1.7,7.1 1.6,7 1.5,6.9 1.5,6.8 Z"
   id="path120"
   inkscape:connector-curvature="0"
   style="fill:#555555" />
		</g>
		<g
   transform="translate(113.888,-57.132)"
   id="g126">
			<path
   class="st2"
   d="m 0,0 c 0,0.1 0,0.2 -0.1,0.3 -0.1,0.1 -0.2,0.1 -0.3,0.1 h -1.8 v 9.4 c 0,0.1 0,0.2 -0.1,0.3 -0.1,0.1 -0.2,0.1 -0.3,0.1 H -3 c -0.1,0 -0.2,0 -0.3,-0.1 C -3.4,10 -3.4,9.9 -3.4,9.8 V 0.4 h -1.8 c -0.1,0 -0.2,0 -0.2,-0.1 C -5.5,0.2 -5.6,0.1 -5.6,0 v -0.5 c 0,-0.1 0,-0.2 0.1,-0.3 0.1,-0.1 0.2,-0.1 0.2,-0.1 h 4.8 c 0.1,0 0.2,0 0.3,0.1 C 0,-0.7 0,-0.6 0,-0.5 Z"
   id="path124"
   inkscape:connector-curvature="0"
   style="fill:#555555" />
		</g>
		<g
   transform="translate(120.741,-47.317)"
   id="g130">
			<path
   class="st2"
   d="m 0,0 c 0,0.1 0,0.2 -0.1,0.3 -0.1,0.1 -0.2,0.1 -0.3,0.1 h -4.1 c -0.1,0 -0.2,0 -0.3,-0.1 0,-0.1 -0.1,-0.2 -0.1,-0.3 v -10.3 c 0,-0.1 0,-0.2 0.1,-0.2 0.1,-0.1 0.2,-0.1 0.3,-0.1 h 4 c 0.1,0 0.2,0 0.3,0.1 0.1,0.1 0.1,0.2 0.1,0.3 v 0.5 c 0,0.1 0,0.2 -0.1,0.3 -0.1,0.1 -0.2,0.1 -0.3,0.1 H -3.6 V -6 h 2.7 c 0.1,0 0.2,0 0.3,0.1 0.1,0.1 0.1,0.2 0.1,0.3 v 0.5 c 0,0.1 0,0.2 -0.1,0.3 -0.1,0.1 -0.2,0.1 -0.3,0.1 h -2.7 v 3.8 h 3.2 c 0.1,0 0.2,0 0.3,0.1 C 0,-0.7 0,-0.6 0,-0.5 Z"
   id="path128"
   inkscape:connector-curvature="0"
   style="fill:#555555" />
		</g>
		<g
   transform="translate(127.969,-55.172)"
   id="g134">
			<path
   class="st2"
   d="M 0,0 C 0,0.1 0,0.2 -0.1,0.3 -0.2,0.4 -0.3,0.4 -0.4,0.4 H -0.9 C -1,0.4 -1.1,0.4 -1.2,0.3 -1.2,0.2 -1.3,0.1 -1.3,0 v -0.2 c 0,-0.2 0,-0.4 -0.1,-0.6 0,-0.2 -0.1,-0.3 -0.2,-0.5 -0.1,-0.1 -0.2,-0.3 -0.4,-0.4 -0.2,-0.1 -0.4,-0.1 -0.6,-0.1 -0.3,0 -0.5,0 -0.7,0.2 -0.2,0.1 -0.3,0.2 -0.4,0.4 -0.1,0.2 -0.2,0.4 -0.2,0.6 0,0.2 -0.1,0.5 -0.1,0.7 0,0.5 0,0.9 -0.1,1.3 -0.1,0.4 0,0.8 0,1.2 0,0.4 0,0.8 0,1.2 0,0.4 0.1,0.9 0.1,1.3 0,0.2 0,0.5 0.1,0.7 0,0.2 0.1,0.4 0.2,0.6 0.1,0.2 0.3,0.3 0.4,0.5 0.3,0.2 0.5,0.2 0.8,0.2 0.2,0 0.5,0 0.7,-0.2 0.2,-0.1 0.3,-0.2 0.4,-0.4 0.1,-0.2 0.2,-0.4 0.2,-0.6 0,-0.2 0.1,-0.5 0.1,-0.7 V 4.7 c 0,-0.1 0,-0.2 0.1,-0.3 0,-0.1 0.1,-0.1 0.2,-0.1 h 0.5 c 0.1,0 0.2,0 0.3,0.1 0.1,0.1 0.1,0.2 0.1,0.3 V 5.8 C 0.1,6.1 0.1,6.3 0,6.6 -0.1,6.9 -0.2,7.2 -0.4,7.5 -0.6,7.8 -0.9,8 -1.2,8.2 -1.6,8.4 -2.1,8.5 -2.6,8.5 -3.1,8.5 -3.5,8.4 -4,8.2 -4.3,8 -4.6,7.8 -4.8,7.5 -5,7.2 -5.1,6.9 -5.2,6.6 c 0,-0.4 0,-0.6 0,-0.9 0,-0.5 -0.1,-1 -0.1,-1.5 0,-0.5 0,-1 0,-1.5 0,-0.5 0,-1 0,-1.5 0,-0.5 0,-1 0.1,-1.5 0,-0.3 0,-0.5 0.1,-0.8 0,-0.3 0.1,-0.6 0.3,-0.9 0.2,-0.3 0.5,-0.5 0.8,-0.7 0.5,-0.2 1,-0.3 1.5,-0.3 0.5,0 0.9,0.1 1.3,0.3 0.3,0.2 0.5,0.4 0.7,0.7 0.2,0.2 0.3,0.5 0.4,0.8 C 0,-1 0,-0.8 0,-0.5 Z"
   id="path132"
   inkscape:connector-curvature="0"
   style="fill:#555555" />
		</g>
		<g
   transform="translate(134.804,-46.956)"
   id="g138">
			<path
   class="st2"
   d="m 0,0 c -0.1,0 -0.2,0 -0.3,-0.1 -0.1,-0.1 -0.1,-0.2 -0.1,-0.3 v -4.7 h -2.9 v 4.7 c 0,0.1 0,0.2 -0.1,0.3 C -3.4,0 -3.5,0 -3.6,0 h -0.5 c -0.1,0 -0.2,0 -0.3,-0.1 -0.1,-0.1 -0.1,-0.2 -0.1,-0.3 v -10.3 c 0,-0.1 0,-0.2 0.1,-0.2 0.1,-0.1 0.2,-0.1 0.3,-0.1 h 0.5 c 0.1,0 0.2,0 0.3,0.1 0.1,0.1 0.1,0.2 0.1,0.2 v 4.4 h 2.9 v -4.4 c 0,-0.1 0,-0.2 0.1,-0.2 C -0.1,-11 0,-11 0.1,-11 h 0.5 c 0.1,0 0.2,0 0.3,0.1 0.1,0.1 0.1,0.2 0.1,0.2 V -0.4 C 1,-0.3 1,-0.2 0.9,-0.1 0.7,0 0.6,0 0.5,0 Z"
   id="path136"
   inkscape:connector-curvature="0"
   style="fill:#555555" />
		</g>
		<g
   transform="translate(139.588,-56.082)"
   id="g142">
			<path
   class="st2"
   d="M 0,0 0.2,3.3 V 8.7 C 0.2,8.8 0.2,8.9 0.1,9 0.1,9.1 0,9.1 -0.1,9.1 H -0.6 C -0.7,9.1 -0.8,9.1 -0.9,9 -1,8.9 -1,8.8 -1,8.8 V -1.6 c 0,-0.1 0,-0.2 0.1,-0.2 0.1,-0.1 0.2,-0.1 0.3,-0.1 h 0.9 c 0.1,0 0.2,0 0.2,0.1 0,0.1 0.1,0.2 0.1,0.2 L 3.5,7.2 3.4,4 v -5.6 c 0,-0.1 0,-0.2 0.1,-0.3 0,0 0.1,-0.1 0.2,0 h 0.5 c 0.1,0 0.2,0 0.3,0.1 0.1,0.1 0.1,0.2 0.1,0.3 V 8.8 c 0,0.1 0,0.2 -0.1,0.3 0,0 -0.1,0 -0.2,0 h -1 C 3.2,9.1 3.1,9.1 3,9 3,8.9 3,8.9 3,8.8 Z"
   id="path140"
   inkscape:connector-curvature="0"
   style="fill:#555555" />
		</g>
		<g
   transform="translate(147.663,-46.956)"
   id="g146">
			<path
   class="st2"
   d="m 0,0 c -0.1,0 -0.2,0 -0.3,-0.1 -0.1,-0.1 -0.1,-0.2 -0.1,-0.3 v -10.3 c 0,-0.1 0,-0.2 0.1,-0.2 C -0.2,-11 -0.1,-11 0,-11 h 0.5 c 0.1,0 0.2,0 0.3,0.1 0.1,0.1 0.1,0.2 0.1,0.2 v 10.3 c 0,0.1 0,0.2 -0.1,0.3 C 0.7,0 0.6,0 0.5,0 Z"
   id="path144"
   inkscape:connector-curvature="0"
   style="fill:#555555" />
		</g>
		<g
   transform="translate(157.165,-47.317)"
   id="g150">
			<path
   class="st2"
   d="M 0,0 C 0,0.1 0,0.2 0,0.3 0,0.4 -0.1,0.4 -0.2,0.4 H -1 c -0.1,0 -0.2,0 -0.3,-0.1 0,-0.1 0,-0.2 -0.1,-0.3 l -2.1,-5.1 -0.8,1.3 V 0 c 0,0.1 0,0.2 -0.1,0.3 -0.1,0.1 -0.2,0.1 -0.3,0.1 h -0.5 c -0.1,0 -0.2,0 -0.3,-0.1 0,-0.1 0,-0.2 0,-0.3 v -10.3 c 0,-0.1 0,-0.2 0.1,-0.2 0.1,-0.1 0.2,-0.1 0.3,-0.1 h 0.5 c 0.1,0 0.2,0 0.3,0.1 0.1,0.1 0.1,0.2 0.1,0.2 v 4.5 l 2.7,-4.6 c 0,-0.1 0.1,-0.1 0.2,-0.2 0.1,-0.1 0.2,-0.1 0.2,-0.1 h 0.8 c 0.1,0 0.1,0 0.1,0 0,0 0.1,0.1 0.1,0.1 0,0.1 0,0.1 0,0.2 l -2.4,4.1 z"
   id="path148"
   inkscape:connector-curvature="0"
   style="fill:#555555" />
		</g>
		<g
   transform="translate(164.396,-49.919)"
   id="g154">
			<path
   class="st2"
   d="m 0,0 c 0,0.2 0,0.5 0.1,0.7 0,0.2 0.1,0.4 0.2,0.6 0.1,0.2 0.3,0.3 0.4,0.4 0.2,0.1 0.5,0.2 0.8,0.2 0.3,0 0.5,0 0.8,-0.2 C 2.5,1.6 2.6,1.5 2.7,1.3 2.8,1.1 2.9,0.9 2.9,0.7 2.9,0.5 2.9,0.2 2.9,0 v -7.7 c 0,-0.1 0,-0.2 0.1,-0.3 0.1,-0.1 0.2,-0.1 0.3,-0.1 h 0.5 c 0.1,0 0.2,0 0.3,0.1 0.1,0.1 0.1,0.2 0.1,0.3 V 0.5 C 4.2,0.8 4.2,1 4.1,1.3 4,1.6 3.9,1.9 3.7,2.1 3.5,2.4 3.2,2.7 2.9,2.8 2.4,3 1.9,3.1 1.4,3.1 0.9,3.1 0.4,3 0,2.8 -0.3,2.6 -0.6,2.4 -0.8,2.1 -1,1.9 -1.1,1.6 -1.2,1.3 -1.3,1.1 -1.3,0.8 -1.3,0.6 v -8.4 c 0,-0.1 0,-0.2 0.1,-0.3 0.1,0 0.2,0 0.3,0 h 0.5 c 0.1,0 0.2,0 0.3,0.1 C 0,-7.9 0,-7.8 0,-7.7 Z"
   id="path152"
   inkscape:connector-curvature="0"
   style="fill:#555555" />
		</g>
		<g
   transform="translate(172.25,-56.082)"
   id="g158">
			<path
   class="st2"
   d="M 0,0 0.3,3.3 V 8.7 C 0.3,8.8 0.3,8.9 0.2,9 0.1,9.1 0,9.1 -0.1,9.1 H -0.6 C -0.7,9.1 -0.8,9.1 -0.9,9 -1,8.9 -1,8.8 -1,8.8 V -1.6 c 0,-0.1 0,-0.2 0.1,-0.2 0.1,-0.1 0.2,-0.1 0.3,-0.1 h 0.9 c 0.1,0 0.2,0 0.2,0.1 0,0.1 0.1,0.2 0.1,0.2 L 3.5,7.2 3.4,4 v -5.6 c 0,-0.1 0,-0.2 0.1,-0.3 0,0 0.1,-0.1 0.2,0 h 0.5 c 0.1,0 0.2,0 0.3,0.1 0.1,0.1 0.1,0.2 0.1,0.3 V 8.8 c 0,0.1 0,0.2 -0.1,0.3 0,0 -0.1,0 -0.2,0 h -1 C 3.2,9.1 3.1,9.1 3.1,9 3,8.9 3,8.9 3,8.8 Z"
   id="path156"
   inkscape:connector-curvature="0"
   style="fill:#555555" />
		</g>
		<g
   transform="translate(179.762,-57.666)"
   id="g162">
			<path
   class="st2"
   d="M 0,0 C 0,-0.1 0,-0.2 0.1,-0.2 0.2,-0.3 0.3,-0.3 0.4,-0.3 H 2.8 C 3.3,-0.3 3.7,-0.2 4.2,0 4.5,0 4.7,0.3 4.9,0.5 5.1,0.8 5.2,1 5.3,1.3 5.3,1.6 5.4,1.8 5.4,2 5.5,3 5.6,4.1 5.6,5.1 5.6,6.1 5.5,7.2 5.4,8.2 5.4,8.5 5.3,8.7 5.3,9 5.3,9.3 5.1,9.6 5,9.8 4.8,10.1 4.5,10.3 4.2,10.4 3.7,10.6 3.2,10.7 2.7,10.7 H 0.4 c -0.1,0 -0.2,0 -0.3,-0.1 C 0,10.5 0,10.4 0,10.3 Z m 1.3,9.5 h 1.5 c 0.3,0 0.5,0 0.7,-0.1 C 3.7,9.3 3.8,9.2 3.9,9 4,8.7 4.1,8.6 4.1,8.4 4.1,8.2 4.2,8 4.2,7.7 4.3,6.8 4.4,6 4.3,5.1 4.3,4.3 4.2,3.5 4.1,2.6 4.1,2.4 4,2.1 4,1.9 4,1.7 3.9,1.5 3.8,1.3 3.8,1.3 3.6,1.1 3.5,1 3.2,0.9 3,0.9 2.7,0.9 H 1.3 Z"
   id="path160"
   inkscape:connector-curvature="0"
   style="fill:#555555" />
		</g>
		<g
   transform="translate(192.84,-56.082)"
   id="g166">
			<path
   class="st2"
   d="M 0,0 0.3,3.3 V 8.7 C 0.3,8.8 0.3,8.9 0.2,9 0.1,9.1 0,9.1 -0.1,9.1 H -0.6 C -0.7,9.1 -0.8,9.1 -0.9,9 -1,8.9 -1,8.8 -1,8.8 V -1.6 c 0,-0.1 0,-0.2 0.1,-0.2 0.1,-0.1 0.2,-0.1 0.3,-0.1 h 0.9 c 0.1,0 0.2,0 0.2,0.1 0,0.1 0.1,0.2 0.1,0.2 L 3.5,7.2 3.4,4 v -5.6 c 0,-0.1 0,-0.2 0.1,-0.3 0,0 0.1,-0.1 0.2,0 h 0.5 c 0.1,0 0.2,0 0.3,0.1 0.1,0.1 0.1,0.2 0.1,0.3 V 8.8 c 0,0.1 0,0.2 -0.1,0.3 0,0 -0.1,0 -0.2,0 h -1 C 3.2,9.1 3.1,9.1 3,9 3,8.9 3,8.9 3,8.8 Z"
   id="path164"
   inkscape:connector-curvature="0"
   style="fill:#555555" />
		</g>
		<g
   transform="translate(202.859,-58.027)"
   id="g170">
			<path
   class="st2"
   d="m 0,0 c 0.2,0 0.3,0.1 0.4,0.4 l 2.1,10.3 c 0,0.1 0,0.2 0,0.3 -0.1,0.1 -0.2,0.1 -0.3,0.1 H 1.5 C 1.3,11.1 1.2,11 1.1,10.7 L 0.8,8.9 h -2.1 l -0.4,1.8 c 0,0.2 -0.2,0.4 -0.4,0.4 h -0.6 c -0.1,0 -0.2,0 -0.3,-0.1 -0.1,-0.1 -0.1,-0.2 0,-0.3 L -1,0.4 C -1,0.3 -0.9,0.2 -0.9,0.1 -0.8,0 -0.7,0 -0.6,0 Z M 0.5,7.6 -0.1,3.7 -0.3,1.6 h -0.1 l -0.2,2.1 -0.6,3.9 z"
   id="path168"
   inkscape:connector-curvature="0"
   style="fill:#555555" />
		</g>
		<g
   transform="translate(211.735,-57.132)"
   id="g174">
			<path
   class="st2"
   d="m 0,0 c 0,0.1 0,0.2 -0.1,0.3 -0.1,0.1 -0.2,0.1 -0.3,0.1 h -1.8 v 9.4 c 0,0.1 0,0.2 -0.1,0.3 -0.1,0.1 -0.2,0.1 -0.3,0.1 H -3 c -0.1,0 -0.2,0 -0.3,-0.1 C -3.4,10 -3.4,9.9 -3.4,9.8 V 0.4 h -1.8 c -0.1,0 -0.2,0 -0.2,-0.1 C -5.5,0.2 -5.6,0.1 -5.6,0 v -0.5 c 0,-0.1 0,-0.2 0.1,-0.3 0.1,-0.1 0.2,-0.1 0.2,-0.1 h 4.8 c 0.1,0 0.2,0 0.3,0.1 C 0,-0.7 0,-0.6 0,-0.5 Z"
   id="path172"
   inkscape:connector-curvature="0"
   style="fill:#555555" />
		</g>
		<g
   transform="translate(214.792,-49.919)"
   id="g178">
			<path
   class="st2"
   d="m 0,0 c 0,0.2 0,0.5 0.1,0.7 0,0.2 0.1,0.4 0.2,0.6 0.1,0.2 0.3,0.3 0.4,0.4 0.2,0.1 0.5,0.2 0.8,0.2 0.3,0 0.5,0 0.8,-0.2 C 2.5,1.6 2.6,1.5 2.7,1.3 2.8,1.1 2.9,0.9 2.9,0.7 2.9,0.5 2.9,0.2 2.9,0 v -7.7 c 0,-0.1 0,-0.2 0.1,-0.3 0.1,-0.1 0.2,-0.1 0.3,-0.1 h 0.5 c 0.1,0 0.2,0 0.3,0.1 0.1,0.1 0.1,0.2 0.1,0.3 V 0.5 C 4.2,0.8 4.2,1 4.1,1.3 4,1.6 3.9,1.9 3.7,2.1 3.5,2.4 3.2,2.7 2.9,2.8 2.4,3 1.9,3.1 1.4,3.1 0.9,3.1 0.4,3 0,2.8 -0.3,2.6 -0.6,2.4 -0.8,2.1 -1,1.9 -1.1,1.6 -1.2,1.3 -1.3,1.1 -1.3,0.8 -1.3,0.6 v -8.4 c 0,-0.1 0,-0.2 0.1,-0.3 0.1,0 0.2,0 0.3,0 h 0.5 c 0.1,0 0.2,0 0.3,0.1 C 0,-7.9 0,-7.8 0,-7.7 Z"
   id="path176"
   inkscape:connector-curvature="0"
   style="fill:#555555" />
		</g>
		<g
   transform="translate(227.117,-47.317)"
   id="g182">
			<path
   class="st2"
   d="M 0,0 C 0,0.1 0,0.2 0,0.2 -0.1,0.3 -0.2,0.3 -0.3,0.3 H -0.9 C -1,0.3 -1.1,0.3 -1.1,0.2 -1.3,0.2 -1.3,0.1 -1.3,0 L -2.8,-4.8 H -4.2 V 0 c 0,0.1 0,0.2 -0.1,0.2 -0.1,0.1 -0.2,0.1 -0.3,0.1 h -0.5 c -0.1,0 -0.2,0 -0.3,-0.1 0,0 -0.1,-0.1 -0.1,-0.2 v -10.3 c 0,-0.1 0,-0.2 0.1,-0.3 0.1,-0.1 0.2,-0.1 0.2,-0.1 h 1.9 c 0.5,0 1,0 1.6,0.2 0.4,0.1 0.8,0.3 1,0.7 0.2,0.3 0.3,0.6 0.4,0.9 0.1,0.4 0.1,0.8 0.1,1.2 0,0.6 -0.1,1.2 -0.3,1.7 -0.2,0.4 -0.6,0.8 -1.1,0.9 z m -4.2,-6.1 h 1 c 0.2,0 0.5,0 0.7,0 0.2,0 0.4,-0.1 0.5,-0.2 0.1,-0.1 0.2,-0.1 0.2,-0.2 0.1,-0.1 0.1,-0.2 0.2,-0.3 0,-0.1 0.1,-0.2 0.1,-0.4 0,-0.2 0,-0.4 0,-0.5 0,-0.3 0,-0.7 -0.1,-1 -0.1,-0.2 -0.2,-0.4 -0.4,-0.5 -0.1,0 -0.2,-0.1 -0.2,-0.1 -0.1,0 -0.2,0 -0.4,-0.1 -0.2,0 -0.4,0 -0.6,0 h -1 z"
   id="path180"
   inkscape:connector-curvature="0"
   style="fill:#555555" />
		</g>
		<g
   transform="translate(232.245,-52.366)"
   id="g186">
			<path
   class="st2"
   d="m 0,0 -0.2,1.5 -1,3.6 C -1.3,5.3 -1.4,5.5 -1.5,5.5 H -2 c -0.1,0 -0.2,0 -0.3,-0.1 C -2.4,5.2 -2.5,5.1 -2.5,5 l -1,-10.3 c 0,-0.1 0,-0.2 0.1,-0.3 0.1,-0.1 0.2,-0.1 0.3,-0.1 h 0.5 c 0.1,0 0.2,0 0.3,0.1 0.1,0.1 0.1,0.2 0.1,0.3 l 0.4,4.4 0.2,3.9 h 0.1 l 1,-4.6 c 0,-0.1 0,-0.2 0.1,-0.3 0,0 0.1,-0.1 0.2,-0.1 h 0.5 c 0.1,0 0.2,0 0.3,0.1 0.1,0.1 0.1,0.2 0.1,0.3 L 1.7,3 H 1.8 L 2,-0.9 2.4,-5.3 c 0,-0.1 0,-0.2 0.1,-0.3 0.1,-0.1 0.2,-0.1 0.3,-0.1 h 0.5 c 0.1,0 0.2,0 0.3,0.1 0.1,0.1 0.1,0.2 0.1,0.3 L 2.5,5 c 0,0.1 0,0.2 -0.1,0.3 0,0.1 -0.1,0.1 -0.2,0.1 H 1.6 C 1.4,5.4 1.3,5.3 1.3,5 l -1,-3.6 z"
   id="path184"
   inkscape:connector-curvature="0"
   style="fill:#555555" />
		</g>
		<g
   transform="translate(238.72,-46.956)"
   id="g190">
			<path
   class="st2"
   d="m 0,0 c -0.1,0 -0.2,0 -0.3,-0.1 -0.1,-0.1 -0.1,-0.2 -0.1,-0.3 v -10.3 c 0,-0.1 0,-0.2 0.1,-0.2 C -0.2,-11 -0.1,-11 0,-11 h 0.5 c 0.1,0 0.2,0 0.3,0.1 0.1,0.1 0.1,0.2 0.1,0.2 v 10.3 c 0,0.1 0,0.2 -0.1,0.3 C 0.7,0 0.6,0 0.5,0 Z"
   id="path188"
   inkscape:connector-curvature="0"
   style="fill:#555555" />
		</g>
		<g
   transform="translate(247.643,-50.014)"
   id="g194">
			<path
   class="st2"
   d="M 0,0 C 0.1,0.9 -0.2,1.7 -0.7,2.4 -1.3,3 -2,3.3 -2.8,3.2 -3.3,3.2 -3.7,3.1 -4.2,2.9 -4.5,2.8 -4.8,2.5 -5,2.2 -5.2,1.9 -5.4,1.5 -5.4,1.1 -5.5,0.7 -5.5,0.3 -5.5,-0.2 v -0.2 c 0,-0.1 0,-0.2 0.1,-0.3 0.1,-0.1 0.2,-0.1 0.3,-0.1 h 0.5 c 0.1,0 0.2,0 0.2,0.1 0.1,0.1 0.1,0.2 0.1,0.3 v 0.2 c 0,0.3 0,0.7 0.1,1 0,0.3 0.2,0.5 0.3,0.7 0.1,0.2 0.3,0.3 0.5,0.3 C -3.2,1.9 -3,2 -2.8,2 -2.4,2 -2,1.8 -1.7,1.5 -1.4,1.1 -1.2,0.6 -1.3,0 c 0,-0.4 -0.1,-0.7 -0.3,-1 -0.2,-0.2 -0.4,-0.5 -0.7,-0.7 -0.3,-0.2 -0.7,-0.5 -1,-0.7 -0.4,-0.2 -0.7,-0.5 -1,-0.8 -0.3,-0.3 -0.6,-0.6 -0.8,-1 -0.2,-0.4 -0.3,-0.9 -0.3,-1.4 0,-0.3 0.1,-0.7 0.2,-1 0,-0.3 0.2,-0.5 0.4,-0.8 0.2,-0.2 0.5,-0.4 0.8,-0.6 0.4,-0.1 0.7,-0.2 1.1,-0.2 0.4,0 0.8,0.1 1.1,0.2 0.3,0.1 0.6,0.3 0.8,0.6 0.2,0.2 0.4,0.5 0.5,0.8 0.2,0.3 0.2,0.6 0.2,0.9 v 0.1 c 0,0.1 0,0.2 -0.1,0.3 -0.1,0.1 -0.2,0.1 -0.3,0.1 h -0.5 c -0.1,0 -0.2,0 -0.3,-0.1 -0.1,-0.1 -0.1,-0.2 -0.1,-0.2 v 0 c 0,-0.4 -0.1,-0.7 -0.4,-1 -0.2,-0.3 -0.6,-0.4 -0.9,-0.4 -0.2,0 -0.4,0 -0.6,0.1 -0.2,0.1 -0.3,0.2 -0.4,0.3 -0.1,0.1 -0.2,0.3 -0.2,0.4 0,0.2 -0.1,0.3 -0.1,0.5 0,0.4 0.1,0.7 0.3,1 0.3,0.3 0.5,0.6 0.8,0.8 0.3,0.3 0.6,0.5 1,0.7 0.4,0.2 0.7,0.5 1,0.8 0.3,0.3 0.6,0.6 0.8,1 C -0.1,-0.9 0,-0.5 0,0"
   id="path192"
   inkscape:connector-curvature="0"
   style="fill:#555555" />
		</g>
		<g
   transform="translate(254.808,-50.014)"
   id="g198">
			<path
   class="st2"
   d="M 0,0 C 0.1,0.9 -0.2,1.7 -0.7,2.4 -1.3,3 -2,3.3 -2.8,3.2 -3.3,3.2 -3.7,3.1 -4.2,2.9 -4.5,2.8 -4.8,2.5 -5,2.2 -5.2,1.9 -5.4,1.5 -5.4,1.1 -5.5,0.7 -5.5,0.3 -5.5,-0.2 v -0.2 c 0,-0.1 0,-0.2 0.1,-0.3 0.1,-0.1 0.2,-0.1 0.3,-0.1 h 0.5 c 0.1,0 0.2,0 0.3,0.1 0.1,0.1 0.1,0.2 0.1,0.3 v 0.2 c 0,0.3 0,0.7 0.1,1 -0.1,0.3 0.1,0.5 0.2,0.7 0.1,0.2 0.3,0.3 0.5,0.3 C -3.2,1.9 -3,2 -2.8,2 -2.4,2 -2,1.8 -1.7,1.5 -1.4,1.1 -1.2,0.6 -1.3,0 c 0,-0.4 -0.1,-0.7 -0.3,-1 -0.2,-0.2 -0.4,-0.5 -0.7,-0.7 -0.3,-0.2 -0.6,-0.5 -1,-0.7 -0.4,-0.2 -0.7,-0.5 -1,-0.8 -0.3,-0.3 -0.6,-0.6 -0.8,-1 -0.2,-0.4 -0.3,-0.9 -0.3,-1.4 0,-0.3 0.1,-0.7 0.2,-1 0.1,-0.3 0.2,-0.5 0.4,-0.8 0.3,-0.2 0.5,-0.4 0.8,-0.6 0.4,-0.1 0.7,-0.2 1.1,-0.2 0.4,0 0.8,0.1 1.1,0.2 0.3,0.1 0.6,0.3 0.8,0.6 0.2,0.2 0.4,0.5 0.5,0.8 0.2,0.3 0.2,0.6 0.2,0.9 v 0.1 c 0,0.1 0,0.2 -0.1,0.3 -0.1,0.1 -0.2,0.1 -0.3,0.1 h -0.5 c -0.1,0 -0.2,0 -0.3,-0.1 -0.1,-0.1 -0.1,-0.2 -0.1,-0.2 v 0 c 0,-0.4 -0.1,-0.7 -0.4,-1 -0.2,-0.3 -0.6,-0.4 -0.9,-0.4 -0.2,0 -0.4,0 -0.6,0.1 -0.2,0.1 -0.3,0.2 -0.4,0.3 -0.1,0.1 -0.2,0.3 -0.2,0.4 0,0.2 -0.1,0.3 -0.1,0.5 0,0.4 0.1,0.7 0.3,1 0.3,0.3 0.5,0.6 0.8,0.8 0.3,0.3 0.6,0.5 1,0.7 0.4,0.2 0.7,0.5 1,0.8 0.3,0.3 0.6,0.6 0.8,1 C -0.1,-0.9 0,-0.5 0,0"
   id="path196"
   inkscape:connector-curvature="0"
   style="fill:#555555" />
		</g>
		<g
   transform="translate(261.896,-47.317)"
   id="g202">
			<path
   class="st2"
   d="m 0,0 c 0,0.1 0,0.2 -0.1,0.3 -0.1,0.1 -0.2,0.1 -0.3,0.1 h -4.1 c -0.1,0 -0.2,0 -0.3,-0.1 0,-0.1 -0.1,-0.2 -0.1,-0.3 v -10.3 c 0,-0.1 0,-0.2 0.1,-0.2 0.1,-0.1 0.2,-0.1 0.3,-0.1 h 4 c 0.1,0 0.2,0 0.3,0.1 0.1,0.1 0.1,0.2 0.1,0.3 v 0.5 c 0,0.1 0,0.2 -0.1,0.3 -0.1,0.1 -0.2,0.1 -0.3,0.1 H -3.6 V -6 h 2.7 c 0.1,0 0.2,0 0.3,0.1 0.1,0.1 0.1,0.2 0.1,0.3 v 0.5 c 0,0.1 0,0.2 -0.1,0.3 -0.1,0.1 -0.2,0.1 -0.3,0.1 h -2.7 v 3.8 h 3.2 c 0.1,0 0.2,0 0.3,0.1 C 0,-0.7 0,-0.6 0,-0.5 Z"
   id="path200"
   inkscape:connector-curvature="0"
   style="fill:#555555" />
		</g>
		<g
   transform="translate(265.126,-56.082)"
   id="g206">
			<path
   class="st2"
   d="M 0,0 0.2,3.3 V 8.7 C 0.2,8.8 0.2,8.9 0.1,9 0.1,9.1 0,9.1 -0.1,9.1 H -0.6 C -0.7,9.1 -0.8,9.1 -0.9,9 -1,8.9 -1,8.8 -1,8.8 V -1.6 c 0,-0.1 0,-0.2 0.1,-0.2 0.1,-0.1 0.2,-0.1 0.3,-0.1 h 0.9 c 0.1,0 0.2,0 0.2,0.1 0,0.1 0.1,0.2 0.1,0.2 L 3.5,7.2 3.4,4 v -5.6 c 0,-0.1 0,-0.2 0.1,-0.3 0,0 0.1,-0.1 0.2,0 h 0.5 c 0.1,0 0.2,0 0.3,0.1 0.1,0.1 0.1,0.2 0.1,0.3 V 8.8 c 0,0.1 0,0.2 -0.1,0.3 0,0 -0.1,0 -0.2,0 h -1 C 3.2,9.1 3.1,9.1 3,9 3,8.9 3,8.9 3,8.8 Z"
   id="path204"
   inkscape:connector-curvature="0"
   style="fill:#555555" />
		</g>
		<g
   transform="translate(277.575,-50.014)"
   id="g210">
			<path
   class="st2"
   d="M 0,0 C 0.1,0.9 -0.2,1.7 -0.7,2.4 -1.3,3 -2,3.3 -2.8,3.2 -3.3,3.2 -3.7,3.1 -4.2,2.9 -4.5,2.8 -4.8,2.5 -5,2.2 -5.2,1.9 -5.4,1.5 -5.4,1.1 -5.5,0.7 -5.5,0.3 -5.5,-0.2 v -0.2 c 0,-0.1 0,-0.2 0.1,-0.3 0.1,-0.1 0.2,-0.1 0.3,-0.1 h 0.5 c 0.1,0 0.2,0 0.3,0.1 0.1,0.1 0.1,0.2 0.1,0.3 v 0.2 c 0,0.3 0,0.7 0.1,1 -0.1,0.3 0.1,0.5 0.2,0.7 0.1,0.2 0.3,0.3 0.5,0.3 C -3.2,1.9 -3,2 -2.8,2 -2.4,2 -2,1.8 -1.7,1.5 -1.4,1.1 -1.2,0.6 -1.3,0 c 0,-0.4 -0.1,-0.7 -0.3,-1 -0.2,-0.2 -0.4,-0.5 -0.7,-0.7 -0.3,-0.2 -0.6,-0.5 -1,-0.7 -0.4,-0.2 -0.7,-0.5 -1,-0.8 -0.3,-0.3 -0.6,-0.6 -0.8,-1 -0.2,-0.4 -0.3,-0.9 -0.3,-1.4 0,-0.3 0.1,-0.7 0.2,-1 0.1,-0.3 0.2,-0.5 0.4,-0.8 0.3,-0.2 0.5,-0.4 0.8,-0.6 0.4,-0.1 0.7,-0.2 1.1,-0.2 0.4,0 0.8,0.1 1.1,0.2 0.3,0.1 0.6,0.3 0.8,0.6 0.2,0.2 0.4,0.5 0.5,0.8 0.2,0.3 0.2,0.6 0.2,0.9 v 0.1 c 0,0.1 0,0.2 -0.1,0.3 -0.1,0.1 -0.2,0.1 -0.3,0.1 h -0.5 c -0.1,0 -0.2,0 -0.3,-0.1 -0.1,-0.1 -0.1,-0.2 -0.1,-0.2 v 0 c 0,-0.4 -0.1,-0.7 -0.4,-1 -0.2,-0.3 -0.6,-0.4 -0.9,-0.4 -0.2,0 -0.4,0 -0.6,0.1 -0.2,0.1 -0.3,0.2 -0.4,0.3 -0.1,0.1 -0.2,0.3 -0.2,0.4 0,0.2 -0.1,0.3 -0.1,0.5 0,0.4 0.1,0.7 0.3,1 0.3,0.3 0.5,0.6 0.8,0.8 0.3,0.3 0.6,0.5 1,0.7 0.4,0.2 0.7,0.5 1,0.8 0.3,0.3 0.6,0.6 0.8,1 C -0.1,-0.9 0,-0.5 0,0"
   id="path208"
   inkscape:connector-curvature="0"
   style="fill:#555555" />
		</g>
		<g
   transform="translate(284.803,-55.172)"
   id="g214">
			<path
   class="st2"
   d="M 0,0 C 0,0.1 0,0.2 -0.1,0.3 -0.2,0.4 -0.3,0.4 -0.4,0.4 H -0.9 C -1,0.4 -1.1,0.4 -1.2,0.3 -1.2,0.2 -1.3,0.1 -1.3,0 v -0.2 c 0,-0.2 0,-0.4 -0.1,-0.6 0,-0.2 -0.1,-0.3 -0.2,-0.5 -0.1,-0.1 -0.2,-0.3 -0.4,-0.4 -0.2,-0.1 -0.4,-0.1 -0.6,-0.1 -0.3,0 -0.5,0 -0.7,0.2 -0.2,0.1 -0.3,0.2 -0.4,0.4 -0.1,0.2 -0.2,0.4 -0.2,0.6 0,0.2 -0.1,0.5 -0.1,0.7 0,0.5 0,0.9 0,1.3 0,0.4 0,0.8 0,1.2 0,0.4 0,0.8 0,1.2 0,0.4 0,0.9 0,1.3 0,0.2 0,0.5 0.1,0.7 0,0.2 0.1,0.4 0.2,0.6 0.1,0.2 0.3,0.3 0.4,0.5 0.3,0.2 0.5,0.2 0.8,0.2 0.2,0 0.5,0 0.7,-0.2 0.2,-0.1 0.3,-0.2 0.4,-0.4 0.1,-0.2 0.2,-0.4 0.2,-0.6 0,-0.2 0.1,-0.5 0.1,-0.7 V 4.7 c 0,-0.1 0,-0.2 0.1,-0.3 0,-0.1 0.1,-0.1 0.2,-0.1 h 0.5 c 0.1,0 0.2,0 0.3,0.1 0.1,0.1 0.1,0.2 0.1,0.3 V 5.8 C 0.1,6.1 0.1,6.3 0,6.6 -0.1,6.9 -0.2,7.2 -0.4,7.5 -0.6,7.8 -0.9,8 -1.2,8.2 -1.6,8.4 -2.1,8.5 -2.6,8.5 -3.1,8.5 -3.5,8.4 -4,8.2 -4.3,8 -4.6,7.8 -4.8,7.5 -5,7.2 -5.1,6.9 -5.2,6.6 c 0,-0.4 0,-0.6 0,-0.9 0,-0.5 -0.1,-1 -0.1,-1.5 0,-0.5 0,-1 0,-1.5 0,-0.5 0,-1 0,-1.5 0,-0.5 0,-1 0.1,-1.5 0,-0.3 0,-0.5 0.1,-0.8 0,-0.3 0.1,-0.6 0.3,-0.9 0.2,-0.3 0.5,-0.5 0.8,-0.7 0.5,-0.2 1,-0.3 1.6,-0.3 0.4,0 0.8,0.1 1.2,0.3 0.3,0.2 0.5,0.4 0.7,0.7 0.2,0.2 0.3,0.5 0.4,0.8 C 0,-1 0,-0.8 0,-0.5 Z"
   id="path212"
   inkscape:connector-curvature="0"
   style="fill:#555555" />
		</g>
		<g
   transform="translate(291.641,-46.956)"
   id="g218">
			<path
   class="st2"
   d="m 0,0 c -0.1,0 -0.2,0 -0.3,-0.1 -0.1,-0.1 -0.1,-0.2 -0.1,-0.3 v -4.7 h -2.9 v 4.7 c 0,0.1 0,0.2 -0.1,0.3 C -3.4,0 -3.5,0 -3.6,0 h -0.5 c -0.1,0 -0.2,0 -0.3,-0.1 -0.1,-0.1 -0.1,-0.2 -0.1,-0.3 v -10.3 c 0,-0.1 0,-0.2 0.1,-0.2 0.1,-0.1 0.2,-0.1 0.3,-0.1 h 0.5 c 0.1,0 0.2,0 0.3,0.1 0.1,0.1 0.1,0.2 0.1,0.2 v 4.4 h 2.9 v -4.4 c 0,-0.1 0,-0.2 0.1,-0.2 C -0.1,-11 0,-11 0.1,-11 h 0.5 c 0.1,0 0.2,0 0.3,0.1 0.1,0.1 0.1,0.2 0.1,0.2 V -0.4 C 1,-0.3 1,-0.2 0.9,-0.1 0.7,0 0.6,0 0.5,0 Z"
   id="path216"
   inkscape:connector-curvature="0"
   style="fill:#555555" />
		</g>
		<g
   transform="translate(297.928,-58.027)"
   id="g222">
			<path
   class="st2"
   d="m 0,0 c 0.2,0 0.3,0.1 0.4,0.4 l 2.1,10.3 c 0,0.1 0,0.2 0,0.3 -0.1,0.1 -0.2,0.1 -0.3,0.1 H 1.5 C 1.3,11.1 1.2,11 1.1,10.7 L 0.8,8.9 h -2.1 l -0.4,1.8 c 0,0.2 -0.2,0.4 -0.4,0.4 h -0.6 c -0.1,0 -0.2,0 -0.3,-0.1 -0.1,-0.1 -0.1,-0.2 0,-0.3 L -1,0.4 C -1,0.3 -0.9,0.2 -0.9,0.1 -0.8,0 -0.7,0 -0.6,0 Z M 0.5,7.6 -0.1,3.7 -0.3,1.6 h -0.1 l -0.2,2.1 -0.6,3.9 z"
   id="path220"
   inkscape:connector-curvature="0"
   style="fill:#555555" />
		</g>
		<g
   transform="translate(307.008,-52.413)"
   id="g226">
			<path
   class="st2"
   d="m 0,0 c 0,0.1 0,0.2 -0.1,0.3 -0.1,0.1 -0.2,0.1 -0.3,0.1 h -2.7 v 4.7 c 0,0.1 0,0.2 -0.1,0.3 -0.1,0.1 -0.2,0.1 -0.3,0.1 H -4 c -0.1,0 -0.2,0 -0.3,-0.1 C -4.4,5.3 -4.4,5.2 -4.4,5.1 V -5.3 c 0,-0.1 0,-0.2 0.1,-0.2 0.2,-0.1 0.2,-0.1 0.3,-0.1 h 4 c 0.1,0 0.2,0 0.3,0.1 0.1,0.1 0.1,0.2 0.1,0.3 v 0.5 c 0,0.1 0,0.2 -0.1,0.3 -0.1,0 -0.1,0 -0.2,0 H -3 v 3.5 h 2.7 c 0.1,0 0.2,0 0.3,0.1 0,0.1 0,0.2 0,0.3 z"
   id="path224"
   inkscape:connector-curvature="0"
   style="fill:#555555" />
		</g>
		<g
   transform="translate(314.189,-57.132)"
   id="g230">
			<path
   class="st2"
   d="m 0,0 c 0,0.1 0,0.2 -0.1,0.3 -0.1,0.1 -0.2,0.1 -0.3,0.1 h -1.8 v 9.4 c 0,0.1 0,0.2 -0.1,0.3 -0.1,0.1 -0.2,0.1 -0.3,0.1 H -3 c -0.1,0 -0.2,0 -0.3,-0.1 C -3.4,10 -3.4,9.9 -3.4,9.8 V 0.4 h -1.8 c -0.1,0 -0.2,0 -0.2,-0.1 C -5.5,0.2 -5.6,0.1 -5.6,0 v -0.5 c 0,-0.1 0,-0.2 0.1,-0.3 0.1,-0.1 0.2,-0.1 0.2,-0.1 h 4.8 c 0.1,0 0.2,0 0.3,0.1 C 0,-0.7 0,-0.6 0,-0.5 Z"
   id="path228"
   inkscape:connector-curvature="0"
   style="fill:#555555" />
		</g>
		<g
   transform="translate(321.04,-47.317)"
   id="g234">
			<path
   class="st2"
   d="m 0,0 c 0,0.1 0,0.2 -0.1,0.3 -0.1,0.1 -0.2,0.1 -0.3,0.1 h -4.1 c -0.1,0 -0.2,0 -0.3,-0.1 0,-0.1 -0.1,-0.2 -0.1,-0.3 v -10.3 c 0,-0.1 0,-0.2 0.1,-0.2 0.1,-0.1 0.2,-0.1 0.3,-0.1 h 4 c 0.1,0 0.2,0 0.3,0.1 0.1,0.1 0.1,0.2 0.1,0.3 v 0.5 c 0,0.1 0,0.2 -0.1,0.3 -0.1,0.1 -0.2,0.1 -0.3,0.1 H -3.6 V -6 h 2.7 c 0.1,0 0.2,0 0.3,0.1 0.1,0.1 0.1,0.2 0.1,0.3 v 0.5 c 0,0.1 0,0.2 -0.1,0.3 -0.1,0.1 -0.2,0.1 -0.3,0.1 h -2.7 v 3.8 h 3.2 c 0.1,0 0.2,0 0.3,0.1 C 0,-0.7 0,-0.6 0,-0.5 Z"
   id="path232"
   inkscape:connector-curvature="0"
   style="fill:#555555" />
		</g>
		<g
   transform="translate(324.271,-56.082)"
   id="g238">
			<path
   class="st2"
   d="M 0,0 0.2,3.3 V 8.7 C 0.2,8.8 0.2,8.9 0.1,9 0.1,9.1 0,9.1 -0.1,9.1 H -0.6 C -0.7,9.1 -0.8,9.1 -0.9,9 -1,8.9 -1,8.8 -1,8.8 V -1.6 c 0,-0.1 0,-0.2 0.1,-0.2 0.1,-0.1 0.2,-0.1 0.3,-0.1 h 0.9 c 0.1,0 0.2,0 0.2,0.1 0,0.1 0.1,0.2 0.1,0.2 L 3.5,7.2 3.4,4 v -5.6 c 0,-0.1 0,-0.2 0.1,-0.3 0,0 0.1,-0.1 0.2,0 h 0.5 c 0.1,0 0.2,0 0.3,0.1 0.1,0.1 0.1,0.2 0.1,0.3 V 8.8 c 0,0.1 0,0.2 -0.1,0.3 0,0 -0.1,0 -0.2,0 h -1 C 3.2,9.1 3.1,9.1 3,9 3,8.9 3,8.9 3,8.8 Z"
   id="path236"
   inkscape:connector-curvature="0"
   style="fill:#555555" />
		</g>
		<g
   transform="translate(110.282,-31.103)"
   id="g242">
			<path
   class="st2"
   d="m 0,0 c 0,0.2 0,0.5 0.1,0.7 0,0.2 0.1,0.4 0.2,0.6 0.1,0.2 0.3,0.3 0.4,0.4 0.2,0.1 0.5,0.2 0.8,0.2 0.3,0 0.5,0 0.8,-0.2 C 2.5,1.6 2.6,1.5 2.7,1.3 2.8,1.1 2.9,0.9 2.9,0.7 2.9,0.5 2.9,0.2 2.9,0 v -7.7 c 0,-0.1 0,-0.2 0.1,-0.3 0.1,-0.1 0.2,-0.1 0.3,-0.1 h 0.5 c 0.1,0 0.2,0 0.3,0.1 0.1,0.1 0.1,0.2 0.1,0.3 V 0.5 C 4.2,0.8 4.2,1 4.1,1.3 4,1.6 3.9,1.9 3.7,2.1 3.5,2.4 3.2,2.7 2.9,2.8 2.4,3 1.9,3.1 1.4,3.1 0.9,3.1 0.4,3 0,2.8 -0.3,2.6 -0.6,2.4 -0.8,2.1 -1,1.9 -1.1,1.6 -1.2,1.3 -1.3,1.1 -1.3,0.8 -1.3,0.6 v -8.4 c 0,-0.1 0,-0.2 0.1,-0.3 0.1,0 0.2,0 0.3,0 h 0.5 c 0.1,0 0.2,0 0.3,0.1 C 0,-7.9 0,-7.8 0,-7.7 Z"
   id="path240"
   inkscape:connector-curvature="0"
   style="fill:#555555" />
		</g>
		<g
   transform="translate(118.138,-37.266)"
   id="g246">
			<path
   class="st2"
   d="M 0,0 0.3,3.3 V 8.7 C 0.3,8.8 0.3,8.9 0.2,9 0.1,9.1 0,9.1 -0.1,9.1 H -0.6 C -0.7,9.1 -0.8,9.1 -0.9,9 -1,8.9 -1,8.8 -1,8.8 V -1.6 c 0,-0.1 0,-0.2 0.1,-0.3 C -0.8,-2 -0.7,-2 -0.6,-2 h 0.9 c 0.1,0 0.2,0 0.2,0.1 0,0.1 0.1,0.2 0.1,0.2 L 3.5,7.1 3.4,4 v -5.6 c 0,-0.1 0,-0.2 0.1,-0.3 0,0 0.1,-0.1 0.2,0 h 0.5 c 0.1,0 0.2,0 0.3,0.1 0.1,0.1 0.1,0.2 0.1,0.3 V 8.8 c 0,0.1 0,0.2 -0.1,0.3 0,0 -0.1,0 -0.2,0 h -1 C 3.2,9.1 3.1,9.1 3,9 3,8.9 3,8.9 3,8.8 Z"
   id="path244"
   inkscape:connector-curvature="0"
   style="fill:#555555" />
		</g>
		<g
   transform="translate(126.213,-28.14)"
   id="g250">
			<path
   class="st2"
   d="m 0,0 c -0.1,0 -0.2,0 -0.3,-0.1 -0.1,-0.1 -0.1,-0.2 -0.1,-0.3 v -10.3 c 0,-0.1 0,-0.2 0.1,-0.2 C -0.2,-11 -0.1,-11 0,-11 h 0.5 c 0.1,0 0.2,0 0.3,0.1 0.1,0.1 0.1,0.2 0.1,0.2 v 10.3 c 0,0.1 0,0.2 -0.1,0.3 C 0.7,0 0.6,0 0.5,0 Z"
   id="path248"
   inkscape:connector-curvature="0"
   style="fill:#555555" />
		</g>
		<g
   transform="translate(131.656,-28.14)"
   id="g254">
			<path
   class="st2"
   d="m 0,0 c -0.2,0 -0.3,-0.1 -0.4,-0.4 l -2.1,-10.3 c 0,-0.1 0,-0.2 0,-0.3 0.1,-0.1 0.2,-0.1 0.2,-0.1 h 0.6 c 0.2,0 0.3,0.1 0.4,0.4 l 0.7,3.4 0.8,5 0.8,-5 0.7,-3.4 c 0,-0.2 0.2,-0.4 0.4,-0.4 h 0.6 c 0.2,0 0.3,0.1 0.3,0.1 0.1,0.1 0.1,0.2 0,0.3 L 1,-0.4 C 0.9,-0.1 0.8,0 0.6,0 Z"
   id="path252"
   inkscape:connector-curvature="0"
   style="fill:#555555" />
		</g>
		<g
   transform="translate(141.83,-28.501)"
   id="g258">
			<path
   class="st2"
   d="m 0,0 c 0,0.1 0,0.2 -0.1,0.3 -0.1,0.1 -0.2,0.1 -0.3,0.1 h -4.1 c -0.1,0 -0.2,0 -0.3,-0.1 0,-0.1 -0.1,-0.2 -0.1,-0.3 v -10.3 c 0,-0.1 0,-0.2 0.1,-0.2 0.1,-0.1 0.2,-0.1 0.3,-0.1 h 4 c 0.1,0 0.2,0 0.3,0.1 0.1,0.1 0.1,0.2 0.1,0.3 v 0.5 c 0,0.1 0,0.2 -0.1,0.3 -0.1,0.1 -0.2,0.1 -0.3,0.1 H -3.6 V -6 h 2.7 c 0.1,0 0.2,0 0.3,0.1 0.1,0.1 0.1,0.2 0.1,0.3 v 0.5 c 0,0.1 0,0.2 -0.1,0.3 -0.1,0.1 -0.2,0.1 -0.3,0.1 h -2.7 v 3.8 h 3.2 c 0.1,0 0.2,0 0.3,0.1 C 0,-0.7 0,-0.6 0,-0.5 Z"
   id="path256"
   inkscape:connector-curvature="0"
   style="fill:#555555" />
		</g>
		<g
   transform="translate(149.529,-28.501)"
   id="g262">
			<path
   class="st2"
   d="M 0,0 C 0,0.1 0,0.2 0,0.2 -0.1,0.3 -0.2,0.3 -0.3,0.3 H -0.9 C -1,0.3 -1.1,0.3 -1.2,0.2 -1.3,0.2 -1.3,0.1 -1.3,0 L -2.8,-4.8 H -4.2 V 0 c 0,0.1 0,0.2 -0.1,0.2 -0.1,0.1 -0.2,0.1 -0.3,0.1 h -0.5 c -0.1,0 -0.2,0 -0.3,-0.1 0,0 -0.1,-0.1 -0.1,-0.2 v -10.3 c 0,-0.1 0,-0.2 0.1,-0.3 0.1,-0.1 0.2,-0.1 0.2,-0.1 h 1.9 c 0.5,0 1,0 1.6,0.2 0.4,0.1 0.8,0.3 1,0.7 0.2,0.3 0.3,0.6 0.4,0.9 0.1,0.4 0.1,0.8 0.1,1.2 0,0.6 -0.1,1.2 -0.3,1.7 -0.2,0.4 -0.6,0.8 -1.1,0.9 z m -4.2,-6.1 h 1 c 0.2,0 0.5,0 0.7,0 0.2,0 0.4,-0.1 0.5,-0.2 0.1,-0.1 0.2,-0.1 0.2,-0.2 0.1,-0.1 0.1,-0.2 0.2,-0.3 0,-0.1 0.1,-0.2 0.1,-0.4 0,-0.2 0,-0.4 0,-0.5 0,-0.3 0,-0.7 -0.1,-1 0,-0.3 -0.2,-0.4 -0.3,-0.6 -0.1,0 -0.2,-0.1 -0.2,-0.1 -0.1,0 -0.2,0 -0.4,-0.1 -0.2,0 -0.4,0 -0.6,0 h -1 v 3.4 z"
   id="path260"
   inkscape:connector-curvature="0"
   style="fill:#555555" />
		</g>
		<g
   transform="translate(156.821,-31.198)"
   id="g266">
			<path
   class="st2"
   d="M 0,0 C 0.1,0.9 -0.2,1.7 -0.7,2.4 -1.3,3 -2,3.3 -2.8,3.2 -3.3,3.2 -3.7,3.1 -4.2,2.9 -4.5,2.8 -4.8,2.5 -5,2.2 -5.2,1.9 -5.4,1.5 -5.4,1.1 -5.5,0.7 -5.5,0.3 -5.5,-0.2 v -0.2 c 0,-0.1 0,-0.2 0.1,-0.3 0.1,-0.1 0.2,-0.1 0.3,-0.1 h 0.5 c 0.1,0 0.2,0 0.2,0.1 0.1,0.1 0.1,0.2 0.1,0.3 v 0.2 c 0,0.3 0,0.7 0.1,1 0,0.3 0.2,0.5 0.3,0.7 0.1,0.2 0.3,0.3 0.5,0.3 C -3.2,1.9 -3,2 -2.8,2 -2.4,2 -2,1.8 -1.7,1.5 -1.4,1.1 -1.2,0.6 -1.3,0 c 0,-0.4 -0.1,-0.7 -0.3,-1 -0.2,-0.2 -0.4,-0.5 -0.7,-0.7 -0.3,-0.2 -0.6,-0.5 -1,-0.7 -0.4,-0.2 -0.7,-0.5 -1,-0.8 -0.3,-0.3 -0.6,-0.6 -0.8,-1 -0.2,-0.4 -0.3,-0.9 -0.3,-1.4 0,-0.3 0.1,-0.7 0.2,-1 0,-0.3 0.2,-0.5 0.4,-0.8 0.2,-0.2 0.5,-0.4 0.8,-0.6 0.4,-0.1 0.7,-0.2 1.1,-0.2 0.4,0 0.8,0.1 1.1,0.2 0.3,0.1 0.6,0.3 0.8,0.6 0.2,0.2 0.4,0.5 0.5,0.8 0.2,0.3 0.2,0.6 0.2,0.9 v 0.1 c 0,0.1 0,0.2 -0.1,0.3 -0.1,0.1 -0.2,0.1 -0.3,0.1 h -0.5 c -0.1,0 -0.2,0 -0.3,-0.1 -0.1,-0.1 -0.1,-0.2 -0.1,-0.2 v 0 c 0,-0.4 -0.1,-0.7 -0.4,-1 -0.2,-0.3 -0.6,-0.4 -0.9,-0.4 -0.2,0 -0.4,0 -0.6,0.1 -0.2,0.1 -0.3,0.2 -0.4,0.3 -0.1,0.1 -0.2,0.3 -0.2,0.4 0,0.2 -0.1,0.3 -0.1,0.5 0,0.4 0.1,0.7 0.3,1 0.3,0.3 0.5,0.6 0.8,0.8 0.3,0.3 0.6,0.5 1,0.7 0.4,0.2 0.7,0.5 1,0.8 0.3,0.3 0.6,0.6 0.8,1 C -0.1,-0.9 0,-0.5 0,0"
   id="path264"
   inkscape:connector-curvature="0"
   style="fill:#555555" />
		</g>
		<g
   transform="translate(159.611,-28.14)"
   id="g270">
			<path
   class="st2"
   d="m 0,0 c -0.1,0 -0.2,0 -0.3,-0.1 -0.1,-0.1 -0.1,-0.2 -0.1,-0.3 v -10.3 c 0,-0.1 0,-0.2 0.1,-0.2 C -0.2,-11 -0.1,-11 0,-11 h 0.5 c 0.1,0 0.2,0 0.3,0.1 0.1,0.1 0.1,0.2 0.1,0.2 v 10.3 c 0,0.1 0,0.2 -0.1,0.3 C 0.7,0 0.6,0 0.5,0 Z"
   id="path268"
   inkscape:connector-curvature="0"
   style="fill:#555555" />
		</g>
		<g
   transform="translate(168.268,-38.316)"
   id="g274">
			<path
   class="st2"
   d="m 0,0 c 0,0.1 0,0.2 -0.1,0.3 -0.1,0.1 -0.2,0.1 -0.3,0.1 h -1.8 v 9.4 c 0,0.1 0,0.2 -0.1,0.3 -0.1,0.1 -0.2,0.1 -0.3,0.1 H -3 c -0.1,0 -0.2,0 -0.3,-0.1 C -3.4,10 -3.4,9.9 -3.4,9.8 V 0.4 h -1.8 c -0.1,0 -0.2,0 -0.2,-0.1 C -5.5,0.2 -5.6,0.1 -5.6,0 v -0.5 c 0,-0.1 0,-0.2 0.1,-0.3 0.1,-0.1 0.2,-0.1 0.2,-0.1 h 4.8 c 0.1,0 0.2,0 0.3,0.1 C 0,-0.7 0,-0.6 0,-0.5 Z"
   id="path272"
   inkscape:connector-curvature="0"
   style="fill:#555555" />
		</g>
		<g
   transform="translate(172.202,-39.21)"
   id="g278">
			<path
   class="st2"
   d="m 0,0 c 0.2,0 0.3,0.1 0.4,0.4 l 2.1,10.3 c 0,0.1 0,0.2 0,0.3 -0.1,0.1 -0.2,0.1 -0.3,0.1 H 1.5 C 1.3,11.1 1.2,11 1.1,10.7 L 0.8,8.9 h -2.1 l -0.4,1.8 c 0,0.2 -0.2,0.4 -0.4,0.4 h -0.6 c -0.1,0 -0.2,0 -0.3,-0.1 -0.1,-0.1 -0.1,-0.2 0,-0.3 L -1,0.4 C -1,0.3 -0.9,0.2 -0.9,0.1 -0.8,0 -0.7,0 -0.6,0 Z m -2.6,-1.4 c 0,-0.2 0.1,-0.4 0.2,-0.6 0.2,-0.1 0.4,-0.2 0.6,-0.2 0.2,0 0.4,0.1 0.6,0.2 0.2,0.2 0.3,0.4 0.3,0.6 0,0.2 -0.1,0.4 -0.2,0.6 -0.2,0.2 -0.4,0.2 -0.6,0.2 -0.2,0 -0.4,-0.1 -0.6,-0.2 -0.2,-0.1 -0.3,-0.3 -0.3,-0.6 m 3.1,9 -0.6,-3.9 -0.2,-2.1 h -0.1 l -0.2,2.1 -0.6,3.9 z m -0.2,-9 c 0,-0.2 0.1,-0.4 0.2,-0.6 0.1,-0.2 0.4,-0.2 0.6,-0.2 0.2,0 0.4,0.1 0.6,0.2 0.2,0.2 0.2,0.4 0.2,0.6 0,0.2 -0.1,0.4 -0.2,0.6 C 1.5,-0.6 1.3,-0.5 1.1,-0.5 0.9,-0.5 0.7,-0.6 0.5,-0.7 0.4,-0.9 0.3,-1.1 0.3,-1.4"
   id="path276"
   inkscape:connector-curvature="0"
   style="fill:#555555" />
		</g>
		<g
   transform="translate(181.076,-38.316)"
   id="g282">
			<path
   class="st2"
   d="m 0,0 c 0,0.1 0,0.2 -0.1,0.3 -0.1,0.1 -0.2,0.1 -0.3,0.1 h -1.8 v 9.4 c 0,0.1 0,0.2 -0.1,0.3 -0.1,0.1 -0.2,0.1 -0.3,0.1 H -3 c -0.1,0 -0.2,0 -0.3,-0.1 C -3.4,10 -3.4,9.9 -3.4,9.8 V 0.4 h -1.8 c -0.1,0 -0.2,0 -0.2,-0.1 C -5.5,0.2 -5.6,0.1 -5.6,0 v -0.5 c 0,-0.1 0,-0.2 0.1,-0.3 0.1,-0.1 0.2,-0.1 0.2,-0.1 h 4.8 c 0.1,0 0.2,0 0.3,0.1 C 0,-0.7 0,-0.6 0,-0.5 Z"
   id="path280"
   inkscape:connector-curvature="0"
   style="fill:#555555" />
		</g>
		<g
   transform="translate(188.009,-31.198)"
   id="g286">
			<path
   class="st2"
   d="M 0,0 C 0.1,0.9 -0.2,1.7 -0.7,2.4 -1.3,3 -2,3.3 -2.8,3.2 -3.3,3.2 -3.7,3.1 -4.2,2.9 -4.5,2.8 -4.8,2.5 -5,2.2 -5.2,1.9 -5.4,1.5 -5.4,1.1 -5.5,0.7 -5.5,0.3 -5.5,-0.2 v -0.2 c 0,-0.1 0,-0.2 0.1,-0.3 0.1,-0.1 0.2,-0.1 0.3,-0.1 h 0.5 c 0.1,0 0.2,0 0.2,0.1 0.1,0.1 0.1,0.2 0.1,0.3 v 0.2 c 0,0.3 0,0.7 0.1,1 0,0.3 0.2,0.5 0.3,0.7 0.1,0.2 0.3,0.3 0.5,0.3 C -3.2,1.9 -3,2 -2.8,2 -2.4,2 -2,1.8 -1.7,1.5 -1.4,1.1 -1.2,0.6 -1.3,0 c 0,-0.4 -0.1,-0.7 -0.3,-1 -0.2,-0.2 -0.4,-0.5 -0.7,-0.7 -0.3,-0.2 -0.6,-0.5 -1,-0.7 -0.4,-0.2 -0.7,-0.5 -1,-0.8 -0.3,-0.3 -0.6,-0.6 -0.8,-1 -0.2,-0.4 -0.3,-0.9 -0.3,-1.4 0,-0.3 0.1,-0.7 0.2,-1 0,-0.3 0.2,-0.5 0.4,-0.8 0.2,-0.2 0.5,-0.4 0.8,-0.6 0.4,-0.1 0.7,-0.2 1.1,-0.2 0.4,0 0.8,0.1 1.1,0.2 0.3,0.1 0.6,0.3 0.8,0.6 0.2,0.2 0.4,0.5 0.5,0.8 0.2,0.3 0.2,0.6 0.2,0.9 v 0.1 c 0,0.1 0,0.2 -0.1,0.3 -0.1,0.1 -0.2,0.1 -0.3,0.1 h -0.5 c -0.1,0 -0.2,0 -0.3,-0.1 -0.1,-0.1 -0.1,-0.2 -0.1,-0.2 v 0 c 0,-0.4 -0.1,-0.7 -0.4,-1 -0.2,-0.3 -0.6,-0.4 -0.9,-0.4 -0.2,0 -0.4,0 -0.6,0.1 -0.2,0.1 -0.3,0.2 -0.4,0.3 -0.1,0.1 -0.2,0.3 -0.2,0.4 0,0.2 -0.1,0.3 -0.1,0.5 0,0.4 0.1,0.7 0.3,1 0.3,0.3 0.5,0.6 0.8,0.8 0.3,0.3 0.6,0.5 1,0.7 0.4,0.2 0.7,0.5 1,0.8 0.3,0.3 0.6,0.6 0.8,1 C -0.1,-0.9 0,-0.5 0,0"
   id="path284"
   inkscape:connector-curvature="0"
   style="fill:#555555" />
		</g>
		<g
   transform="translate(192.367,-39.21)"
   id="g290">
			<path
   class="st2"
   d="m 0,0 c 0.4,0 0.8,0 1.1,0.1 0.3,0 0.6,0.1 0.8,0.3 0.4,0.2 0.7,0.5 0.8,0.9 0.3,0.4 0.4,0.9 0.4,1.4 0,0.6 0,1.2 -0.3,1.8 C 2.7,4.6 2.6,4.8 2.5,4.9 2.3,5 2.2,5.1 2,5.2 2.5,5.3 2.8,5.6 3,6 3.2,6.5 3.3,7.1 3.3,7.7 3.3,8.1 3.3,8.5 3.2,8.9 3.2,9.3 3,9.7 2.8,10 2.6,10.3 2.3,10.6 2,10.8 1.5,11 1,11.1 0.5,11.1 H -1.8 C -1.9,11.1 -2,11 -2,11 -2.1,10.9 -2.1,10.8 -2.1,10.7 V 0.4 C -2.1,0.3 -2.1,0.2 -2,0.1 -1.9,0 -1.9,0 -1.8,0 Z m -0.9,4.6 h 1 c 0.2,0 0.5,0 0.7,0 C 1,4.6 1.2,4.5 1.4,4.4 1.5,4.2 1.7,4 1.7,3.8 1.8,3.4 1.8,3.1 1.8,2.7 1.8,2.4 1.8,2.1 1.7,1.9 1.6,1.7 1.5,1.6 1.3,1.5 1.1,1.4 0.9,1.3 0.7,1.3 c -0.2,0 -0.5,0 -0.8,0 H -1 v 3.3 z m 0,1.3 v 3.9 h 1.3 c 0.2,0 0.5,0 0.7,-0.1 C 1.3,9.6 1.5,9.5 1.6,9.4 1.8,9.2 1.9,9 1.9,8.8 2,8.4 2.1,8 2.1,7.6 2.1,7.3 2.1,7 2,6.7 1.9,6.5 1.7,6.3 1.6,6.2 1.4,6.1 1.2,6 0.9,6 0.7,5.9 0.4,5.9 0.1,5.9 Z"
   id="path288"
   inkscape:connector-curvature="0"
   style="fill:#555555" />
		</g>
		<g
   transform="translate(198.764,-28.14)"
   id="g294">
			<path
   class="st2"
   d="m 0,0 c -0.1,0 -0.2,0 -0.3,-0.1 -0.1,-0.1 -0.1,-0.2 -0.1,-0.3 v -10.3 c 0,-0.1 0,-0.2 0.1,-0.2 C -0.2,-11 -0.1,-11 0,-11 h 0.5 c 0.1,0 0.2,0 0.3,0.1 0.1,0.1 0.1,0.2 0.1,0.2 v 10.3 c 0,0.1 0,0.2 -0.1,0.3 C 0.7,0 0.6,0 0.5,0 Z"
   id="path292"
   inkscape:connector-curvature="0"
   style="fill:#555555" />
		</g>
		<g
   transform="translate(204.879,-39.21)"
   id="g298">
			<path
   class="st2"
   d="m 0,0 c 0.4,0 0.8,0 1.1,0.1 0.3,0 0.6,0.1 0.8,0.3 0.4,0.2 0.7,0.5 0.8,0.9 0.3,0.4 0.4,0.9 0.4,1.4 0,0.6 0,1.2 -0.3,1.8 C 2.7,4.6 2.6,4.8 2.5,4.9 2.3,5 2.2,5.1 2,5.2 2.5,5.3 2.8,5.6 3,6 3.2,6.5 3.3,7.1 3.3,7.7 3.3,8.1 3.3,8.5 3.2,8.9 3.2,9.3 3,9.7 2.8,10 2.6,10.3 2.3,10.6 2,10.8 1.5,11 1,11.1 0.5,11.1 H -1.8 C -1.9,11.1 -2,11 -2,11 -2.1,10.9 -2.1,10.8 -2.1,10.7 V 0.4 C -2.1,0.3 -2.1,0.2 -2,0.1 -1.9,0 -1.9,0 -1.8,0 Z m -0.9,4.6 h 1 c 0.2,0 0.5,0 0.7,0 C 1,4.6 1.2,4.5 1.4,4.4 1.5,4.2 1.7,4 1.7,3.8 1.8,3.4 1.8,3.1 1.8,2.7 1.8,2.4 1.8,2.1 1.7,1.9 1.6,1.7 1.5,1.6 1.3,1.5 1.1,1.4 0.9,1.3 0.7,1.3 c -0.2,0 -0.5,0 -0.8,0 H -1 v 3.3 z m 0,1.3 v 3.9 h 1.3 c 0.2,0 0.5,0 0.7,-0.1 C 1.3,9.6 1.5,9.5 1.6,9.4 1.8,9.2 1.9,9 1.9,8.8 2,8.4 2.1,8 2.1,7.6 2.1,7.3 2.1,7 2,6.7 1.9,6.5 1.7,6.3 1.6,6.2 1.4,6.1 1.2,6 0.9,6 0.7,5.9 0.4,5.9 0.1,5.9 Z"
   id="path296"
   inkscape:connector-curvature="0"
   style="fill:#555555" />
		</g>
		<g
   transform="translate(215.354,-28.501)"
   id="g302">
			<path
   class="st2"
   d="m 0,0 c 0,0.1 0,0.2 -0.1,0.3 -0.1,0.1 -0.2,0.1 -0.3,0.1 h -3.9 c -0.1,0 -0.2,0 -0.3,-0.1 0,-0.1 0,-0.2 0,-0.3 v -10.3 c 0,-0.1 0,-0.2 0.1,-0.2 0.1,-0.1 0.2,-0.1 0.3,-0.1 h 0.5 c 0.1,0 0.2,0 0.3,0.1 0.1,0.1 0.1,0.2 0.1,0.2 v 9.5 h 3 c 0.1,0 0.2,0 0.3,0.1 0,0 0,0.1 0,0.2 z"
   id="path300"
   inkscape:connector-curvature="0"
   style="fill:#555555" />
		</g>
		<g
   transform="translate(217.799,-28.14)"
   id="g306">
			<path
   class="st2"
   d="m 0,0 c -0.1,0 -0.2,0 -0.3,-0.1 -0.1,-0.1 -0.1,-0.2 -0.1,-0.3 v -10.3 c 0,-0.1 0,-0.2 0.1,-0.2 C -0.2,-11 -0.1,-11 0,-11 h 0.5 c 0.1,0 0.2,0 0.3,0.1 0.1,0.1 0.1,0.2 0.1,0.2 v 10.3 c 0,0.1 0,0.2 -0.1,0.3 C 0.7,0 0.6,0 0.5,0 Z"
   id="path304"
   inkscape:connector-curvature="0"
   style="fill:#555555" />
		</g>
		<g
   transform="translate(224.189,-27.983)"
   id="g310">
			<path
   class="st2"
   d="M 0,0 C -0.5,0 -1,-0.1 -1.4,-0.3 -1.7,-0.5 -2,-0.7 -2.2,-1 c -0.2,-0.3 -0.3,-0.6 -0.4,-0.9 -0.1,-0.3 -0.1,-0.5 -0.1,-0.8 -0.1,-1 -0.1,-2 -0.1,-3 0,-0.9 0,-1.9 0.1,-3 0,-0.3 0.1,-0.5 0.1,-0.8 0.1,-0.3 0.2,-0.6 0.4,-0.9 0.2,-0.3 0.5,-0.5 0.8,-0.7 0.4,-0.2 0.9,-0.3 1.4,-0.3 0.5,0 1,0.1 1.4,0.3 0.3,0.2 0.6,0.4 0.8,0.7 0.2,0.3 0.3,0.6 0.4,0.9 0.1,0.3 0.1,0.5 0.1,0.8 0.1,1 0.1,2 0.1,3 0,1 0,1.9 -0.1,3 0,0.3 -0.1,0.5 -0.1,0.8 C 2.5,-1.6 2.4,-1.3 2.2,-1 2,-0.7 1.7,-0.5 1.4,-0.3 1,-0.1 0.5,0 0,0 m 0,-10.1 c -0.3,0 -0.5,0 -0.7,0.2 -0.2,0.1 -0.3,0.2 -0.4,0.4 -0.1,0.2 -0.2,0.4 -0.2,0.6 0,0.2 -0.1,0.5 -0.1,0.7 -0.1,0.9 -0.1,1.7 -0.1,2.5 0,0.8 0,1.6 0.1,2.5 0,0.2 0,0.5 0.1,0.7 0,0.2 0.1,0.4 0.2,0.6 0.1,0.2 0.2,0.3 0.4,0.5 0.2,0.1 0.4,0.2 0.7,0.1 0.3,0 0.5,0 0.7,-0.2 0.2,-0.1 0.3,-0.3 0.4,-0.5 0.1,-0.2 0.2,-0.4 0.2,-0.6 0,-0.2 0.1,-0.5 0.1,-0.7 0,-0.9 0.1,-1.7 0.1,-2.5 0,-0.8 0,-1.6 -0.1,-2.5 0,-0.2 0,-0.5 -0.1,-0.7 C 1.3,-9.2 1.2,-9.4 1.1,-9.6 1,-9.7 0.9,-9.8 0.7,-10 0.5,-10.1 0.3,-10.1 0,-10.1"
   id="path308"
   inkscape:connector-curvature="0"
   style="fill:#555555" />
		</g>
		<g
   transform="translate(233.763,-38.316)"
   id="g314">
			<path
   class="st2"
   d="m 0,0 c 0,0.1 0,0.2 -0.1,0.3 -0.1,0.1 -0.2,0.1 -0.3,0.1 h -1.8 v 9.4 c 0,0.1 0,0.2 -0.1,0.3 -0.1,0.1 -0.2,0.1 -0.3,0.1 H -3 c -0.1,0 -0.2,0 -0.3,-0.1 C -3.4,10 -3.4,9.9 -3.4,9.8 V 0.4 h -1.8 c -0.1,0 -0.2,0 -0.2,-0.1 C -5.5,0.2 -5.6,0.1 -5.6,0 v -0.5 c 0,-0.1 0,-0.2 0.1,-0.3 0.1,-0.1 0.2,-0.1 0.2,-0.1 h 4.8 c 0.1,0 0.2,0 0.3,0.1 C 0,-0.7 0,-0.6 0,-0.5 Z"
   id="path312"
   inkscape:connector-curvature="0"
   style="fill:#555555" />
		</g>
		<g
   transform="translate(240.27,-28.14)"
   id="g318">
			<path
   class="st2"
   d="m 0,0 c -0.1,0 -0.2,0 -0.3,-0.1 -0.1,-0.1 -0.1,-0.2 -0.1,-0.3 v -4.7 h -2.9 v 4.7 c 0,0.1 0,0.2 -0.1,0.3 C -3.4,0 -3.5,0 -3.6,0 h -0.5 c -0.1,0 -0.2,0 -0.3,-0.1 -0.1,-0.1 -0.1,-0.2 -0.1,-0.3 v -10.3 c 0,-0.1 0,-0.2 0.1,-0.2 0.1,-0.1 0.2,-0.1 0.3,-0.1 h 0.5 c 0.1,0 0.2,0 0.3,0.1 0.1,0.1 0.1,0.2 0.1,0.2 v 4.4 h 2.9 v -4.4 c 0,-0.1 0,-0.2 0.1,-0.2 C -0.1,-11 0,-11 0.1,-11 h 0.5 c 0.1,0 0.2,0 0.3,0.1 0.1,0.1 0.1,0.2 0.1,0.2 V -0.4 C 1,-0.3 1,-0.2 0.9,-0.1 0.7,0 0.6,0 0.5,0 Z"
   id="path316"
   inkscape:connector-curvature="0"
   style="fill:#555555" />
		</g>
		<g
   transform="translate(248.91,-28.501)"
   id="g322">
			<path
   class="st2"
   d="m 0,0 c 0,0.1 0,0.2 -0.1,0.3 -0.1,0.1 -0.2,0.1 -0.3,0.1 h -4.1 c -0.1,0 -0.2,0 -0.3,-0.1 0,-0.1 -0.1,-0.2 -0.1,-0.3 v -10.3 c 0,-0.1 0,-0.2 0.1,-0.2 0.1,-0.1 0.2,-0.1 0.3,-0.1 h 4 c 0.1,0 0.2,0 0.3,0.1 0.1,0.1 0.1,0.2 0.1,0.3 v 0.5 c 0,0.1 0,0.2 -0.1,0.3 -0.1,0.1 -0.2,0.1 -0.3,0.1 H -3.6 V -6 h 2.7 c 0.1,0 0.2,0 0.3,0.1 0.1,0.1 0.1,0.2 0.1,0.3 v 0.5 c 0,0.1 0,0.2 -0.1,0.3 -0.1,0.1 -0.2,0.1 -0.3,0.1 h -2.7 v 3.8 h 3.2 c 0.1,0 0.2,0 0.3,0.1 C 0,-0.7 0,-0.6 0,-0.5 Z"
   id="path320"
   inkscape:connector-curvature="0"
   style="fill:#555555" />
		</g>
		<g
   transform="translate(256.655,-28.501)"
   id="g326">
			<path
   class="st2"
   d="M 0,0 C 0,0.1 0,0.2 0,0.3 0,0.4 -0.1,0.4 -0.2,0.4 H -1 c -0.1,0 -0.2,0 -0.3,-0.1 0,-0.1 0,-0.2 -0.1,-0.3 l -2.1,-5.1 -0.8,1.3 V 0 c 0,0.1 0,0.2 -0.1,0.3 -0.1,0.1 -0.2,0.1 -0.3,0.1 h -0.5 c -0.1,0 -0.2,0 -0.3,-0.1 0,-0.1 0,-0.2 0,-0.3 v -10.3 c 0,-0.1 0,-0.2 0.1,-0.3 0.1,-0.1 0.2,-0.1 0.3,-0.1 h 0.5 c 0.1,0 0.2,0 0.3,0.1 0.1,0.1 0.1,0.2 0.1,0.3 v 4.5 l 2.7,-4.6 c 0,-0.1 0.1,-0.1 0.2,-0.2 0.1,-0.1 0.2,-0.1 0.2,-0.1 h 0.8 c 0.1,0 0.1,0 0.1,0 0,0 0.1,0.1 0.1,0.1 0,0.1 0,0.1 0,0.2 l -2.4,4.1 z"
   id="path324"
   inkscape:connector-curvature="0"
   style="fill:#555555" />
		</g>
	</g>
</g>
<g
   id="Ebene_2">
	<path
   style="fill:#555555"
   inkscape:connector-curvature="0"
   id="path331"
   d="M 33.6,49 H 31.3 C 30.6,49 29.9,48.7 29.4,48.1 29,47.6 28.7,47 28.7,46.3 V 2.6 C 28.7,2 29,1.3 29.4,0.9 29.9,0.3 30.6,0 31.3,0 h 2.3 c 0.7,0 1.5,0.3 1.9,0.9 0.4,0.5 0.6,1.1 0.6,1.7 v 43.8 c 0,0.6 -0.2,1.3 -0.6,1.7 -0.4,0.6 -1.1,0.9 -1.9,0.9 z"
   class="st2" /><path
   style="fill:#555555"
   inkscape:connector-curvature="0"
   id="path333"
   d="M 14.1,49 H 11.8 C 11.1,49 10.4,48.7 9.9,48.1 9.5,47.6 9.2,47 9.2,46.3 V 7.5 H 2.6 C 2,7.5 1.3,7.2 0.9,6.8 0.3,6.3 0,5.6 0,4.9 V 2.6 C 0,1.8 0.3,1.1 0.9,0.6 1.4,0.2 2,0 2.6,0 h 20.5 c 0.6,0 1.3,0.2 1.7,0.6 0.6,0.5 0.9,1.2 0.9,1.9 v 2.3 c 0,0.7 -0.3,1.4 -0.9,1.9 -0.5,0.4 -1.1,0.7 -1.8,0.6 h -6.5 v 38.9 c 0,0.6 -0.2,1.3 -0.6,1.8 -0.4,0.7 -1.1,1 -1.8,1 z"
   class="st2" /><path
   style="fill:#555555"
   inkscape:connector-curvature="0"
   id="path335"
   d="M 54.1,49 H 44.5 C 43.8,49 43.1,48.7 42.6,48.1 42.2,47.6 41.9,47 41.9,46.3 V 2.6 c 0,-0.8 0.3,-1.5 0.9,-2 C 43.3,0.2 43.9,0 44.5,0 H 52 c 1.7,0 3.3,0.1 5,0.3 1.3,0.1 2.7,0.5 3.8,1.2 1.8,1 3.2,2.6 4,4.5 0.9,2 1.3,4.1 1.3,6.3 0,3.6 -0.4,6.2 -1.2,7.9 -0.4,0.9 -1,1.7 -1.7,2.4 l -0.4,0.3 c 1.3,0.8 2.3,1.9 2.9,3.3 1,2.4 1.4,4.9 1.3,7.5 0,1.8 -0.1,3.5 -0.3,5.3 -0.2,1.8 -0.8,3.5 -1.8,5 -1,1.6 -2.3,2.9 -4,3.7 -2,0.9 -4.4,1.4 -6.8,1.3 z m -4.7,-7.4 h 4.4 c 0.9,0 1.8,-0.1 2.7,-0.3 0.7,-0.2 1.2,-0.6 1.7,-1.1 0.6,-0.7 0.9,-1.5 1.1,-2.3 0.3,-1.5 0.5,-3 0.4,-4.4 0,-1.2 -0.1,-2.3 -0.5,-3.4 C 59,29.4 58.5,28.8 58,28.3 57.4,27.8 56.6,27.5 55.8,27.4 54.7,27.2 53.5,27.1 52.4,27.1 h -3 z m 0,-22 h 3.1 c 0.9,0 1.8,-0.1 2.8,-0.2 0.7,-0.1 1.3,-0.3 1.8,-0.7 0.6,-0.5 1,-1.2 1.2,-1.9 0.4,-1.4 0.6,-2.8 0.5,-4.2 0.1,-1 -0.1,-2 -0.5,-3 C 58,9 57.6,8.5 57.1,8.2 56.5,7.8 55.8,7.6 55.1,7.6 54.2,7.5 53.1,7.5 52,7.5 h -2.6 z"
   class="st2" />
<g
   aria-label="SAHdigital"
   style="font-style:normal;font-weight:normal;font-size:40px;line-height:1.25;font-family:sans-serif;letter-spacing:0px;word-spacing:0px;fill:#555555;fill-opacity:1;stroke:none"
   id="text1117"><path
     d="m 92.460772,48.255848 q -4.733333,0 -7.666667,-3.2 -2.933334,-3.266667 -2.933334,-8.466667 v -1.4 q 0,-0.666667 0.666667,-0.666667 h 2.133334 q 0.666666,0 0.666666,0.666667 v 1.266667 q 0,3.933333 1.933334,6.333333 2,2.400001 5.133334,2.400001 3.133333,0 5.2,-2.333334 2.066667,-2.333333 2.066667,-6.066667 0,-2.466667 -1,-4.266667 -0.933334,-1.8 -2.466667,-3.066667 -1.466667,-1.333333 -4.866667,-3.933334 -3.466667,-2.6 -5.333334,-4.266667 -1.8,-1.733333 -3,-4.066667 -1.2,-2.4 -1.2,-5.666667 0,-5.1333334 2.866667,-8.0666669 2.866667,-2.93333359 7.4,-2.93333359 4.866667,0 7.800001,3.26666689 2.933337,3.2666669 2.933337,8.6000006 v 1.666667 q 0,0.666667 -0.66667,0.666667 h -2.200001 q -0.666666,0 -0.666666,-0.666667 v -1.666667 q 0,-3.9333336 -2,-6.3333337 -1.933334,-2.4666669 -5.200001,-2.4666669 -2.933333,0 -4.866667,2.1333335 -1.933333,2.0666668 -1.933333,5.8666671 0,2.266667 0.8,3.933334 0.866666,1.666666 2.4,3.133333 1.6,1.466667 4.8,3.866667 3.933334,2.933334 5.866667,4.733334 1.933331,1.8 2.933331,3.933334 1.06667,2.133333 1.06667,5.133333 0,5.466667 -3,8.733334 -2.933334,3.2 -7.666668,3.2 z"
     style="font-style:normal;font-variant:normal;font-weight:300;font-stretch:condensed;font-size:66.66667175px;font-family:'Barlow Condensed';-inkscape-font-specification:'Barlow Condensed, Light Condensed';fill:#555555;fill-opacity:1"
     id="path1195" /><path
     d="m 128.47432,47.722515 q -0.6,0 -0.73334,-0.6 l -1.8,-8.733334 q 0,-0.133333 -0.13333,-0.2 -0.0667,-0.06667 -0.2,-0.06667 h -13.06667 q -0.13333,0 -0.26667,0.06667 -0.0667,0.06667 -0.0667,0.2 l -1.8,8.733334 q -0.0667,0.6 -0.73334,0.6 h -2.2 q -0.33333,0 -0.53333,-0.2 -0.13333,-0.2 -0.0667,-0.533333 L 117.00765,1.6558449 q 0.13333,-0.6 0.73333,-0.6 h 2.66667 q 0.66667,0 0.73333,0.6 l 10.2,45.3333371 v 0.133333 q 0,0.6 -0.6,0.6 z M 112.94098,34.922514 q 0,0.266667 0.2,0.266667 h 11.8 q 0.2,0 0.2,-0.266667 L 119.20765,6.722512 q -0.0667,-0.2 -0.13333,-0.2 -0.0667,0 -0.13334,0.2 z"
     style="font-style:normal;font-variant:normal;font-weight:300;font-stretch:condensed;font-size:66.66667175px;font-family:'Barlow Condensed';-inkscape-font-specification:'Barlow Condensed, Light Condensed';fill:#555555;fill-opacity:1"
     id="path1197" /><path
     d="m 154.64932,1.7225116 q 0,-0.6666667 0.66666,-0.6666667 h 2.2 q 0.66667,0 0.66667,0.6666667 V 47.055848 q 0,0.666667 -0.66667,0.666667 h -2.2 q -0.66666,0 -0.66666,-0.666667 V 26.18918 q 0,-0.266667 -0.26667,-0.266667 h -13.2 q -0.26667,0 -0.26667,0.266667 v 20.866668 q 0,0.666667 -0.66666,0.666667 h -2.2 q -0.66667,0 -0.66667,-0.666667 V 1.7225116 q 0,-0.6666667 0.66667,-0.6666667 h 2.2 q 0.66666,0 0.66666,0.6666667 V 22.522513 q 0,0.266667 0.26667,0.266667 h 13.2 q 0.26667,0 0.26667,-0.266667 z"
     style="font-style:normal;font-variant:normal;font-weight:300;font-stretch:condensed;font-size:66.66667175px;font-family:'Barlow Condensed';-inkscape-font-specification:'Barlow Condensed, Light Condensed';fill:#555555;fill-opacity:1"
     id="path1199" /><path
     d="m 191.62953,1.7225116 q 0,-0.6666667 0.66667,-0.6666667 h 2.2 q 0.66666,0 0.66666,0.6666667 V 47.055848 q 0,0.666667 -0.66666,0.666667 h -2.2 q -0.66667,0 -0.66667,-0.666667 v -1.866666 q 0,-0.133334 -0.13333,-0.133334 -0.0667,-0.06667 -0.2,0.06667 -1.2,1.533333 -2.93334,2.333333 -1.73333,0.8 -3.73333,0.8 -4.13333,0 -6.66667,-2.733333 -2.46666,-2.8 -2.46666,-7.200001 V 23.58918 q 0,-4.466667 2.46666,-7.200001 2.53334,-2.8 6.66667,-2.8 2,0 3.73333,0.8 1.73334,0.8 2.93334,2.333334 0.13333,0.133333 0.2,0.133333 0.13333,-0.06667 0.13333,-0.2 z m -6.2,43.4000034 q 2.73333,0 4.46667,-1.933334 1.73333,-1.933333 1.73333,-5.066667 V 23.78918 q 0,-3.133334 -1.73333,-5.066667 -1.73334,-2 -4.46667,-2 -2.86667,0 -4.66667,2 -1.8,1.933333 -1.8,5.066667 v 14.333334 q 0,3.066667 1.8,5.066667 1.8,1.933334 4.66667,1.933334 z"
     style="font-style:normal;font-variant:normal;font-weight:300;font-stretch:condensed;font-size:66.66667175px;font-family:'Barlow Condensed';-inkscape-font-specification:'Barlow Condensed, Light Condensed';fill:#555555;fill-opacity:1"
     id="path1201" /><path
     d="m 206.49412,7.3891787 q -1.46667,0 -2.4,-0.9333334 -0.93334,-0.9333334 -0.93334,-2.4000002 0,-1.4666668 0.93334,-2.4000002 0.93333,-0.93333338 2.4,-0.93333338 1.46666,0 2.4,0.93333338 0.93333,0.9333334 0.93333,2.4000002 0,1.4666668 -0.93333,2.4000002 -0.93334,0.9333334 -2.4,0.9333334 z m -1.06667,40.3333363 q -0.66667,0 -0.66667,-0.666667 V 14.789179 q 0,-0.666666 0.66667,-0.666666 h 2.2 q 0.66667,0 0.66667,0.666666 v 32.266669 q 0,0.666667 -0.66667,0.666667 z"
     style="font-style:normal;font-variant:normal;font-weight:300;font-stretch:condensed;font-size:66.66667175px;font-family:'Barlow Condensed';-inkscape-font-specification:'Barlow Condensed, Light Condensed';fill:#555555;fill-opacity:1"
     id="path1203" /><path
     d="m 233.16599,14.789179 q 0,-0.666666 0.66667,-0.666666 h 2.26666 q 0.66667,0 0.66667,0.666666 v 32.533336 q 0,6.866667 -3.13333,10.466668 -3.13334,3.6 -10.06667,3.333333 -0.66667,0 -0.66667,-0.666667 v -1.8 q 0,-0.666666 0.86667,-0.666666 5.06667,0 7.2,-2.733334 2.2,-2.733334 2.2,-8.200001 v -2.533333 q 0,-0.2 -0.13333,-0.2 -0.13334,-0.06667 -0.2,0.133333 -1.13334,1.8 -2.93334,2.733334 -1.73333,0.866666 -3.86666,0.866666 -4.13334,0 -6.6,-2.733333 -2.4,-2.8 -2.4,-7.266667 V 23.58918 q 0,-4.466667 2.4,-7.200001 2.46666,-2.8 6.6,-2.8 2.13333,0 3.93333,0.933334 1.8,0.933333 2.86667,2.666666 0.13333,0.133334 0.2,0.133334 0.13333,0 0.13333,-0.2 z m -6.2,30.133336 q 2.73333,0 4.46667,-1.933334 1.73333,-1.933333 1.73333,-5.066667 V 23.78918 q 0,-3.133334 -1.73333,-5.066667 -1.73334,-2 -4.46667,-2 -2.8,0 -4.6,2 -1.8,1.933333 -1.8,5.066667 v 14.133334 q 0,3.066667 1.8,5.066667 1.8,1.933334 4.6,1.933334 z"
     style="font-style:normal;font-variant:normal;font-weight:300;font-stretch:condensed;font-size:66.66667175px;font-family:'Barlow Condensed';-inkscape-font-specification:'Barlow Condensed, Light Condensed';fill:#555555;fill-opacity:1"
     id="path1205" /><path
     d="m 247.77016,7.3891787 q -1.46666,0 -2.4,-0.9333334 -0.93333,-0.9333334 -0.93333,-2.4000002 0,-1.4666668 0.93333,-2.4000002 0.93334,-0.93333338 2.4,-0.93333338 1.46667,0 2.4,0.93333338 0.93334,0.9333334 0.93334,2.4000002 0,1.4666668 -0.93334,2.4000002 -0.93333,0.9333334 -2.4,0.9333334 z M 246.7035,47.722515 q -0.66667,0 -0.66667,-0.666667 V 14.789179 q 0,-0.666666 0.66667,-0.666666 h 2.2 q 0.66666,0 0.66666,0.666666 v 32.266669 q 0,0.666667 -0.66666,0.666667 z"
     style="font-style:normal;font-variant:normal;font-weight:300;font-stretch:condensed;font-size:66.66667175px;font-family:'Barlow Condensed';-inkscape-font-specification:'Barlow Condensed, Light Condensed';fill:#555555;fill-opacity:1"
     id="path1207" /><path
     d="m 269.97537,16.255846 q 0,0.666667 -0.66667,0.666667 h -5.33333 q -0.26667,0 -0.26667,0.266666 v 21.466669 q 0,3.333333 1.13334,4.666667 1.13333,1.266667 3.6,1.266667 h 0.66666 q 0.66667,0 0.66667,0.666666 v 1.8 q 0,0.666667 -0.66667,0.666667 h -1.33333 q -3.73333,0 -5.66667,-1.733333 -1.86666,-1.733334 -1.86666,-6.466668 V 17.189179 q 0,-0.266666 -0.26667,-0.266666 h -2.73333 q -0.66667,0 -0.66667,-0.666667 v -1.466667 q 0,-0.666666 0.66667,-0.666666 h 2.73333 q 0.26667,0 0.26667,-0.266667 V 6.3891786 q 0,-0.6666667 0.66666,-0.6666667 h 2.13334 q 0.66666,0 0.66666,0.6666667 v 7.4666674 q 0,0.266667 0.26667,0.266667 h 5.33333 q 0.66667,0 0.66667,0.666666 z"
     style="font-style:normal;font-variant:normal;font-weight:300;font-stretch:condensed;font-size:66.66667175px;font-family:'Barlow Condensed';-inkscape-font-specification:'Barlow Condensed, Light Condensed';fill:#555555;fill-opacity:1"
     id="path1209" /><path
     d="m 285.68996,13.589179 q 4.53333,0 7.06667,3.066667 2.6,3 2.6,8.066667 v 22.333335 q 0,0.666667 -0.66667,0.666667 h -2.2 q -0.66667,0 -0.66667,-0.666667 v -2.4 q 0,-0.2 -0.13333,-0.2 -0.0667,-0.06667 -0.2,0.06667 -2.46667,3.733333 -7.73333,3.733333 -3.53334,0 -6.13334,-2.066666 -2.6,-2.066667 -2.6,-7.266668 0,-5.533333 3.06667,-8.133334 3.13333,-2.6 8.26667,-2.6 h 5.2 q 0.26666,0 0.26666,-0.266666 v -3.066667 q 0,-3.733334 -1.66666,-5.933334 -1.66667,-2.2 -4.6,-2.2 -2.26667,0 -4,1.466667 -1.66667,1.466666 -1.93334,3.8 0,0.666667 -0.66666,0.666667 l -2.4,-0.133334 q -0.33334,0 -0.53334,-0.2 -0.13333,-0.2 -0.0667,-0.466667 0.4,-3.733333 3.13333,-6 2.73333,-2.266667 6.6,-2.266667 z m -1.2,31.533336 q 3,0 5.13333,-1.933334 2.2,-1.933333 2.2,-5.466667 v -6.333333 q 0,-0.266667 -0.26666,-0.266667 h -5.2 q -3.46667,0 -5.6,1.933333 -2.06667,1.866667 -2.06667,5.600001 0,3.266667 1.6,4.866667 1.6,1.6 4.2,1.6 z"
     style="font-style:normal;font-variant:normal;font-weight:300;font-stretch:condensed;font-size:66.66667175px;font-family:'Barlow Condensed';-inkscape-font-specification:'Barlow Condensed, Light Condensed';fill:#555555;fill-opacity:1"
     id="path1211" /><path
     d="m 303.77642,47.722515 q -0.66667,0 -0.66667,-0.666667 V 1.7225116 q 0,-0.6666667 0.66667,-0.6666667 h 2.2 q 0.66666,0 0.66666,0.6666667 V 47.055848 q 0,0.666667 -0.66666,0.666667 z"
     style="font-style:normal;font-variant:normal;font-weight:300;font-stretch:condensed;font-size:66.66667175px;font-family:'Barlow Condensed';-inkscape-font-specification:'Barlow Condensed, Light Condensed';fill:#555555;fill-opacity:1"
     id="path1213" /></g>
</g>


</svg>