<?xml version="1.0" encoding="UTF-8" standalone="no"?>
<svg
   xmlns:dc="http://purl.org/dc/elements/1.1/"
   xmlns:cc="http://creativecommons.org/ns#"
   xmlns:rdf="http://www.w3.org/1999/02/22-rdf-syntax-ns#"
   xmlns:svg="http://www.w3.org/2000/svg"
   xmlns="http://www.w3.org/2000/svg"
   xmlns:sodipodi="http://sodipodi.sourceforge.net/DTD/sodipodi-0.dtd"
   xmlns:inkscape="http://www.inkscape.org/namespaces/inkscape"
   data-name="Layer 1"
   id="Layer_1"
   viewBox="0 0 30 30.000002"
   version="1.1"
   sodipodi:docname="question2.svg"
   width="30"
   height="30.000002"
   inkscape:version="0.92.3 (2405546, 2018-03-11)">
  <metadata
     id="metadata19">
    <rdf:RDF>
      <cc:Work
         rdf:about="">
        <dc:format>image/svg+xml</dc:format>
        <dc:type
           rdf:resource="http://purl.org/dc/dcmitype/StillImage" />
        <dc:title></dc:title>
      </cc:Work>
    </rdf:RDF>
  </metadata>
  <sodipodi:namedview
     inkscape:guide-bbox="true"
     showguides="true"
     inkscape:document-rotation="0"
     pagecolor="#ffffff"
     bordercolor="#666666"
     borderopacity="1"
     objecttolerance="10"
     gridtolerance="10"
     guidetolerance="10"
     inkscape:pageopacity="0"
     inkscape:pageshadow="2"
     inkscape:window-width="3815"
     inkscape:window-height="2079"
     id="namedview17"
     showgrid="false"
     inkscape:zoom="18.561553"
     inkscape:cx="-14.673815"
     inkscape:cy="15.372139"
     inkscape:window-x="25"
     inkscape:window-y="27"
     inkscape:window-maximized="1"
     inkscape:current-layer="Layer_1"
     inkscape:snap-bbox="true">
    <sodipodi:guide
       id="guide903"
       orientation="1,0"
       position="15.03107,33.833376"
       inkscape:locked="false" />
  </sodipodi:namedview>
  <defs
     id="defs4">
    <style
       id="style2">.cls-1{fill:none;stroke:#078cd6;stroke-linecap:round;stroke-linejoin:round;stroke-width:2px;}</style>
    <style
       id="style879">.cls-1{fill:none;stroke:#078cd6;stroke-linecap:round;stroke-linejoin:round;stroke-width:2px;}.cls-2{fill:#078cd6;}</style>
  </defs>
  <rect
     style="fill:none;fill-opacity:1;stroke:none;stroke-width:1.23023593;stroke-linecap:round;stroke-linejoin:round;stroke-opacity:1"
     id="rect844"
     width="28.020832"
     height="28.020834"
     x="0.96974641"
     y="2.800524" />
  <ellipse
     cy="16.404778"
     cx="13.451274"
     id="path871-6-8"
     style="fill:none;fill-opacity:1;stroke:#000000;stroke-width:0.74722219;stroke-linecap:round;stroke-linejoin:round;stroke-miterlimit:4;stroke-dasharray:none;stroke-opacity:1"
     rx="13.548189"
     ry="13.826878"
     transform="rotate(-5.6850085)" />
  <g
     aria-label="?"
     style="font-style:normal;font-weight:normal;font-size:40px;line-height:1.25;font-family:sans-serif;letter-spacing:0px;word-spacing:0px;fill:#000000;fill-opacity:1;stroke:none"
     id="text15"
     transform="matrix(1.2020572,0,0,1.2020572,-3.0255486,-2.9756155)">
    <path
       d="m 13.901087,18.456069 q 0.02083,-1.239584 0.28125,-1.958334 0.260417,-0.71875 1.0625,-1.59375 l 1.364583,-1.40625 q 0.875,-0.989583 0.875,-2.125 0,-1.09375 -0.572916,-1.7083334 -0.572917,-0.625 -1.666667,-0.625 -1.0625,0 -1.708333,0.5625 -0.645834,0.5625004 -0.645834,1.5104164 h -1.927083 q 0.02083,-1.6874997 1.197917,-2.7187498 1.1875,-1.0416667 3.083333,-1.0416667 1.96875,0 3.0625,1.0625001 1.104167,1.0520833 1.104167,2.8958334 0,1.822917 -1.6875,3.59375 l -1.135417,1.125 q -0.760417,0.84375 -0.760417,2.427084 z m -0.08333,3.302083 q 0,-0.46875 0.28125,-0.78125 0.291666,-0.322917 0.854166,-0.322917 0.5625,0 0.854167,0.322917 0.291667,0.3125 0.291667,0.78125 0,0.46875 -0.291667,0.78125 -0.291667,0.302083 -0.854167,0.302083 -0.5625,0 -0.854166,-0.302083 -0.28125,-0.3125 -0.28125,-0.78125 z"
       style="font-style:normal;font-variant:normal;font-weight:normal;font-stretch:normal;font-size:21.33333397px;font-family:Roboto;-inkscape-font-specification:Roboto;fill:#000000;fill-opacity:1"
       id="path17"
       inkscape:connector-curvature="0" />
  </g>
  <ellipse
     cy="15.032017"
     cx="14.97407"
     id="path871-6-8-9"
     style="fill:none;fill-opacity:1;stroke:#000000;stroke-width:0.74722219;stroke-linecap:round;stroke-linejoin:round;stroke-miterlimit:4;stroke-dasharray:none;stroke-opacity:1"
     rx="11.957644"
     ry="12.203615" />
</svg>
